<?xml version="1.0" encoding="UTF-8" standalone="no"?>
<svg
   viewBox="0 0 640 640"
   version="1.1"
   id="svg1"
   sodipodi:docname="arrow-turn-up-solid-full.svg"
   inkscape:version="1.3.2 (091e20e, 2023-11-25, custom)"
   xmlns:inkscape="http://www.inkscape.org/namespaces/inkscape"
   xmlns:sodipodi="http://sodipodi.sourceforge.net/DTD/sodipodi-0.dtd"
   xmlns="http://www.w3.org/2000/svg"
   xmlns:svg="http://www.w3.org/2000/svg">
  <defs
     id="defs1" />
  <sodipodi:namedview
     id="namedview1"
     pagecolor="#ffffff"
     bordercolor="#000000"
     borderopacity="0.25"
     inkscape:showpageshadow="2"
     inkscape:pageopacity="0.0"
     inkscape:pagecheckerboard="true"
     inkscape:deskcolor="#d1d1d1"
     inkscape:zoom="1.1546875"
     inkscape:cx="319.56698"
     inkscape:cy="320"
     inkscape:window-width="1920"
     inkscape:window-height="974"
     inkscape:window-x="-11"
     inkscape:window-y="-11"
     inkscape:window-maximized="1"
     inkscape:current-layer="svg1" />
  <!--!Font Awesome Free 7.1.0 by @fontawesome - https://fontawesome.com License - https://fontawesome.com/license/free Copyright 2026 Fonticons, Inc.-->
  <path
     d="M160 512C142.3 512 128 526.3 128 544C128 561.7 142.3 576 160 576L256 576C309 576 352 533 352 480L352 173.3L425.4 246.7C437.9 259.2 458.2 259.2 470.7 246.7C483.2 234.2 483.2 213.9 470.7 201.4L342.7 73.4C330.2 60.9 309.9 60.9 297.4 73.4L169.4 201.4C156.9 213.9 156.9 234.2 169.4 246.7C181.9 259.2 202.2 259.2 214.7 246.7L288 173.3L288 480C288 497.7 273.7 512 256 512L160 512z"
     id="path1"
     style="fill:#ffffff" />
</svg>
