<?xml version="1.0" encoding="UTF-8" standalone="no"?>
<svg
   viewBox="0 0 640 640"
   version="1.1"
   id="svg1"
   sodipodi:docname="forward-solid-full.svg"
   inkscape:version="1.3.2 (091e20e, 2023-11-25, custom)"
   xmlns:inkscape="http://www.inkscape.org/namespaces/inkscape"
   xmlns:sodipodi="http://sodipodi.sourceforge.net/DTD/sodipodi-0.dtd"
   xmlns="http://www.w3.org/2000/svg"
   xmlns:svg="http://www.w3.org/2000/svg">
  <defs
     id="defs1" />
  <sodipodi:namedview
     id="namedview1"
     pagecolor="#ffffff"
     bordercolor="#000000"
     borderopacity="0.25"
     inkscape:showpageshadow="2"
     inkscape:pageopacity="0.0"
     inkscape:pagecheckerboard="true"
     inkscape:deskcolor="#d1d1d1"
     showguides="false"
     inkscape:zoom="1.1546875"
     inkscape:cx="319.56698"
     inkscape:cy="320"
     inkscape:window-width="1920"
     inkscape:window-height="974"
     inkscape:window-x="-11"
     inkscape:window-y="-11"
     inkscape:window-maximized="1"
     inkscape:current-layer="svg1" />
  <!--!Font Awesome Free 7.1.0 by @fontawesome - https://fontawesome.com License - https://fontawesome.com/license/free Copyright 2026 Fonticons, Inc.-->
  <path
     d="M403.7 107.1C392.1 96 375 92.9 360.3 99.2C345.6 105.5 336 120 336 136L336 272.3L163.7 107.2C152.1 96 135 92.9 120.3 99.2C105.6 105.5 96 120 96 136L96 504C96 520 105.6 534.5 120.3 540.8C135 547.1 152.1 544 163.7 532.9L336 367.7L336 504C336 520 345.6 534.5 360.3 540.8C375 547.1 392.1 544 403.7 532.9L595.7 348.9C603.6 341.4 608 330.9 608 320C608 309.1 603.5 298.7 595.7 291.1L403.7 107.1z"
     id="path1"
     style="fill:#ffffff" />
</svg>
