<?xml version="1.0" encoding="UTF-8" standalone="no"?>
<svg
   xmlns:dc="http://purl.org/dc/elements/1.1/"
   xmlns:cc="http://creativecommons.org/ns#"
   xmlns:rdf="http://www.w3.org/1999/02/22-rdf-syntax-ns#"
   xmlns:svg="http://www.w3.org/2000/svg"
   xmlns="http://www.w3.org/2000/svg"
   xmlns:sodipodi="http://sodipodi.sourceforge.net/DTD/sodipodi-0.dtd"
   xmlns:inkscape="http://www.inkscape.org/namespaces/inkscape"
   width="0.93834352in"
   height="1.3867811in"
   viewBox="0 0 281.50315 416.03335"
   version="1.1"
   id="svg825"
   sodipodi:docname="leaf.svg"
   inkscape:version="0.92.4 (5da689c313, 2019-01-14)">
  <metadata
     id="metadata831">
    <rdf:RDF>
      <cc:Work
         rdf:about="">
        <dc:format>image/svg+xml</dc:format>
        <dc:type
           rdf:resource="http://purl.org/dc/dcmitype/StillImage" />
        <dc:title></dc:title>
      </cc:Work>
    </rdf:RDF>
  </metadata>
  <defs
     id="defs829">
    <clipPath
       clipPathUnits="userSpaceOnUse"
       id="clipPath845">
      <g
         id="use847"
         inkscape:label="Clip">
        <rect
           style="opacity:1;fill:#ffffff;fill-opacity:1;stroke:none;stroke-width:2.36220551;stroke-linecap:square;stroke-linejoin:miter;stroke-miterlimit:26.29999924;stroke-dasharray:none;stroke-opacity:1;paint-order:markers stroke fill"
           id="rect849"
           width="13.152924"
           height="5.7622333"
           x="117.15313"
           y="422.57861"
           clip-path="none" />
      </g>
    </clipPath>
  </defs>
  <sodipodi:namedview
     pagecolor="#ffffff"
     bordercolor="#666666"
     borderopacity="1"
     objecttolerance="10"
     gridtolerance="10"
     guidetolerance="10"
     inkscape:pageopacity="0"
     inkscape:pageshadow="2"
     inkscape:window-width="3440"
     inkscape:window-height="1377"
     id="namedview827"
     showgrid="false"
     inkscape:pagecheckerboard="true"
     inkscape:zoom="4"
     inkscape:cx="-79.597698"
     inkscape:cy="46.422581"
     inkscape:window-x="1912"
     inkscape:window-y="-8"
     inkscape:window-maximized="1"
     inkscape:current-layer="svg825"
     fit-margin-bottom="-0.01"
     fit-margin-top="0"
     fit-margin-left="0"
     fit-margin-right="0" />
  <path
     id="Selection"
     d="M 37,-3.6820977e-4 C 65.82,5.1796318 93.2,9.2596318 119,24.599632 c 11.1,6.61 23.1,16.75 27.25,29.4 4.19,12.78 2.11,22.85 -2.85,35 0,0 -6.73,13.999998 -6.73,13.999998 -0.12,3.19 4.6,7.36 6.57,10 5.59,7.49 7.88,12.78 11.76,21 0.45,-5.58 1.67,-12.86 3.88,-18 14.06,-32.739998 56.19,-32.349998 86.12,-31.999998 0,0 27,2.92 27,2.92 2.49,0.41 8.3,0.85 9.33,3.51 0.82,2.1 -1.5,8.26 -2.21,10.569998 0,0 -11.7,30 -11.7,30 -10.82,24.88 -30.5,56.64 -60.42,58.82 -6.04,0.44 -15.59,-2.24 -21,-4.94 -9.87,-4.93 -17.21,-11.16 -25,-18.88 0,0 0,12 0,12 -0.07,42.15 -26.68,94.97 -35.79,138 -4.85,22.9 -6.26,49.74 -4.04,73 0,0 4.83,30 4.83,30 -2.14,0 -6.58,0.32 -8.28,-0.99 -2.11,-1.65 -3.01,-8.34 -3.47,-11.01 -1.46,-8.4 -3.24,-21.63 -3.25,-30 0,0 0,-21 0,-21 0.02,-15.33 4.69,-43.13 9,-58 -6,5.72 -11.66,9.83 -19,13.68 -8.55,4.49 -14.57,5.33 -24,5.32 -35.38,-0.05 -57.79,-44.56 -69.2,-73 -2.63,-6.55 -6.26,-16.23 -7.8,-23 23.27,-6.17 59.32,-8.86 83,-4.75 15.26,2.65 28.59,7.16 38.62,19.75 7.9,9.91 6.18,16.54 9.38,27 0,0 14.26,-44 14.26,-44 8.95,-32.4 11.33,-74.64 -11.57,-101.81 -6.46,-7.9 -5.27,-4.02 -21.69,0 -12.43,3.36 -23.78,4.33 -36,-0.64 C 62.07,110.87963 53.07,97.489632 47.6,83.999632 36.84,57.429632 37,28.139632 37,-3.6820977e-4 Z"
     clip-path="none"
     inkscape:connector-curvature="0"
     style="fill:#157c70" />
  <text
     xml:space="preserve"
     style="font-style:normal;font-variant:normal;font-weight:normal;font-stretch:normal;font-size:37.50001526px;line-height:1.25;font-family:Arial;-inkscape-font-specification:Arial;text-align:center;letter-spacing:0px;word-spacing:0px;text-anchor:middle;fill:#ffffff;fill-opacity:1;stroke:none;stroke-width:3.12500119"
     x="111.09821"
     y="13.234982"
     id="text835"
     transform="rotate(35)"><tspan
       sodipodi:role="line"
       id="tspan833"
       x="111.09821"
       y="13.234982"
       style="font-style:normal;font-variant:normal;font-weight:normal;font-stretch:normal;font-family:Arial;-inkscape-font-specification:Arial;fill:#ffffff;fill-opacity:1;stroke-width:3.12500119">Social</tspan></text>
  <text
     xml:space="preserve"
     style="font-style:normal;font-variant:normal;font-weight:normal;font-stretch:normal;font-size:29.16667747px;line-height:1.25;font-family:Arial;-inkscape-font-specification:Arial;text-align:center;letter-spacing:0px;word-spacing:0px;text-anchor:middle;fill:#ffffff;fill-opacity:1;stroke:none;stroke-width:3.12500119"
     x="140.82397"
     y="216.30663"
     id="text4542"
     transform="rotate(-25)"><tspan
       sodipodi:role="line"
       id="tspan4540"
       x="140.82397"
       y="216.30663"
       style="font-style:normal;font-variant:normal;font-weight:normal;font-stretch:normal;font-family:Arial;-inkscape-font-specification:Arial;fill:#ffffff;fill-opacity:1;stroke-width:3.12500119">Economic</tspan></text>
  <text
     xml:space="preserve"
     style="font-style:normal;font-variant:normal;font-weight:normal;font-stretch:normal;font-size:20.8333416px;line-height:1.25;font-family:Arial;-inkscape-font-specification:Arial;text-align:center;letter-spacing:0px;word-spacing:0px;text-anchor:middle;fill:#ffffff;fill-opacity:1;stroke:none;stroke-width:3.12500119"
     x="169.66901"
     y="209.37004"
     id="text4542-4"
     transform="rotate(25)"><tspan
       sodipodi:role="line"
       id="tspan4540-8"
       x="169.66901"
       y="209.37004"
       style="font-style:normal;font-variant:normal;font-weight:normal;font-stretch:normal;font-family:Arial;-inkscape-font-specification:Arial;fill:#ffffff;fill-opacity:1;stroke-width:3.12500119">Environmental</tspan></text>
</svg>
