<?xml version="1.0" encoding="UTF-8" standalone="no"?>
<svg
   xmlns:dc="http://purl.org/dc/elements/1.1/"
   xmlns:cc="http://creativecommons.org/ns#"
   xmlns:rdf="http://www.w3.org/1999/02/22-rdf-syntax-ns#"
   xmlns:svg="http://www.w3.org/2000/svg"
   xmlns="http://www.w3.org/2000/svg"
   xmlns:sodipodi="http://sodipodi.sourceforge.net/DTD/sodipodi-0.dtd"
   xmlns:inkscape="http://www.inkscape.org/namespaces/inkscape"
   width="0.963333in"
   height="1.42667in"
   viewBox="0 0 289 428"
   version="1.1"
   id="svg825"
   sodipodi:docname="leaf.svg"
   inkscape:version="0.92.4 (5da689c313, 2019-01-14)">
  <metadata
     id="metadata831">
    <rdf:RDF>
      <cc:Work
         rdf:about="">
        <dc:format>image/svg+xml</dc:format>
        <dc:type
           rdf:resource="http://purl.org/dc/dcmitype/StillImage" />
        <dc:title></dc:title>
      </cc:Work>
    </rdf:RDF>
  </metadata>
  <defs
     id="defs829" />
  <sodipodi:namedview
     pagecolor="#ffffff"
     bordercolor="#666666"
     borderopacity="1"
     objecttolerance="10"
     gridtolerance="10"
     guidetolerance="10"
     inkscape:pageopacity="0"
     inkscape:pageshadow="2"
     inkscape:window-width="3440"
     inkscape:window-height="1377"
     id="namedview827"
     showgrid="false"
     inkscape:pagecheckerboard="true"
     inkscape:zoom="8.8200731"
     inkscape:cx="45.332963"
     inkscape:cy="80.009362"
     inkscape:window-x="1912"
     inkscape:window-y="-8"
     inkscape:window-maximized="1"
     inkscape:current-layer="svg825" />
  <path
     id="Selection"
     fill="#ffffff"
     d="M 40.00,7.00            C 68.82,12.18 96.20,16.26 122.00,31.60              133.10,38.21 145.10,48.35 149.25,61.00              153.44,73.78 151.36,83.85 146.40,96.00              146.40,96.00 139.67,110.00 139.67,110.00              139.55,113.19 144.27,117.36 146.24,120.00              151.83,127.49 154.12,132.78 158.00,141.00              158.45,135.42 159.67,128.14 161.88,123.00              175.94,90.26 218.07,90.65 248.00,91.00              248.00,91.00 275.00,93.92 275.00,93.92              277.49,94.33 283.30,94.77 284.33,97.43              285.15,99.53 282.83,105.69 282.12,108.00              282.12,108.00 270.42,138.00 270.42,138.00              259.60,162.88 239.92,194.64 210.00,196.82              203.96,197.26 194.41,194.58 189.00,191.88              179.13,186.95 171.79,180.72 164.00,173.00              164.00,173.00 164.00,185.00 164.00,185.00              163.93,227.15 137.32,279.97 128.21,323.00              123.36,345.90 121.95,372.74 124.17,396.00              124.17,396.00 129.00,426.00 129.00,426.00              126.86,426.00 122.42,426.32 120.72,425.01              118.61,423.36 117.71,416.67 117.25,414.00              115.79,405.60 114.01,392.37 114.00,384.00              114.00,384.00 114.00,363.00 114.00,363.00              114.02,347.67 118.69,319.87 123.00,305.00              117.00,310.72 111.34,314.83 104.00,318.68              95.45,323.17 89.43,324.01 80.00,324.00              44.62,323.95 22.21,279.44 10.80,251.00              8.17,244.45 4.54,234.77 3.00,228.00              26.27,221.83 62.32,219.14 86.00,223.25              101.26,225.90 114.59,230.41 124.62,243.00              132.52,252.91 130.80,259.54 134.00,270.00              134.00,270.00 148.26,226.00 148.26,226.00              157.21,193.60 159.59,151.36 136.69,124.19              130.23,116.29 131.42,120.17 115.00,124.19              102.57,127.55 91.22,128.52 79.00,123.55              65.07,117.88 56.07,104.49 50.60,91.00              39.84,64.43 40.00,35.14 40.00,7.00 Z" />
  <text
     xml:space="preserve"
     style="font-style:normal;font-variant:normal;font-weight:normal;font-stretch:normal;font-size:37.50001526px;line-height:1.25;font-family:Arial;-inkscape-font-specification:Arial;text-align:center;letter-spacing:0px;word-spacing:0px;text-anchor:middle;fill:#142062;fill-opacity:1;stroke:none;stroke-width:3.12500119"
     x="117.57089"
     y="17.248617"
     id="text835"
     transform="rotate(35)"><tspan
       sodipodi:role="line"
       id="tspan833"
       x="117.57089"
       y="17.248617"
       style="font-style:normal;font-variant:normal;font-weight:normal;font-stretch:normal;font-family:Arial;-inkscape-font-specification:Arial;fill:#142062;fill-opacity:1;stroke-width:3.12500119">Social</tspan></text>
  <text
     xml:space="preserve"
     style="font-style:normal;font-variant:normal;font-weight:normal;font-stretch:normal;font-size:29.16667747px;line-height:1.25;font-family:Arial;-inkscape-font-specification:Arial;text-align:center;letter-spacing:0px;word-spacing:0px;text-anchor:middle;fill:#142062;fill-opacity:1;stroke:none;stroke-width:3.12500119"
     x="140.58443"
     y="223.91896"
     id="text4542"
     transform="rotate(-25)"><tspan
       sodipodi:role="line"
       id="tspan4540"
       x="140.58443"
       y="223.91896"
       style="font-style:normal;font-variant:normal;font-weight:normal;font-stretch:normal;font-family:Arial;-inkscape-font-specification:Arial;fill:#142062;fill-opacity:1;stroke-width:3.12500119">Economic</tspan></text>
  <text
     xml:space="preserve"
     style="font-style:normal;font-variant:normal;font-weight:normal;font-stretch:normal;font-size:20.8333416px;line-height:1.25;font-family:Arial;-inkscape-font-specification:Arial;text-align:center;letter-spacing:0px;word-spacing:0px;text-anchor:middle;fill:#142062;fill-opacity:1;stroke:none;stroke-width:3.12500119"
     x="175.34641"
     y="214.44667"
     id="text4542-4"
     transform="rotate(25)"><tspan
       sodipodi:role="line"
       id="tspan4540-8"
       x="175.34641"
       y="214.44667"
       style="font-style:normal;font-variant:normal;font-weight:normal;font-stretch:normal;font-family:Arial;-inkscape-font-specification:Arial;fill:#142062;fill-opacity:1;stroke-width:3.12500119">Environmental</tspan></text>
</svg>
