<?xml version="1.0" encoding="utf-8"?>
<!-- Generator: Adobe Illustrator 18.1.1, SVG Export Plug-In . SVG Version: 6.00 Build 0)  -->
<svg version="1.1" id="Layer_1" xmlns="http://www.w3.org/2000/svg" xmlns:xlink="http://www.w3.org/1999/xlink" x="0px" y="0px"
	 viewBox="0 0 1033.2 473.1" style="enable-background:new 0 0 1033.2 473.1;" xml:space="preserve">
<style type="text/css">
	.st0{fill:#001F5B;}
	.st1{fill:#407CCA;}
	.st2{fill:#CFDB00;}
</style>
<g>
	<path class="st0" d="M399.5,60.9c0.9,0.5,2,1.5,3.2,3l93.1,121.2c-0.2-1.9-0.4-3.8-0.4-5.7c-0.1-1.8-0.1-3.6-0.1-5.3V60.1h19.1V221
		h-11c-1.7,0-3.2-0.3-4.3-0.9c-1.2-0.6-2.3-1.6-3.4-3l-93-121.1c0.1,1.9,0.3,3.7,0.3,5.5c0.1,1.8,0.1,3.4,0.1,4.9V221h-19.1V60.1
		h11.2C397.1,60.1,398.5,60.4,399.5,60.9z"/>
	<path class="st0" d="M571.7,221h-21.8V60.1h21.8V221z"/>
	<path class="st0" d="M690.4,85.3c-0.7,1.1-1.4,2-2.1,2.5c-0.7,0.6-1.7,0.8-2.9,0.8c-1.3,0-2.7-0.6-4.4-1.9
		c-1.7-1.3-3.8-2.7-6.4-4.2c-2.6-1.5-5.7-2.9-9.3-4.2c-3.6-1.3-8-1.9-13.2-1.9c-4.9,0-9.2,0.7-12.9,2c-3.7,1.3-6.9,3.1-9.4,5.3
		c-2.5,2.2-4.4,4.9-5.7,7.9c-1.3,3-1.9,6.3-1.9,9.8c0,4.5,1.1,8.2,3.3,11.2c2.2,3,5.1,5.5,8.8,7.6c3.6,2.1,7.7,3.9,12.3,5.4
		c4.6,1.5,9.3,3.1,14.1,4.8c4.8,1.6,9.5,3.5,14.1,5.6c4.6,2.1,8.7,4.7,12.3,7.8c3.6,3.1,6.5,7,8.8,11.6c2.2,4.6,3.3,10.2,3.3,16.8
		c0,7-1.2,13.6-3.6,19.8c-2.4,6.2-5.9,11.5-10.5,16.1c-4.6,4.6-10.3,8.2-16.9,10.8c-6.7,2.6-14.3,3.9-22.8,3.9
		c-10.4,0-19.9-1.9-28.4-5.7c-8.6-3.8-15.9-8.9-21.9-15.3l6.3-10.3c0.6-0.8,1.3-1.5,2.2-2.1c0.9-0.6,1.8-0.8,2.9-0.8
		c1.6,0,3.4,0.8,5.4,2.5c2,1.7,4.5,3.5,7.6,5.6c3,2,6.7,3.9,11,5.6c4.3,1.7,9.6,2.5,15.8,2.5c5.2,0,9.8-0.7,13.8-2.1
		c4-1.4,7.5-3.4,10.3-6c2.8-2.6,5-5.7,6.5-9.3c1.5-3.6,2.2-7.6,2.2-12c0-4.9-1.1-8.8-3.3-12c-2.2-3.1-5.1-5.7-8.7-7.8
		c-3.6-2.1-7.7-3.9-12.3-5.3c-4.6-1.5-9.3-3-14.1-4.5c-4.8-1.5-9.5-3.3-14.1-5.3c-4.6-2-8.7-4.6-12.3-7.9c-3.6-3.2-6.5-7.2-8.7-12.1
		c-2.2-4.8-3.3-10.8-3.3-17.9c0-5.7,1.1-11.2,3.3-16.5c2.2-5.3,5.4-10,9.6-14.1c4.2-4.1,9.4-7.4,15.5-9.9c6.2-2.5,13.3-3.7,21.3-3.7
		c9,0,17.2,1.4,24.6,4.3c7.4,2.8,13.9,7,19.4,12.3L690.4,85.3z"/>
	<path class="st0" d="M744.2,153.9V221h-21.7V60.1H768c10.2,0,19,1,26.4,3.1c7.4,2.1,13.5,5,18.3,8.9c4.8,3.9,8.4,8.6,10.7,14.1
		c2.3,5.5,3.5,11.7,3.5,18.5c0,5.7-0.9,11-2.7,15.9c-1.8,4.9-4.4,9.4-7.8,13.3c-3.4,3.9-7.6,7.3-12.5,10c-4.9,2.8-10.5,4.9-16.7,6.3
		c2.7,1.6,5.1,3.9,7.2,6.8l46.9,63.9h-19.3c-4,0-6.9-1.5-8.8-4.6l-41.7-57.5c-1.3-1.8-2.7-3.1-4.2-3.9c-1.5-0.8-3.7-1.2-6.7-1.2
		H744.2z M744.2,138H767c6.4,0,12-0.8,16.8-2.3c4.8-1.5,8.9-3.7,12.1-6.5c3.3-2.8,5.7-6.2,7.4-10c1.6-3.9,2.5-8.2,2.5-12.9
		c0-9.6-3.2-16.8-9.5-21.7c-6.3-4.9-15.7-7.3-28.2-7.3h-23.8V138z"/>
	<path class="st0" d="M990.4,221h-16.8c-1.9,0-3.5-0.5-4.7-1.5c-1.2-1-2.1-2.2-2.7-3.7l-15-38.8H879l-15,38.8
		c-0.5,1.3-1.4,2.5-2.7,3.6c-1.3,1-2.8,1.6-4.7,1.6h-16.8L904,60.1h22.1L990.4,221z M885,161.3h60l-25.3-65.4
		c-1.6-4-3.3-9.1-4.8-15.2c-0.8,3.1-1.6,5.9-2.4,8.5c-0.8,2.6-1.6,4.8-2.3,6.8L885,161.3z"/>
</g>
<g>
	<path class="st1" d="M237.7,207.3l-6.5-3.8l-48.3-27.9l-3.4-2l-3.1,1.8l-105,60.6l-6,3.4l-30.1,17.4c15.3,26.5,34.4,45.6,60.9,60.9
		c26.2,15.1,54.8,22.3,83.1,22.3c39.4,0,78.1-14,108.4-40c1.7-1.5,3.5-3,5.1-4.6c11.8-11,22.3-24,30.8-38.7L237.7,207.3z"/>
	<path class="st0" d="M176.1,168l0.2-0.1V65.6V59h6.5c17.6,0,34.8,2.6,51.4,7.8V35.2c-30.6,0-56.7,7-83.3,22.3
		C89.1,93.2,58.8,162.7,70,229.2L176.1,168z"/>
	<path class="st2" d="M240.8,75.9c-2.2-0.8-4.3-1.6-6.5-2.3c-16.2-5.2-33.5-8.1-51.4-8.1V168l51.4,29.7l6.5,3.8l86.1,49.7l5.7,3.3
		l-3.3,5.7c-8.3,14.4-18.6,27.5-30.6,38.8l28.3,16.4c15.3-26.5,22.3-52.6,22.3-83.3C349.3,160.5,304.2,99.5,240.8,75.9z"/>
</g>
<g>
	<path class="st0" d="M386.5,246.8c0.2,0.1,0.4,0.3,0.6,0.5l16.5,21.5c0-0.3-0.1-0.7-0.1-1c0-0.3,0-0.6,0-0.9v-20.2h3.4v28.6h-2
		c-0.3,0-0.6-0.1-0.8-0.2c-0.2-0.1-0.4-0.3-0.6-0.5L387.1,253c0,0.3,0,0.7,0.1,1c0,0.3,0,0.6,0,0.9v20.4h-3.4v-28.6h2
		C386.1,246.7,386.4,246.7,386.5,246.8z"/>
	<path class="st0" d="M420.7,254.7c1.5,0,2.8,0.2,4,0.7c1.2,0.5,2.2,1.2,3,2.1c0.8,0.9,1.5,2,1.9,3.3c0.4,1.3,0.7,2.7,0.7,4.3
		c0,1.6-0.2,3-0.7,4.3c-0.4,1.3-1.1,2.4-1.9,3.3c-0.8,0.9-1.8,1.6-3,2.1c-1.2,0.5-2.5,0.7-4,0.7c-1.5,0-2.8-0.2-4-0.7
		c-1.2-0.5-2.2-1.2-3-2.1c-0.8-0.9-1.5-2-1.9-3.3c-0.5-1.3-0.7-2.7-0.7-4.3c0-1.6,0.2-3,0.7-4.3c0.5-1.3,1.1-2.4,1.9-3.3
		c0.8-0.9,1.9-1.6,3-2.1C417.9,255,419.3,254.7,420.7,254.7z M420.7,272.7c2,0,3.5-0.7,4.5-2c1-1.3,1.5-3.2,1.5-5.6
		c0-2.4-0.5-4.3-1.5-5.6c-1-1.3-2.5-2-4.5-2c-1,0-1.9,0.2-2.6,0.5c-0.7,0.3-1.4,0.8-1.9,1.5c-0.5,0.7-0.9,1.5-1.1,2.4
		c-0.2,1-0.4,2-0.4,3.2c0,1.2,0.1,2.3,0.4,3.2c0.2,0.9,0.6,1.7,1.1,2.4c0.5,0.6,1.1,1.1,1.9,1.5
		C418.9,272.6,419.7,272.7,420.7,272.7z"/>
	<path class="st0" d="M433.9,275.2V255h2c0.4,0,0.7,0.1,0.8,0.2c0.1,0.1,0.2,0.4,0.3,0.8l0.2,3.1c0.7-1.4,1.5-2.5,2.6-3.3
		c1-0.8,2.2-1.2,3.6-1.2c0.6,0,1.1,0.1,1.5,0.2c0.5,0.1,0.9,0.3,1.3,0.5l-0.5,2.7c-0.1,0.3-0.3,0.5-0.6,0.5c-0.2,0-0.5-0.1-0.9-0.2
		c-0.4-0.1-0.9-0.2-1.6-0.2c-1.2,0-2.3,0.4-3.1,1.1c-0.8,0.7-1.5,1.8-2.1,3.1v12.9H433.9z"/>
	<path class="st0" d="M455.3,275.6c-1.6,0-2.8-0.4-3.7-1.3c-0.9-0.9-1.3-2.2-1.3-3.8V258h-2.4c-0.2,0-0.4-0.1-0.5-0.2
		c-0.1-0.1-0.2-0.3-0.2-0.6v-1.4l3.3-0.4l0.8-6.2c0-0.2,0.1-0.4,0.3-0.5c0.1-0.1,0.3-0.2,0.6-0.2h1.8v7h5.8v2.6h-5.8v12.1
		c0,0.9,0.2,1.5,0.6,1.9c0.4,0.4,0.9,0.6,1.6,0.6c0.4,0,0.7,0,1-0.1c0.3-0.1,0.5-0.2,0.7-0.3c0.2-0.1,0.4-0.2,0.5-0.3
		c0.1-0.1,0.3-0.1,0.4-0.1c0.2,0,0.4,0.1,0.5,0.3l1,1.7c-0.6,0.6-1.3,1-2.2,1.3C457.1,275.4,456.2,275.6,455.3,275.6z"/>
	<path class="st0" d="M463.3,275.2v-29.4h3.5v11.9c0.9-0.9,1.8-1.7,2.9-2.2c1-0.6,2.3-0.8,3.6-0.8c1.1,0,2.1,0.2,2.9,0.5
		c0.8,0.4,1.5,0.9,2.1,1.6c0.6,0.7,1,1.5,1.3,2.4c0.3,0.9,0.4,2,0.4,3.1v12.9h-3.5v-12.9c0-1.5-0.3-2.7-1-3.6
		c-0.7-0.8-1.8-1.3-3.2-1.3c-1.1,0-2,0.3-2.9,0.8c-0.9,0.5-1.8,1.2-2.5,2.1v14.9H463.3z"/>
	<path class="st0" d="M492.6,254.7c1.2,0,2.3,0.2,3.3,0.6c1,0.4,1.9,1,2.7,1.8c0.7,0.8,1.3,1.7,1.7,2.8c0.4,1.1,0.6,2.4,0.6,3.8
		c0,0.6-0.1,0.9-0.2,1.1c-0.1,0.2-0.3,0.3-0.7,0.3h-13.4c0,1.3,0.2,2.4,0.5,3.3c0.3,0.9,0.8,1.7,1.3,2.4c0.6,0.6,1.2,1.1,2,1.4
		c0.8,0.3,1.6,0.5,2.6,0.5c0.9,0,1.7-0.1,2.3-0.3c0.6-0.2,1.2-0.4,1.7-0.7c0.5-0.2,0.9-0.5,1.2-0.7c0.3-0.2,0.6-0.3,0.8-0.3
		c0.3,0,0.5,0.1,0.7,0.3l1,1.3c-0.4,0.5-1,1-1.6,1.4c-0.6,0.4-1.3,0.7-2,1c-0.7,0.3-1.4,0.4-2.2,0.6c-0.7,0.1-1.5,0.2-2.2,0.2
		c-1.4,0-2.7-0.2-3.9-0.7c-1.2-0.5-2.2-1.2-3-2.1c-0.9-0.9-1.5-2-2-3.4c-0.5-1.3-0.7-2.9-0.7-4.6c0-1.4,0.2-2.7,0.6-3.9
		c0.4-1.2,1.1-2.3,1.9-3.2c0.8-0.9,1.8-1.6,3-2.1C489.9,255,491.2,254.7,492.6,254.7z M492.7,257.3c-1.7,0-3.1,0.5-4,1.5
		c-1,1-1.6,2.4-1.8,4.1h11c0-0.8-0.1-1.6-0.3-2.3s-0.6-1.3-1-1.8c-0.4-0.5-1-0.9-1.6-1.2C494.3,257.5,493.5,257.3,492.7,257.3z"/>
	<path class="st0" d="M504.7,275.2V255h2c0.4,0,0.7,0.1,0.8,0.2c0.1,0.1,0.2,0.4,0.3,0.8l0.2,3.1c0.7-1.4,1.5-2.5,2.6-3.3
		c1-0.8,2.2-1.2,3.6-1.2c0.6,0,1.1,0.1,1.5,0.2c0.5,0.1,0.9,0.3,1.3,0.5l-0.5,2.7c-0.1,0.3-0.3,0.5-0.6,0.5c-0.2,0-0.5-0.1-0.9-0.2
		c-0.4-0.1-0.9-0.2-1.6-0.2c-1.2,0-2.3,0.4-3.1,1.1c-0.8,0.7-1.5,1.8-2.1,3.1v12.9H504.7z"/>
	<path class="st0" d="M520,275.2V255h2.1c0.5,0,0.8,0.2,1,0.7l0.3,2.2c0.9-1,1.9-1.8,2.9-2.4c1.1-0.6,2.3-0.9,3.8-0.9
		c1.1,0,2.1,0.2,2.9,0.5c0.8,0.4,1.5,0.9,2.1,1.6c0.6,0.7,1,1.5,1.3,2.4c0.3,0.9,0.4,2,0.4,3.1v12.9h-3.5v-12.9c0-1.5-0.3-2.7-1-3.6
		c-0.7-0.8-1.8-1.3-3.2-1.3c-1.1,0-2,0.3-2.9,0.8c-0.9,0.5-1.8,1.2-2.5,2.1v14.9H520z"/>
	<path class="st0" d="M553.4,275.2h-3.9v-28.6h3.9V275.2z"/>
	<path class="st0" d="M559.7,275.2V255h2c0.4,0,0.7,0.1,0.8,0.2c0.1,0.1,0.2,0.4,0.3,0.8l0.2,3.1c0.7-1.4,1.5-2.5,2.6-3.3
		c1-0.8,2.2-1.2,3.6-1.2c0.6,0,1.1,0.1,1.5,0.2c0.5,0.1,0.9,0.3,1.3,0.5l-0.5,2.7c-0.1,0.3-0.3,0.5-0.6,0.5c-0.2,0-0.5-0.1-0.9-0.2
		c-0.4-0.1-0.9-0.2-1.6-0.2c-1.2,0-2.3,0.4-3.1,1.1c-0.8,0.7-1.5,1.8-2.1,3.1v12.9H559.7z"/>
	<path class="st0" d="M583,254.7c1.2,0,2.3,0.2,3.3,0.6c1,0.4,1.9,1,2.7,1.8c0.7,0.8,1.3,1.7,1.7,2.8c0.4,1.1,0.6,2.4,0.6,3.8
		c0,0.6-0.1,0.9-0.2,1.1c-0.1,0.2-0.3,0.3-0.7,0.3h-13.4c0,1.3,0.2,2.4,0.5,3.3c0.3,0.9,0.8,1.7,1.3,2.4c0.6,0.6,1.2,1.1,2,1.4
		c0.8,0.3,1.6,0.5,2.6,0.5c0.9,0,1.7-0.1,2.3-0.3c0.6-0.2,1.2-0.4,1.7-0.7c0.5-0.2,0.9-0.5,1.2-0.7c0.3-0.2,0.6-0.3,0.8-0.3
		c0.3,0,0.5,0.1,0.7,0.3l1,1.3c-0.4,0.5-1,1-1.6,1.4c-0.6,0.4-1.3,0.7-2,1c-0.7,0.3-1.4,0.4-2.2,0.6c-0.7,0.1-1.5,0.2-2.2,0.2
		c-1.4,0-2.7-0.2-3.9-0.7c-1.2-0.5-2.2-1.2-3.1-2.1c-0.9-0.9-1.5-2-2-3.4c-0.5-1.3-0.7-2.9-0.7-4.6c0-1.4,0.2-2.7,0.6-3.9
		c0.4-1.2,1.1-2.3,1.9-3.2c0.8-0.9,1.8-1.6,3-2.1C580.2,255,581.5,254.7,583,254.7z M583.1,257.3c-1.7,0-3.1,0.5-4,1.5
		c-1,1-1.6,2.4-1.8,4.1h11c0-0.8-0.1-1.6-0.3-2.3c-0.2-0.7-0.6-1.3-1-1.8c-0.4-0.5-1-0.9-1.6-1.2
		C584.6,257.5,583.9,257.3,583.1,257.3z"/>
	<path class="st0" d="M599,245.9v29.4h-3.5v-29.4H599z"/>
	<path class="st0" d="M619.3,275.2h-1.6c-0.3,0-0.6-0.1-0.8-0.2c-0.2-0.1-0.4-0.3-0.4-0.7l-0.4-1.9c-0.5,0.5-1,0.9-1.6,1.3
		c-0.5,0.4-1,0.7-1.6,1c-0.6,0.3-1.2,0.5-1.8,0.6c-0.6,0.1-1.3,0.2-2.1,0.2c-0.8,0-1.5-0.1-2.2-0.3c-0.7-0.2-1.3-0.5-1.8-1
		c-0.5-0.4-0.9-1-1.2-1.7c-0.3-0.7-0.4-1.5-0.4-2.4c0-0.8,0.2-1.6,0.7-2.3c0.4-0.7,1.1-1.4,2.1-2c1-0.6,2.3-1,3.8-1.4
		c1.6-0.4,3.5-0.5,5.8-0.5v-1.6c0-1.6-0.3-2.8-1-3.6c-0.7-0.8-1.7-1.2-3-1.2c-0.9,0-1.6,0.1-2.2,0.3c-0.6,0.2-1.1,0.5-1.5,0.7
		c-0.4,0.3-0.8,0.5-1.1,0.7c-0.3,0.2-0.6,0.3-0.9,0.3c-0.2,0-0.4-0.1-0.6-0.2c-0.2-0.1-0.3-0.3-0.4-0.5l-0.6-1.1
		c1.1-1.1,2.3-1.9,3.6-2.4c1.3-0.5,2.7-0.8,4.3-0.8c1.1,0,2.1,0.2,3,0.6c0.9,0.4,1.6,0.9,2.2,1.6c0.6,0.7,1,1.5,1.4,2.4
		c0.3,0.9,0.5,2,0.5,3.1V275.2z M610.1,273.1c0.6,0,1.2-0.1,1.7-0.2c0.5-0.1,1-0.3,1.5-0.5c0.5-0.2,0.9-0.5,1.3-0.8
		c0.4-0.3,0.8-0.7,1.2-1.1v-4.2c-1.6,0-3,0.1-4.2,0.3c-1.1,0.2-2.1,0.5-2.8,0.8c-0.7,0.3-1.2,0.7-1.6,1.2c-0.3,0.5-0.5,1-0.5,1.5
		c0,0.5,0.1,1,0.3,1.4c0.2,0.4,0.4,0.7,0.7,1c0.3,0.2,0.6,0.4,1,0.5C609.2,273,609.6,273.1,610.1,273.1z"/>
	<path class="st0" d="M623.9,275.2V255h2.1c0.5,0,0.8,0.2,1,0.7l0.3,2.2c0.9-1,1.9-1.8,2.9-2.4c1.1-0.6,2.3-0.9,3.8-0.9
		c1.1,0,2.1,0.2,2.9,0.5c0.8,0.4,1.5,0.9,2.1,1.6c0.6,0.7,1,1.5,1.3,2.4c0.3,0.9,0.4,2,0.4,3.1v12.9h-3.5v-12.9c0-1.5-0.3-2.7-1-3.6
		c-0.7-0.8-1.8-1.3-3.2-1.3c-1.1,0-2,0.3-2.9,0.8c-0.9,0.5-1.8,1.2-2.5,2.1v14.9H623.9z"/>
	<path class="st0" d="M659.5,275.2c-0.5,0-0.8-0.2-1-0.7l-0.3-2.5c-0.9,1-1.9,1.9-3,2.5c-1.1,0.6-2.4,0.9-3.8,0.9
		c-1.2,0-2.2-0.2-3.2-0.7c-0.9-0.4-1.7-1.1-2.4-2c-0.7-0.9-1.2-1.9-1.5-3.2c-0.4-1.3-0.5-2.8-0.5-4.4c0-1.5,0.2-2.9,0.6-4.2
		c0.4-1.3,1-2.4,1.7-3.3c0.8-0.9,1.7-1.7,2.7-2.2c1.1-0.5,2.3-0.8,3.7-0.8c1.2,0,2.3,0.2,3.2,0.6c0.9,0.4,1.7,1,2.4,1.8v-11.2h3.5
		v29.4H659.5z M652.6,272.6c1.2,0,2.2-0.3,3-0.8c0.9-0.5,1.7-1.3,2.4-2.3v-9.8c-0.7-0.9-1.4-1.5-2.1-1.8c-0.8-0.4-1.6-0.5-2.6-0.5
		c-1.9,0-3.3,0.7-4.3,2c-1,1.3-1.5,3.3-1.5,5.7c0,1.3,0.1,2.4,0.3,3.4c0.2,0.9,0.6,1.7,1,2.3c0.4,0.6,1,1,1.6,1.3
		C651.1,272.5,651.8,272.6,652.6,272.6z"/>
	<path class="st0" d="M398.4,294.6c-0.1,0.2-0.2,0.3-0.4,0.4c-0.1,0.1-0.3,0.1-0.5,0.1c-0.2,0-0.5-0.1-0.8-0.3
		c-0.3-0.2-0.7-0.5-1.1-0.7c-0.5-0.3-1-0.5-1.7-0.7c-0.6-0.2-1.4-0.3-2.3-0.3c-0.9,0-1.6,0.1-2.3,0.3c-0.7,0.2-1.2,0.5-1.7,0.9
		c-0.4,0.4-0.8,0.9-1,1.4c-0.2,0.5-0.3,1.1-0.3,1.7c0,0.8,0.2,1.5,0.6,2c0.4,0.5,0.9,1,1.6,1.3c0.6,0.4,1.4,0.7,2.2,1
		c0.8,0.3,1.7,0.6,2.5,0.8c0.9,0.3,1.7,0.6,2.5,1c0.8,0.4,1.5,0.8,2.2,1.4c0.6,0.6,1.2,1.2,1.6,2.1c0.4,0.8,0.6,1.8,0.6,3
		c0,1.2-0.2,2.4-0.6,3.5c-0.4,1.1-1,2-1.9,2.9c-0.8,0.8-1.8,1.4-3,1.9c-1.2,0.5-2.5,0.7-4.1,0.7c-1.8,0-3.5-0.3-5.1-1
		c-1.5-0.7-2.8-1.6-3.9-2.7l1.1-1.8c0.1-0.1,0.2-0.3,0.4-0.4c0.2-0.1,0.3-0.1,0.5-0.1c0.3,0,0.6,0.1,1,0.4c0.4,0.3,0.8,0.6,1.3,1
		c0.5,0.4,1.2,0.7,2,1c0.8,0.3,1.7,0.4,2.8,0.4c0.9,0,1.7-0.1,2.5-0.4c0.7-0.3,1.3-0.6,1.8-1.1c0.5-0.5,0.9-1,1.1-1.6
		c0.3-0.6,0.4-1.3,0.4-2.1c0-0.9-0.2-1.6-0.6-2.1c-0.4-0.6-0.9-1-1.5-1.4c-0.6-0.4-1.4-0.7-2.2-0.9c-0.8-0.3-1.7-0.5-2.5-0.8
		c-0.9-0.3-1.7-0.6-2.5-0.9c-0.8-0.4-1.5-0.8-2.2-1.4c-0.6-0.6-1.2-1.3-1.5-2.1c-0.4-0.9-0.6-1.9-0.6-3.2c0-1,0.2-2,0.6-2.9
		c0.4-0.9,1-1.8,1.7-2.5c0.7-0.7,1.7-1.3,2.8-1.8c1.1-0.4,2.4-0.7,3.8-0.7c1.6,0,3,0.3,4.4,0.8c1.3,0.5,2.5,1.2,3.4,2.2L398.4,294.6
		z"/>
	<path class="st0" d="M409.7,319c-1.6,0-2.8-0.4-3.7-1.3c-0.9-0.9-1.3-2.2-1.3-3.8v-12.4h-2.4c-0.2,0-0.4-0.1-0.5-0.2
		c-0.1-0.1-0.2-0.3-0.2-0.6v-1.4l3.3-0.4l0.8-6.2c0-0.2,0.1-0.4,0.3-0.5c0.1-0.1,0.3-0.2,0.6-0.2h1.8v7h5.8v2.6h-5.8v12.1
		c0,0.9,0.2,1.5,0.6,1.9c0.4,0.4,0.9,0.6,1.6,0.6c0.4,0,0.7,0,1-0.1c0.3-0.1,0.5-0.2,0.7-0.3c0.2-0.1,0.4-0.2,0.5-0.3
		c0.1-0.1,0.3-0.1,0.4-0.1c0.2,0,0.4,0.1,0.5,0.3l1,1.7c-0.6,0.6-1.3,1-2.2,1.3C411.5,318.9,410.6,319,409.7,319z"/>
	<path class="st0" d="M432.5,318.7h-1.6c-0.3,0-0.6-0.1-0.8-0.2c-0.2-0.1-0.4-0.3-0.4-0.7l-0.4-1.9c-0.5,0.5-1,0.9-1.6,1.3
		c-0.5,0.4-1,0.7-1.6,1c-0.6,0.3-1.2,0.5-1.8,0.6c-0.6,0.1-1.3,0.2-2.1,0.2c-0.8,0-1.5-0.1-2.2-0.3c-0.7-0.2-1.3-0.5-1.8-1
		c-0.5-0.4-0.9-1-1.2-1.7c-0.3-0.7-0.4-1.5-0.4-2.4c0-0.8,0.2-1.6,0.7-2.3c0.4-0.7,1.1-1.4,2.1-2c1-0.6,2.3-1,3.8-1.4
		c1.6-0.4,3.5-0.5,5.8-0.5v-1.6c0-1.6-0.3-2.8-1-3.6c-0.7-0.8-1.7-1.2-3-1.2c-0.9,0-1.6,0.1-2.2,0.3c-0.6,0.2-1.1,0.5-1.5,0.7
		c-0.4,0.3-0.8,0.5-1.1,0.7c-0.3,0.2-0.6,0.3-0.9,0.3c-0.2,0-0.4-0.1-0.6-0.2c-0.2-0.1-0.3-0.3-0.4-0.5l-0.6-1.1
		c1.1-1.1,2.3-1.9,3.6-2.4c1.3-0.5,2.7-0.8,4.3-0.8c1.1,0,2.1,0.2,3,0.6c0.9,0.4,1.6,0.9,2.2,1.6c0.6,0.7,1,1.5,1.4,2.4
		c0.3,0.9,0.5,2,0.5,3.1V318.7z M423.3,316.6c0.6,0,1.2-0.1,1.7-0.2c0.5-0.1,1-0.3,1.5-0.5c0.5-0.2,0.9-0.5,1.3-0.8
		c0.4-0.3,0.8-0.7,1.2-1.1v-4.2c-1.6,0-3,0.1-4.2,0.3c-1.1,0.2-2.1,0.5-2.8,0.8c-0.7,0.3-1.2,0.7-1.6,1.2c-0.3,0.5-0.5,1-0.5,1.5
		c0,0.5,0.1,1,0.3,1.4c0.2,0.4,0.4,0.7,0.7,1c0.3,0.2,0.6,0.4,1,0.5C422.4,316.5,422.8,316.6,423.3,316.6z"/>
	<path class="st0" d="M443.2,319c-1.6,0-2.8-0.4-3.7-1.3c-0.9-0.9-1.3-2.2-1.3-3.8v-12.4h-2.4c-0.2,0-0.4-0.1-0.5-0.2
		c-0.1-0.1-0.2-0.3-0.2-0.6v-1.4l3.3-0.4l0.8-6.2c0-0.2,0.1-0.4,0.3-0.5c0.1-0.1,0.3-0.2,0.6-0.2h1.8v7h5.8v2.6h-5.8v12.1
		c0,0.9,0.2,1.5,0.6,1.9c0.4,0.4,0.9,0.6,1.6,0.6c0.4,0,0.7,0,1-0.1c0.3-0.1,0.5-0.2,0.7-0.3c0.2-0.1,0.4-0.2,0.5-0.3
		c0.1-0.1,0.3-0.1,0.4-0.1c0.2,0,0.4,0.1,0.5,0.3l1,1.7c-0.6,0.6-1.3,1-2.2,1.3C445,318.9,444.1,319,443.2,319z"/>
	<path class="st0" d="M455.9,292.2c0,0.3-0.1,0.7-0.2,1c-0.1,0.3-0.3,0.6-0.6,0.8c-0.2,0.2-0.5,0.4-0.8,0.5c-0.3,0.1-0.6,0.2-1,0.2
		c-0.3,0-0.7-0.1-1-0.2c-0.3-0.1-0.6-0.3-0.8-0.5c-0.2-0.2-0.4-0.5-0.5-0.8c-0.1-0.3-0.2-0.6-0.2-1s0.1-0.7,0.2-1
		c0.1-0.3,0.3-0.6,0.5-0.8c0.2-0.2,0.5-0.4,0.8-0.5c0.3-0.1,0.6-0.2,1-0.2c0.3,0,0.7,0.1,1,0.2c0.3,0.1,0.6,0.3,0.8,0.5
		c0.2,0.2,0.4,0.5,0.6,0.8C455.8,291.5,455.9,291.9,455.9,292.2z M455.1,298.5v20.2h-3.5v-20.2H455.1z"/>
	<path class="st0" d="M472.1,301.9c-0.2,0.3-0.4,0.4-0.7,0.4c-0.2,0-0.4-0.1-0.7-0.2c-0.3-0.1-0.6-0.3-0.9-0.5
		c-0.4-0.2-0.8-0.3-1.3-0.5c-0.5-0.2-1.1-0.2-1.8-0.2c-0.6,0-1.1,0.1-1.6,0.2c-0.5,0.2-0.9,0.4-1.2,0.6c-0.3,0.3-0.6,0.6-0.8,0.9
		c-0.2,0.4-0.3,0.7-0.3,1.1c0,0.5,0.2,1,0.4,1.3c0.3,0.3,0.7,0.6,1.2,0.9c0.5,0.3,1.1,0.5,1.7,0.7c0.6,0.2,1.3,0.4,1.9,0.6
		c0.7,0.2,1.3,0.5,1.9,0.7c0.6,0.3,1.2,0.6,1.7,1c0.5,0.4,0.9,0.9,1.2,1.5c0.3,0.6,0.4,1.3,0.4,2.1c0,0.9-0.2,1.8-0.5,2.6
		c-0.3,0.8-0.8,1.5-1.5,2.1c-0.7,0.6-1.4,1-2.4,1.4c-0.9,0.3-2,0.5-3.3,0.5c-1.4,0-2.7-0.2-3.8-0.7c-1.1-0.5-2.1-1-2.9-1.8l0.8-1.4
		c0.1-0.2,0.2-0.3,0.4-0.4c0.1-0.1,0.3-0.1,0.6-0.1c0.2,0,0.5,0.1,0.8,0.3c0.3,0.2,0.6,0.4,1,0.6c0.4,0.2,0.8,0.4,1.4,0.6
		c0.5,0.2,1.2,0.3,2,0.3c0.7,0,1.3-0.1,1.8-0.3c0.5-0.2,1-0.4,1.3-0.7c0.3-0.3,0.6-0.7,0.8-1.1c0.2-0.4,0.2-0.8,0.2-1.3
		c0-0.6-0.1-1-0.4-1.4c-0.3-0.4-0.7-0.7-1.2-0.9c-0.5-0.3-1.1-0.5-1.7-0.7c-0.6-0.2-1.3-0.4-1.9-0.6c-0.7-0.2-1.3-0.5-1.9-0.7
		c-0.6-0.3-1.2-0.6-1.7-1c-0.5-0.4-0.9-0.9-1.2-1.5c-0.3-0.6-0.4-1.3-0.4-2.2c0-0.8,0.2-1.5,0.5-2.2c0.3-0.7,0.8-1.3,1.4-1.9
		c0.6-0.5,1.4-1,2.3-1.3c0.9-0.3,1.9-0.5,3.1-0.5c1.3,0,2.5,0.2,3.6,0.6c1.1,0.4,2,1,2.7,1.7L472.1,301.9z"/>
	<path class="st0" d="M483.2,319c-1.6,0-2.8-0.4-3.7-1.3c-0.9-0.9-1.3-2.2-1.3-3.8v-12.4h-2.4c-0.2,0-0.4-0.1-0.5-0.2
		c-0.1-0.1-0.2-0.3-0.2-0.6v-1.4l3.3-0.4l0.8-6.2c0-0.2,0.1-0.4,0.3-0.5c0.1-0.1,0.3-0.2,0.6-0.2h1.8v7h5.8v2.6h-5.8v12.1
		c0,0.9,0.2,1.5,0.6,1.9c0.4,0.4,0.9,0.6,1.6,0.6c0.4,0,0.7,0,1-0.1c0.3-0.1,0.5-0.2,0.7-0.3c0.2-0.1,0.4-0.2,0.5-0.3
		c0.1-0.1,0.3-0.1,0.4-0.1c0.2,0,0.4,0.1,0.5,0.3l1,1.7c-0.6,0.6-1.3,1-2.2,1.3C485,318.9,484.1,319,483.2,319z"/>
	<path class="st0" d="M495.9,292.2c0,0.3-0.1,0.7-0.2,1c-0.1,0.3-0.3,0.6-0.6,0.8c-0.2,0.2-0.5,0.4-0.8,0.5c-0.3,0.1-0.6,0.2-1,0.2
		c-0.3,0-0.7-0.1-1-0.2c-0.3-0.1-0.6-0.3-0.8-0.5c-0.2-0.2-0.4-0.5-0.5-0.8c-0.1-0.3-0.2-0.6-0.2-1s0.1-0.7,0.2-1
		c0.1-0.3,0.3-0.6,0.5-0.8c0.2-0.2,0.5-0.4,0.8-0.5c0.3-0.1,0.6-0.2,1-0.2c0.3,0,0.7,0.1,1,0.2c0.3,0.1,0.6,0.3,0.8,0.5
		c0.2,0.2,0.4,0.5,0.6,0.8C495.8,291.5,495.9,291.9,495.9,292.2z M495.1,298.5v20.2h-3.5v-20.2H495.1z"/>
	<path class="st0" d="M514.3,302.1c-0.1,0.1-0.2,0.3-0.3,0.3c-0.1,0.1-0.3,0.1-0.5,0.1c-0.2,0-0.4-0.1-0.6-0.2
		c-0.2-0.2-0.5-0.3-0.9-0.5c-0.4-0.2-0.8-0.4-1.3-0.5c-0.5-0.2-1.1-0.3-1.9-0.3c-1,0-1.9,0.2-2.6,0.5c-0.8,0.4-1.4,0.9-1.9,1.5
		c-0.5,0.7-0.9,1.5-1.2,2.4c-0.3,0.9-0.4,2-0.4,3.2c0,1.2,0.1,2.3,0.4,3.3c0.3,1,0.7,1.7,1.2,2.4c0.5,0.6,1.1,1.1,1.8,1.5
		c0.7,0.3,1.5,0.5,2.4,0.5c0.9,0,1.6-0.1,2.1-0.3c0.6-0.2,1-0.4,1.4-0.7c0.4-0.3,0.7-0.5,0.9-0.7c0.2-0.2,0.5-0.3,0.7-0.3
		c0.3,0,0.5,0.1,0.7,0.3l1,1.3c-0.9,1.1-2,1.9-3.3,2.4c-1.3,0.5-2.7,0.7-4.2,0.7c-1.3,0-2.4-0.2-3.5-0.7c-1.1-0.5-2-1.1-2.8-2
		c-0.8-0.9-1.4-2-1.9-3.3c-0.5-1.3-0.7-2.8-0.7-4.4c0-1.5,0.2-2.9,0.6-4.2c0.4-1.3,1-2.4,1.8-3.3c0.8-0.9,1.8-1.6,3-2.2
		c1.2-0.5,2.5-0.8,4.1-0.8c1.4,0,2.7,0.2,3.7,0.7c1.1,0.5,2.1,1.1,2.9,1.9L514.3,302.1z"/>
	<path class="st0" d="M529.9,301.9c-0.2,0.3-0.4,0.4-0.7,0.4c-0.2,0-0.4-0.1-0.7-0.2c-0.3-0.1-0.6-0.3-0.9-0.5
		c-0.4-0.2-0.8-0.3-1.3-0.5c-0.5-0.2-1.1-0.2-1.8-0.2c-0.6,0-1.1,0.1-1.6,0.2c-0.5,0.2-0.9,0.4-1.2,0.6c-0.3,0.3-0.6,0.6-0.8,0.9
		c-0.2,0.4-0.3,0.7-0.3,1.1c0,0.5,0.2,1,0.4,1.3c0.3,0.3,0.7,0.6,1.2,0.9c0.5,0.3,1.1,0.5,1.7,0.7c0.6,0.2,1.3,0.4,1.9,0.6
		c0.7,0.2,1.3,0.5,1.9,0.7c0.6,0.3,1.2,0.6,1.7,1c0.5,0.4,0.9,0.9,1.2,1.5c0.3,0.6,0.4,1.3,0.4,2.1c0,0.9-0.2,1.8-0.5,2.6
		c-0.3,0.8-0.8,1.5-1.5,2.1c-0.7,0.6-1.4,1-2.4,1.4c-0.9,0.3-2,0.5-3.3,0.5c-1.4,0-2.7-0.2-3.8-0.7c-1.1-0.5-2.1-1-2.9-1.8l0.8-1.4
		c0.1-0.2,0.2-0.3,0.4-0.4c0.1-0.1,0.3-0.1,0.6-0.1c0.2,0,0.5,0.1,0.8,0.3c0.3,0.2,0.6,0.4,1,0.6c0.4,0.2,0.8,0.4,1.4,0.6
		c0.5,0.2,1.2,0.3,2,0.3c0.7,0,1.3-0.1,1.8-0.3c0.5-0.2,1-0.4,1.3-0.7c0.3-0.3,0.6-0.7,0.8-1.1c0.2-0.4,0.2-0.8,0.2-1.3
		c0-0.6-0.1-1-0.4-1.4c-0.3-0.4-0.7-0.7-1.2-0.9c-0.5-0.3-1.1-0.5-1.7-0.7c-0.6-0.2-1.3-0.4-1.9-0.6c-0.7-0.2-1.3-0.5-1.9-0.7
		c-0.6-0.3-1.2-0.6-1.7-1c-0.5-0.4-0.9-0.9-1.2-1.5c-0.3-0.6-0.4-1.3-0.4-2.2c0-0.8,0.2-1.5,0.5-2.2c0.3-0.7,0.8-1.3,1.4-1.9
		c0.6-0.5,1.4-1,2.3-1.3c0.9-0.3,1.9-0.5,3.1-0.5c1.3,0,2.5,0.2,3.6,0.6c1.1,0.4,2,1,2.7,1.7L529.9,301.9z"/>
	<path class="st0" d="M556.6,318.7H555c-0.3,0-0.6-0.1-0.8-0.2c-0.2-0.1-0.4-0.3-0.4-0.7l-0.4-1.9c-0.5,0.5-1.1,0.9-1.6,1.3
		c-0.5,0.4-1,0.7-1.6,1c-0.6,0.3-1.2,0.5-1.8,0.6c-0.6,0.1-1.3,0.2-2.1,0.2c-0.8,0-1.5-0.1-2.2-0.3c-0.7-0.2-1.3-0.5-1.8-1
		c-0.5-0.4-0.9-1-1.2-1.7c-0.3-0.7-0.4-1.5-0.4-2.4c0-0.8,0.2-1.6,0.7-2.3c0.4-0.7,1.1-1.4,2.1-2c1-0.6,2.3-1,3.8-1.4
		c1.6-0.4,3.5-0.5,5.8-0.5v-1.6c0-1.6-0.3-2.8-1-3.6c-0.7-0.8-1.7-1.2-3-1.2c-0.9,0-1.6,0.1-2.2,0.3c-0.6,0.2-1.1,0.5-1.5,0.7
		c-0.4,0.3-0.8,0.5-1.1,0.7c-0.3,0.2-0.6,0.3-0.9,0.3c-0.2,0-0.4-0.1-0.6-0.2c-0.2-0.1-0.3-0.3-0.4-0.5l-0.6-1.1
		c1.1-1.1,2.3-1.9,3.6-2.4c1.3-0.5,2.7-0.8,4.3-0.8c1.1,0,2.1,0.2,3,0.6c0.9,0.4,1.6,0.9,2.2,1.6c0.6,0.7,1.1,1.5,1.4,2.4
		c0.3,0.9,0.5,2,0.5,3.1V318.7z M547.4,316.6c0.6,0,1.2-0.1,1.7-0.2c0.5-0.1,1-0.3,1.5-0.5c0.5-0.2,0.9-0.5,1.3-0.8
		c0.4-0.3,0.8-0.7,1.2-1.1v-4.2c-1.6,0-3,0.1-4.2,0.3c-1.1,0.2-2.1,0.5-2.8,0.8c-0.7,0.3-1.2,0.7-1.6,1.2c-0.3,0.5-0.5,1-0.5,1.5
		c0,0.5,0.1,1,0.3,1.4c0.2,0.4,0.4,0.7,0.7,1c0.3,0.2,0.6,0.4,1,0.5C546.5,316.5,546.9,316.6,547.4,316.6z"/>
	<path class="st0" d="M561.2,318.7v-20.2h2.1c0.5,0,0.8,0.2,1,0.7l0.3,2.2c0.9-1,1.9-1.8,2.9-2.4c1.1-0.6,2.3-0.9,3.8-0.9
		c1.1,0,2.1,0.2,2.9,0.5c0.8,0.4,1.5,0.9,2.1,1.6c0.6,0.7,1,1.5,1.3,2.4c0.3,0.9,0.4,2,0.4,3.1v12.9h-3.5v-12.9c0-1.5-0.3-2.7-1-3.6
		c-0.7-0.8-1.8-1.3-3.2-1.3c-1.1,0-2,0.3-2.9,0.8c-0.9,0.5-1.8,1.2-2.5,2.1v14.9H561.2z"/>
	<path class="st0" d="M596.7,318.7c-0.5,0-0.8-0.2-1-0.7l-0.3-2.5c-0.9,1-1.8,1.9-3,2.5c-1.1,0.6-2.4,0.9-3.8,0.9
		c-1.2,0-2.2-0.2-3.2-0.7c-0.9-0.4-1.7-1.1-2.4-2c-0.7-0.9-1.2-1.9-1.5-3.2c-0.4-1.3-0.5-2.8-0.5-4.4c0-1.5,0.2-2.9,0.6-4.2
		c0.4-1.3,1-2.4,1.7-3.3c0.8-0.9,1.7-1.7,2.7-2.2c1.1-0.5,2.3-0.8,3.7-0.8c1.2,0,2.3,0.2,3.2,0.6c0.9,0.4,1.7,1,2.4,1.8v-11.2h3.5
		v29.4H596.7z M589.9,316.1c1.2,0,2.2-0.3,3-0.8c0.9-0.5,1.7-1.3,2.4-2.3v-9.8c-0.7-0.9-1.4-1.5-2.1-1.8c-0.8-0.4-1.6-0.5-2.6-0.5
		c-1.9,0-3.3,0.7-4.3,2c-1,1.3-1.5,3.3-1.5,5.7c0,1.3,0.1,2.4,0.3,3.4c0.2,0.9,0.6,1.7,1,2.3c0.4,0.6,1,1,1.6,1.3
		C588.3,316,589,316.1,589.9,316.1z"/>
	<path class="st0" d="M615.7,306.8v11.9h-3.8v-28.6h8.1c1.8,0,3.4,0.2,4.7,0.5c1.3,0.4,2.4,0.9,3.3,1.6c0.9,0.7,1.5,1.5,1.9,2.5
		c0.4,1,0.6,2.1,0.6,3.3c0,1-0.2,2-0.5,2.8c-0.3,0.9-0.8,1.7-1.4,2.4c-0.6,0.7-1.3,1.3-2.2,1.8c-0.9,0.5-1.9,0.9-3,1.1
		c0.5,0.3,0.9,0.7,1.3,1.2l8.3,11.3h-3.4c-0.7,0-1.2-0.3-1.6-0.8l-7.4-10.2c-0.2-0.3-0.5-0.5-0.7-0.7c-0.3-0.1-0.7-0.2-1.2-0.2
		H615.7z M615.7,304h4c1.1,0,2.1-0.1,3-0.4c0.9-0.3,1.6-0.7,2.2-1.2c0.6-0.5,1-1.1,1.3-1.8c0.3-0.7,0.4-1.5,0.4-2.3
		c0-1.7-0.6-3-1.7-3.8c-1.1-0.9-2.8-1.3-5-1.3h-4.2V304z"/>
	<path class="st0" d="M643.8,298.2c1.2,0,2.3,0.2,3.3,0.6c1,0.4,1.9,1,2.7,1.8c0.7,0.8,1.3,1.7,1.7,2.8c0.4,1.1,0.6,2.4,0.6,3.8
		c0,0.6-0.1,0.9-0.2,1.1c-0.1,0.2-0.3,0.3-0.7,0.3h-13.4c0,1.3,0.2,2.4,0.5,3.3c0.3,0.9,0.8,1.7,1.3,2.4c0.6,0.6,1.2,1.1,2,1.4
		c0.8,0.3,1.6,0.5,2.6,0.5c0.9,0,1.7-0.1,2.3-0.3c0.6-0.2,1.2-0.4,1.7-0.7c0.5-0.2,0.9-0.5,1.2-0.7c0.3-0.2,0.6-0.3,0.8-0.3
		c0.3,0,0.5,0.1,0.7,0.3l1,1.3c-0.4,0.5-1,1-1.6,1.4c-0.6,0.4-1.3,0.7-2,1c-0.7,0.3-1.4,0.4-2.2,0.6c-0.7,0.1-1.5,0.2-2.2,0.2
		c-1.4,0-2.7-0.2-3.9-0.7c-1.2-0.5-2.2-1.2-3.1-2.1c-0.9-0.9-1.5-2-2-3.4c-0.5-1.3-0.7-2.9-0.7-4.6c0-1.4,0.2-2.7,0.6-3.9
		c0.4-1.2,1.1-2.3,1.9-3.2c0.8-0.9,1.8-1.6,3-2.1C641,298.5,642.3,298.2,643.8,298.2z M643.9,300.8c-1.7,0-3.1,0.5-4,1.5
		c-1,1-1.6,2.4-1.8,4.1h11c0-0.8-0.1-1.6-0.3-2.3c-0.2-0.7-0.6-1.3-1-1.8c-0.4-0.5-1-0.9-1.6-1.2C645.4,301,644.7,300.8,643.9,300.8
		z"/>
	<path class="st0" d="M667.4,301.9c-0.2,0.3-0.4,0.4-0.7,0.4c-0.2,0-0.4-0.1-0.7-0.2c-0.3-0.1-0.6-0.3-0.9-0.5
		c-0.4-0.2-0.8-0.3-1.3-0.5c-0.5-0.2-1.1-0.2-1.8-0.2c-0.6,0-1.1,0.1-1.6,0.2c-0.5,0.2-0.9,0.4-1.2,0.6c-0.3,0.3-0.6,0.6-0.8,0.9
		c-0.2,0.4-0.3,0.7-0.3,1.1c0,0.5,0.2,1,0.4,1.3c0.3,0.3,0.7,0.6,1.2,0.9c0.5,0.3,1.1,0.5,1.7,0.7c0.6,0.2,1.3,0.4,1.9,0.6
		c0.7,0.2,1.3,0.5,1.9,0.7c0.6,0.3,1.2,0.6,1.7,1c0.5,0.4,0.9,0.9,1.2,1.5c0.3,0.6,0.4,1.3,0.4,2.1c0,0.9-0.2,1.8-0.5,2.6
		c-0.3,0.8-0.8,1.5-1.5,2.1c-0.7,0.6-1.4,1-2.4,1.4c-0.9,0.3-2,0.5-3.3,0.5c-1.4,0-2.7-0.2-3.8-0.7c-1.1-0.5-2.1-1-2.9-1.8l0.8-1.4
		c0.1-0.2,0.2-0.3,0.4-0.4c0.1-0.1,0.3-0.1,0.6-0.1c0.2,0,0.5,0.1,0.8,0.3c0.3,0.2,0.6,0.4,1,0.6c0.4,0.2,0.8,0.4,1.4,0.6
		c0.5,0.2,1.2,0.3,2,0.3c0.7,0,1.3-0.1,1.8-0.3c0.5-0.2,1-0.4,1.3-0.7c0.3-0.3,0.6-0.7,0.8-1.1c0.2-0.4,0.2-0.8,0.2-1.3
		c0-0.6-0.1-1-0.4-1.4c-0.3-0.4-0.7-0.7-1.2-0.9c-0.5-0.3-1.1-0.5-1.7-0.7c-0.6-0.2-1.3-0.4-1.9-0.6c-0.7-0.2-1.3-0.5-1.9-0.7
		c-0.6-0.3-1.2-0.6-1.7-1c-0.5-0.4-0.9-0.9-1.2-1.5c-0.3-0.6-0.4-1.3-0.4-2.2c0-0.8,0.2-1.5,0.5-2.2c0.3-0.7,0.8-1.3,1.4-1.9
		c0.6-0.5,1.4-1,2.3-1.3c0.9-0.3,1.9-0.5,3.1-0.5c1.3,0,2.5,0.2,3.6,0.6c1.1,0.4,2,1,2.7,1.7L667.4,301.9z"/>
	<path class="st0" d="M680.4,298.2c1.2,0,2.3,0.2,3.3,0.6c1,0.4,1.9,1,2.7,1.8c0.7,0.8,1.3,1.7,1.7,2.8c0.4,1.1,0.6,2.4,0.6,3.8
		c0,0.6-0.1,0.9-0.2,1.1c-0.1,0.2-0.3,0.3-0.7,0.3h-13.4c0,1.3,0.2,2.4,0.5,3.3c0.3,0.9,0.8,1.7,1.3,2.4c0.6,0.6,1.2,1.1,2,1.4
		c0.8,0.3,1.6,0.5,2.6,0.5c0.9,0,1.7-0.1,2.3-0.3c0.6-0.2,1.2-0.4,1.7-0.7c0.5-0.2,0.9-0.5,1.2-0.7c0.3-0.2,0.6-0.3,0.8-0.3
		c0.3,0,0.5,0.1,0.7,0.3l1,1.3c-0.4,0.5-1,1-1.6,1.4c-0.6,0.4-1.3,0.7-2,1c-0.7,0.3-1.4,0.4-2.2,0.6c-0.7,0.1-1.5,0.2-2.2,0.2
		c-1.4,0-2.7-0.2-3.9-0.7c-1.2-0.5-2.2-1.2-3.1-2.1c-0.9-0.9-1.5-2-2-3.4c-0.5-1.3-0.7-2.9-0.7-4.6c0-1.4,0.2-2.7,0.6-3.9
		c0.4-1.2,1.1-2.3,1.9-3.2c0.8-0.9,1.8-1.6,3-2.1C677.6,298.5,678.9,298.2,680.4,298.2z M680.5,300.8c-1.7,0-3.1,0.5-4,1.5
		c-1,1-1.6,2.4-1.8,4.1h11c0-0.8-0.1-1.6-0.3-2.3c-0.2-0.7-0.6-1.3-1-1.8c-0.4-0.5-1-0.9-1.6-1.2C682,301,681.3,300.8,680.5,300.8z"
		/>
	<path class="st0" d="M707.3,318.7h-1.6c-0.3,0-0.6-0.1-0.8-0.2c-0.2-0.1-0.4-0.3-0.4-0.7l-0.4-1.9c-0.5,0.5-1,0.9-1.6,1.3
		c-0.5,0.4-1,0.7-1.6,1c-0.6,0.3-1.2,0.5-1.8,0.6c-0.6,0.1-1.3,0.2-2.1,0.2c-0.8,0-1.5-0.1-2.2-0.3c-0.7-0.2-1.3-0.5-1.8-1
		c-0.5-0.4-0.9-1-1.2-1.7c-0.3-0.7-0.4-1.5-0.4-2.4c0-0.8,0.2-1.6,0.7-2.3c0.4-0.7,1.1-1.4,2.1-2c1-0.6,2.3-1,3.8-1.4
		c1.6-0.4,3.5-0.5,5.8-0.5v-1.6c0-1.6-0.3-2.8-1-3.6c-0.7-0.8-1.7-1.2-3-1.2c-0.9,0-1.6,0.1-2.2,0.3c-0.6,0.2-1.1,0.5-1.5,0.7
		c-0.4,0.3-0.8,0.5-1.1,0.7c-0.3,0.2-0.6,0.3-0.9,0.3c-0.2,0-0.4-0.1-0.6-0.2s-0.3-0.3-0.4-0.5l-0.6-1.1c1.1-1.1,2.3-1.9,3.6-2.4
		c1.3-0.5,2.7-0.8,4.3-0.8c1.1,0,2.1,0.2,3,0.6c0.9,0.4,1.6,0.9,2.2,1.6c0.6,0.7,1,1.5,1.4,2.4c0.3,0.9,0.5,2,0.5,3.1V318.7z
		 M698.1,316.6c0.6,0,1.2-0.1,1.7-0.2c0.5-0.1,1-0.3,1.5-0.5c0.5-0.2,0.9-0.5,1.3-0.8c0.4-0.3,0.8-0.7,1.2-1.1v-4.2
		c-1.6,0-3,0.1-4.2,0.3c-1.1,0.2-2.1,0.5-2.8,0.8c-0.7,0.3-1.2,0.7-1.6,1.2c-0.3,0.5-0.5,1-0.5,1.5c0,0.5,0.1,1,0.3,1.4
		s0.4,0.7,0.7,1c0.3,0.2,0.6,0.4,1,0.5C697.2,316.5,697.6,316.6,698.1,316.6z"/>
	<path class="st0" d="M711.9,318.7v-20.2h2c0.4,0,0.7,0.1,0.8,0.2c0.1,0.1,0.2,0.4,0.3,0.8l0.2,3.1c0.7-1.4,1.5-2.5,2.6-3.3
		c1-0.8,2.2-1.2,3.6-1.2c0.6,0,1.1,0.1,1.5,0.2c0.5,0.1,0.9,0.3,1.3,0.5l-0.5,2.7c-0.1,0.3-0.3,0.5-0.6,0.5c-0.2,0-0.5-0.1-0.9-0.2
		c-0.4-0.1-0.9-0.2-1.6-0.2c-1.2,0-2.3,0.4-3.1,1.1c-0.8,0.7-1.5,1.8-2.1,3.1v12.9H711.9z"/>
	<path class="st0" d="M740.9,302.1c-0.1,0.1-0.2,0.3-0.3,0.3c-0.1,0.1-0.3,0.1-0.5,0.1c-0.2,0-0.4-0.1-0.6-0.2
		c-0.2-0.2-0.5-0.3-0.9-0.5c-0.4-0.2-0.8-0.4-1.3-0.5c-0.5-0.2-1.1-0.3-1.9-0.3c-1,0-1.9,0.2-2.6,0.5c-0.8,0.4-1.4,0.9-1.9,1.5
		c-0.5,0.7-0.9,1.5-1.2,2.4c-0.3,0.9-0.4,2-0.4,3.2c0,1.2,0.1,2.3,0.4,3.3c0.3,1,0.7,1.7,1.2,2.4c0.5,0.6,1.1,1.1,1.8,1.5
		c0.7,0.3,1.5,0.5,2.4,0.5c0.9,0,1.6-0.1,2.1-0.3c0.6-0.2,1-0.4,1.4-0.7c0.4-0.3,0.7-0.5,0.9-0.7c0.2-0.2,0.5-0.3,0.7-0.3
		c0.3,0,0.5,0.1,0.7,0.3l1,1.3c-0.9,1.1-2,1.9-3.3,2.4c-1.3,0.5-2.7,0.7-4.2,0.7c-1.3,0-2.4-0.2-3.5-0.7c-1.1-0.5-2-1.1-2.8-2
		c-0.8-0.9-1.4-2-1.9-3.3c-0.5-1.3-0.7-2.8-0.7-4.4c0-1.5,0.2-2.9,0.6-4.2c0.4-1.3,1-2.4,1.8-3.3c0.8-0.9,1.8-1.6,3-2.2
		c1.2-0.5,2.5-0.8,4.1-0.8c1.4,0,2.7,0.2,3.7,0.7c1.1,0.5,2.1,1.1,2.9,1.9L740.9,302.1z"/>
	<path class="st0" d="M745,318.7v-29.4h3.5v11.9c0.9-0.9,1.8-1.7,2.9-2.2c1.1-0.6,2.3-0.8,3.6-0.8c1.1,0,2.1,0.2,2.9,0.5
		c0.8,0.4,1.5,0.9,2.1,1.6c0.6,0.7,1,1.5,1.3,2.4c0.3,0.9,0.4,2,0.4,3.1v12.9h-3.5v-12.9c0-1.5-0.3-2.7-1-3.6
		c-0.7-0.8-1.8-1.3-3.2-1.3c-1.1,0-2,0.3-2.9,0.8c-0.9,0.5-1.8,1.2-2.5,2.1v14.9H745z"/>
	<path class="st0" d="M797.3,318.7h-3c-0.3,0-0.6-0.1-0.8-0.3c-0.2-0.2-0.4-0.4-0.5-0.7l-2.7-6.9h-12.8l-2.7,6.9
		c-0.1,0.2-0.3,0.5-0.5,0.6c-0.2,0.2-0.5,0.3-0.8,0.3h-3l11.4-28.6h3.9L797.3,318.7z M778.6,308.1h10.7l-4.5-11.6
		c-0.3-0.7-0.6-1.6-0.9-2.7c-0.1,0.5-0.3,1-0.4,1.5c-0.1,0.5-0.3,0.9-0.4,1.2L778.6,308.1z"/>
	<path class="st0" d="M806.4,298.2c0.9,0,1.7,0.1,2.5,0.3c0.8,0.2,1.5,0.5,2.1,0.8h5.5v1.3c0,0.4-0.3,0.7-0.8,0.8l-2.3,0.3
		c0.5,0.9,0.7,1.8,0.7,2.9c0,1-0.2,1.9-0.6,2.7c-0.4,0.8-0.9,1.5-1.6,2.1c-0.7,0.6-1.5,1-2.4,1.3c-0.9,0.3-1.9,0.5-3,0.5
		c-0.9,0-1.8-0.1-2.7-0.3c-0.4,0.3-0.7,0.6-1,0.9c-0.2,0.3-0.3,0.6-0.3,0.9c0,0.5,0.2,0.9,0.6,1.1c0.4,0.3,0.9,0.4,1.5,0.5
		c0.6,0.1,1.4,0.2,2.2,0.2s1.6,0,2.5,0c0.8,0,1.7,0.1,2.5,0.2c0.8,0.1,1.5,0.4,2.2,0.7c0.6,0.3,1.2,0.8,1.5,1.4
		c0.4,0.6,0.6,1.4,0.6,2.3c0,0.9-0.2,1.7-0.6,2.5c-0.4,0.8-1.1,1.6-1.9,2.2c-0.8,0.6-1.8,1.2-3,1.5c-1.2,0.4-2.5,0.6-4,0.6
		c-1.5,0-2.8-0.1-3.9-0.4c-1.1-0.3-2-0.7-2.8-1.2c-0.7-0.5-1.3-1.1-1.6-1.7c-0.4-0.6-0.5-1.3-0.5-2c0-1,0.3-1.8,0.9-2.5
		c0.6-0.7,1.5-1.3,2.6-1.7c-0.6-0.3-1-0.6-1.4-1.1c-0.3-0.4-0.5-1-0.5-1.8c0-0.3,0.1-0.6,0.2-0.9c0.1-0.3,0.3-0.6,0.5-0.9
		c0.2-0.3,0.5-0.6,0.8-0.9c0.3-0.3,0.7-0.5,1.1-0.7c-1-0.6-1.8-1.3-2.3-2.2c-0.6-0.9-0.8-2-0.8-3.2c0-1,0.2-1.9,0.6-2.7
		c0.4-0.8,0.9-1.5,1.6-2.1c0.7-0.6,1.5-1,2.4-1.3C804.2,298.3,805.2,298.2,806.4,298.2z M812.7,319.8c0-0.5-0.1-0.9-0.4-1.2
		c-0.3-0.3-0.7-0.6-1.1-0.7c-0.5-0.2-1-0.3-1.7-0.4c-0.6-0.1-1.3-0.1-2-0.1c-0.7,0-1.4,0-2.1,0c-0.7,0-1.4-0.1-2.1-0.3
		c-0.8,0.4-1.4,0.8-1.8,1.3c-0.5,0.5-0.7,1.1-0.7,1.9c0,0.5,0.1,0.9,0.3,1.3c0.2,0.4,0.6,0.7,1.1,1c0.5,0.3,1.1,0.5,1.8,0.7
		c0.7,0.2,1.6,0.2,2.6,0.2c1,0,1.8-0.1,2.6-0.3c0.8-0.2,1.4-0.4,1.9-0.8c0.5-0.3,0.9-0.7,1.2-1.2
		C812.5,320.8,812.7,320.3,812.7,319.8z M806.4,308.9c0.7,0,1.4-0.1,1.9-0.3c0.6-0.2,1-0.5,1.4-0.8c0.4-0.4,0.7-0.8,0.8-1.3
		c0.2-0.5,0.3-1,0.3-1.6c0-1.2-0.4-2.2-1.1-3c-0.8-0.7-1.8-1.1-3.3-1.1c-1.4,0-2.5,0.4-3.3,1.1c-0.8,0.7-1.1,1.7-1.1,3
		c0,0.6,0.1,1.1,0.3,1.6c0.2,0.5,0.5,0.9,0.8,1.3c0.4,0.4,0.8,0.6,1.4,0.8C805,308.8,805.6,308.9,806.4,308.9z"/>
	<path class="st0" d="M827.1,298.2c1.2,0,2.3,0.2,3.3,0.6c1,0.4,1.9,1,2.7,1.8c0.7,0.8,1.3,1.7,1.7,2.8c0.4,1.1,0.6,2.4,0.6,3.8
		c0,0.6-0.1,0.9-0.2,1.1c-0.1,0.2-0.3,0.3-0.7,0.3h-13.4c0,1.3,0.2,2.4,0.5,3.3c0.3,0.9,0.8,1.7,1.3,2.4c0.6,0.6,1.2,1.1,2,1.4
		c0.8,0.3,1.6,0.5,2.6,0.5c0.9,0,1.7-0.1,2.3-0.3c0.6-0.2,1.2-0.4,1.7-0.7c0.5-0.2,0.9-0.5,1.2-0.7c0.3-0.2,0.6-0.3,0.8-0.3
		c0.3,0,0.5,0.1,0.7,0.3l1,1.3c-0.4,0.5-1,1-1.6,1.4c-0.6,0.4-1.3,0.7-2,1c-0.7,0.3-1.4,0.4-2.2,0.6c-0.7,0.1-1.5,0.2-2.2,0.2
		c-1.4,0-2.7-0.2-3.9-0.7c-1.2-0.5-2.2-1.2-3.1-2.1c-0.9-0.9-1.5-2-2-3.4c-0.5-1.3-0.7-2.9-0.7-4.6c0-1.4,0.2-2.7,0.6-3.9
		c0.4-1.2,1.1-2.3,1.9-3.2c0.8-0.9,1.8-1.6,3-2.1C824.3,298.5,825.7,298.2,827.1,298.2z M827.2,300.8c-1.7,0-3.1,0.5-4,1.5
		c-1,1-1.6,2.4-1.8,4.1h11c0-0.8-0.1-1.6-0.3-2.3c-0.2-0.7-0.6-1.3-1-1.8c-0.4-0.5-1-0.9-1.6-1.2C828.7,301,828,300.8,827.2,300.8z"
		/>
	<path class="st0" d="M839.2,318.7v-20.2h2.1c0.5,0,0.8,0.2,1,0.7l0.3,2.2c0.9-1,1.9-1.8,2.9-2.4c1.1-0.6,2.3-0.9,3.8-0.9
		c1.1,0,2.1,0.2,2.9,0.5c0.8,0.4,1.5,0.9,2.1,1.6c0.6,0.7,1,1.5,1.3,2.4c0.3,0.9,0.4,2,0.4,3.1v12.9h-3.5v-12.9c0-1.5-0.3-2.7-1-3.6
		c-0.7-0.8-1.8-1.3-3.2-1.3c-1.1,0-2,0.3-2.9,0.8c-0.9,0.5-1.8,1.2-2.5,2.1v14.9H839.2z"/>
	<path class="st0" d="M874.4,302.1c-0.1,0.1-0.2,0.3-0.3,0.3c-0.1,0.1-0.3,0.1-0.5,0.1c-0.2,0-0.4-0.1-0.6-0.2
		c-0.2-0.2-0.5-0.3-0.9-0.5c-0.4-0.2-0.8-0.4-1.3-0.5c-0.5-0.2-1.1-0.3-1.9-0.3c-1,0-1.9,0.2-2.6,0.5c-0.8,0.4-1.4,0.9-1.9,1.5
		c-0.5,0.7-0.9,1.5-1.2,2.4c-0.3,0.9-0.4,2-0.4,3.2c0,1.2,0.1,2.3,0.4,3.3c0.3,1,0.7,1.7,1.2,2.4c0.5,0.6,1.1,1.1,1.8,1.5
		c0.7,0.3,1.5,0.5,2.4,0.5c0.9,0,1.6-0.1,2.1-0.3c0.6-0.2,1-0.4,1.4-0.7c0.4-0.3,0.7-0.5,0.9-0.7c0.2-0.2,0.5-0.3,0.7-0.3
		c0.3,0,0.5,0.1,0.7,0.3l1,1.3c-0.9,1.1-2,1.9-3.3,2.4c-1.3,0.5-2.7,0.7-4.2,0.7c-1.3,0-2.4-0.2-3.5-0.7c-1.1-0.5-2-1.1-2.8-2
		s-1.4-2-1.9-3.3c-0.5-1.3-0.7-2.8-0.7-4.4c0-1.5,0.2-2.9,0.6-4.2c0.4-1.3,1-2.4,1.8-3.3c0.8-0.9,1.8-1.6,3-2.2
		c1.2-0.5,2.5-0.8,4.1-0.8c1.4,0,2.7,0.2,3.7,0.7c1.1,0.5,2.1,1.1,2.9,1.9L874.4,302.1z"/>
	<path class="st0" d="M884.3,324.7c-0.1,0.3-0.3,0.5-0.4,0.6c-0.2,0.2-0.5,0.2-0.8,0.2h-2.6l3.7-8l-8.3-19h3.1
		c0.3,0,0.5,0.1,0.7,0.2c0.2,0.2,0.3,0.3,0.4,0.5l5.4,12.7c0.1,0.3,0.2,0.6,0.3,0.9c0.1,0.3,0.2,0.6,0.2,0.9
		c0.1-0.3,0.2-0.6,0.3-0.9c0.1-0.3,0.2-0.6,0.3-0.9l5.2-12.7c0.1-0.2,0.2-0.4,0.4-0.5c0.2-0.1,0.4-0.2,0.6-0.2h2.8L884.3,324.7z"/>
</g>
<g>
	<path class="st0" d="M396.5,384.4c0.8,0,1.5,0,2.1-0.1c0.6-0.1,1.3-0.2,1.8-0.3c0.6-0.1,1.1-0.3,1.6-0.5c0.5-0.2,1-0.4,1.5-0.7
		v-6.3h-4.4c-0.3,0-0.5-0.1-0.6-0.2c-0.2-0.1-0.2-0.3-0.2-0.5v-2.2h8.8v11c-0.7,0.5-1.5,1-2.2,1.4c-0.8,0.4-1.6,0.7-2.5,1
		c-0.9,0.3-1.8,0.5-2.8,0.6c-1,0.1-2.1,0.2-3.3,0.2c-2.1,0-4-0.4-5.7-1.1c-1.7-0.7-3.2-1.7-4.5-3c-1.2-1.3-2.2-2.8-2.9-4.6
		c-0.7-1.8-1-3.8-1-5.9c0-2.2,0.3-4.2,1-6c0.7-1.8,1.7-3.3,2.9-4.6c1.3-1.3,2.8-2.3,4.6-3c1.8-0.7,3.8-1.1,6-1.1
		c1.1,0,2.2,0.1,3.1,0.2c1,0.2,1.9,0.4,2.7,0.7c0.8,0.3,1.6,0.7,2.3,1.1c0.7,0.4,1.4,0.9,2,1.5l-1.1,1.8c-0.2,0.4-0.5,0.5-0.9,0.5
		c-0.2,0-0.4-0.1-0.7-0.2c-0.3-0.2-0.7-0.4-1.1-0.7c-0.4-0.3-0.9-0.5-1.5-0.8c-0.6-0.2-1.3-0.5-2.1-0.6c-0.8-0.2-1.8-0.3-2.9-0.3
		c-1.6,0-3.1,0.3-4.4,0.8c-1.3,0.5-2.4,1.3-3.3,2.3c-0.9,1-1.6,2.2-2.1,3.5c-0.5,1.4-0.7,2.9-0.7,4.7c0,1.8,0.3,3.4,0.8,4.8
		c0.5,1.4,1.2,2.6,2.2,3.6c0.9,1,2,1.7,3.3,2.3C393.6,384.1,395,384.4,396.5,384.4z"/>
	<path class="st0" d="M411.7,387.2V367h2.1c0.5,0,0.8,0.2,1,0.7l0.3,2.2c0.9-1,1.9-1.8,2.9-2.4c1.1-0.6,2.3-0.9,3.8-0.9
		c1.1,0,2.1,0.2,2.9,0.5c0.8,0.4,1.5,0.9,2.1,1.6c0.6,0.7,1,1.5,1.3,2.4c0.3,0.9,0.4,2,0.4,3.1v12.9h-3.5v-12.9c0-1.5-0.3-2.7-1-3.6
		c-0.7-0.8-1.8-1.3-3.2-1.3c-1.1,0-2,0.3-2.9,0.8c-0.9,0.5-1.8,1.2-2.5,2.1v14.9H411.7z"/>
	<path class="st0" d="M441.2,358.3l-4.6,5.1c-0.2,0.2-0.4,0.3-0.5,0.4c-0.2,0.1-0.4,0.1-0.7,0.1h-2.1l3-4.8c0.2-0.3,0.4-0.5,0.6-0.7
		c0.2-0.1,0.5-0.2,1-0.2H441.2z M437,367v20.2h-3.5V367H437z"/>
	<path class="st0" d="M450.6,366.7c1.5,0,2.8,0.2,4,0.7c1.2,0.5,2.2,1.2,3,2.1c0.8,0.9,1.5,2,1.9,3.3c0.4,1.3,0.7,2.7,0.7,4.3
		c0,1.6-0.2,3-0.7,4.3c-0.4,1.3-1.1,2.4-1.9,3.3c-0.8,0.9-1.8,1.6-3,2.1c-1.2,0.5-2.5,0.7-4,0.7c-1.5,0-2.8-0.2-4-0.7
		c-1.2-0.5-2.2-1.2-3-2.1c-0.8-0.9-1.5-2-1.9-3.3c-0.5-1.3-0.7-2.7-0.7-4.3c0-1.6,0.2-3,0.7-4.3c0.5-1.3,1.1-2.4,1.9-3.3
		c0.8-0.9,1.9-1.6,3-2.1C447.8,366.9,449.2,366.7,450.6,366.7z M450.6,384.7c2,0,3.5-0.7,4.5-2c1-1.3,1.5-3.2,1.5-5.6
		c0-2.4-0.5-4.3-1.5-5.6c-1-1.3-2.5-2-4.5-2c-1,0-1.9,0.2-2.6,0.5c-0.7,0.3-1.4,0.8-1.9,1.5c-0.5,0.7-0.9,1.5-1.1,2.4
		s-0.4,2-0.4,3.2c0,1.2,0.1,2.3,0.4,3.2c0.2,0.9,0.6,1.7,1.1,2.4c0.5,0.6,1.1,1.1,1.9,1.5C448.8,384.5,449.6,384.7,450.6,384.7z"/>
	<path class="st0" d="M463.8,387.2V367h2.1c0.5,0,0.8,0.2,1,0.7l0.3,2.1c0.7-0.9,1.6-1.7,2.5-2.3c0.9-0.6,2-0.9,3.2-0.9
		c1.4,0,2.5,0.4,3.3,1.1c0.8,0.8,1.5,1.8,1.8,3.1c0.3-0.7,0.6-1.4,1.1-1.9c0.5-0.5,1-1,1.5-1.3c0.6-0.3,1.2-0.6,1.8-0.8
		c0.6-0.2,1.3-0.2,2-0.2c1.1,0,2,0.2,2.8,0.5c0.8,0.3,1.5,0.8,2.1,1.5c0.6,0.7,1,1.5,1.3,2.4c0.3,1,0.5,2,0.5,3.3v12.9h-3.5v-12.9
		c0-1.6-0.3-2.8-1-3.6c-0.7-0.8-1.7-1.2-3-1.2c-0.6,0-1.1,0.1-1.7,0.3c-0.5,0.2-1,0.5-1.4,0.9c-0.4,0.4-0.7,0.9-0.9,1.5
		s-0.3,1.3-0.3,2.1v12.9h-3.5v-12.9c0-1.6-0.3-2.8-1-3.6c-0.7-0.8-1.6-1.2-2.8-1.2c-0.9,0-1.7,0.2-2.4,0.7c-0.8,0.5-1.4,1.1-2.1,1.9
		v15H463.8z"/>
	<path class="st0" d="M495.8,387.2v-29.4h3.5v11.9c0.9-0.9,1.8-1.7,2.9-2.2c1-0.6,2.3-0.8,3.6-0.8c1.1,0,2.1,0.2,2.9,0.5
		c0.8,0.4,1.5,0.9,2.1,1.6c0.6,0.7,1,1.5,1.3,2.4c0.3,0.9,0.4,2,0.4,3.1v12.9H509v-12.9c0-1.5-0.3-2.7-1-3.6
		c-0.7-0.8-1.8-1.3-3.2-1.3c-1.1,0-2,0.3-2.9,0.8c-0.9,0.5-1.8,1.2-2.5,2.1v14.9H495.8z"/>
	<path class="st0" d="M532,387.2h-1.6c-0.3,0-0.6-0.1-0.8-0.2c-0.2-0.1-0.4-0.3-0.4-0.7l-0.4-1.9c-0.5,0.5-1,0.9-1.6,1.3
		c-0.5,0.4-1,0.7-1.6,1c-0.6,0.3-1.2,0.5-1.8,0.6c-0.6,0.1-1.3,0.2-2.1,0.2c-0.8,0-1.5-0.1-2.2-0.3c-0.7-0.2-1.3-0.5-1.8-1
		c-0.5-0.4-0.9-1-1.2-1.7c-0.3-0.7-0.4-1.5-0.4-2.4c0-0.8,0.2-1.6,0.7-2.3c0.4-0.7,1.1-1.4,2.1-2c1-0.6,2.3-1,3.8-1.4
		c1.6-0.4,3.5-0.5,5.8-0.5v-1.6c0-1.6-0.3-2.8-1-3.6c-0.7-0.8-1.7-1.2-3-1.2c-0.9,0-1.6,0.1-2.2,0.3c-0.6,0.2-1.1,0.5-1.5,0.7
		c-0.4,0.3-0.8,0.5-1.1,0.7c-0.3,0.2-0.6,0.3-0.9,0.3c-0.2,0-0.4-0.1-0.6-0.2c-0.2-0.1-0.3-0.3-0.4-0.5l-0.6-1.1
		c1.1-1.1,2.3-1.9,3.6-2.4c1.3-0.5,2.7-0.8,4.3-0.8c1.1,0,2.1,0.2,3,0.6c0.9,0.4,1.6,0.9,2.2,1.6c0.6,0.7,1,1.5,1.4,2.4
		c0.3,0.9,0.5,2,0.5,3.1V387.2z M522.8,385c0.6,0,1.2-0.1,1.7-0.2c0.5-0.1,1-0.3,1.5-0.5c0.5-0.2,0.9-0.5,1.3-0.8
		c0.4-0.3,0.8-0.7,1.2-1.1v-4.2c-1.6,0-3,0.1-4.2,0.3c-1.1,0.2-2.1,0.5-2.8,0.8c-0.7,0.3-1.2,0.7-1.6,1.2c-0.3,0.5-0.5,1-0.5,1.5
		c0,0.5,0.1,1,0.3,1.4c0.2,0.4,0.4,0.7,0.7,1c0.3,0.2,0.6,0.4,1,0.5C521.9,384.9,522.3,385,522.8,385z"/>
	<path class="st0" d="M541.3,360.6c0,0.3-0.1,0.7-0.2,1c-0.1,0.3-0.3,0.6-0.6,0.8c-0.2,0.2-0.5,0.4-0.8,0.5c-0.3,0.1-0.6,0.2-1,0.2
		c-0.3,0-0.7-0.1-1-0.2c-0.3-0.1-0.6-0.3-0.8-0.5c-0.2-0.2-0.4-0.5-0.5-0.8c-0.1-0.3-0.2-0.6-0.2-1s0.1-0.7,0.2-1
		c0.1-0.3,0.3-0.6,0.5-0.8c0.2-0.2,0.5-0.4,0.8-0.5c0.3-0.1,0.6-0.2,1-0.2c0.3,0,0.7,0.1,1,0.2c0.3,0.1,0.6,0.3,0.8,0.5
		c0.2,0.2,0.4,0.5,0.6,0.8C541.2,360,541.3,360.3,541.3,360.6z M540.5,367v20.2H537V367H540.5z"/>
	<path class="st0" d="M546,387.2V367h2c0.4,0,0.7,0.1,0.8,0.2c0.1,0.1,0.2,0.4,0.3,0.8l0.2,3.1c0.7-1.4,1.5-2.5,2.6-3.3
		c1-0.8,2.2-1.2,3.6-1.2c0.6,0,1.1,0.1,1.5,0.2c0.5,0.1,0.9,0.3,1.3,0.5l-0.5,2.7c-0.1,0.3-0.3,0.5-0.6,0.5c-0.2,0-0.5-0.1-0.9-0.2
		c-0.4-0.1-0.9-0.2-1.6-0.2c-1.2,0-2.3,0.4-3.1,1.1c-0.8,0.7-1.5,1.8-2.1,3.1v12.9H546z"/>
	<path class="st0" d="M569.2,366.7c1.2,0,2.3,0.2,3.3,0.6c1,0.4,1.9,1,2.7,1.8c0.7,0.8,1.3,1.7,1.7,2.8c0.4,1.1,0.6,2.4,0.6,3.8
		c0,0.6-0.1,0.9-0.2,1.1c-0.1,0.2-0.3,0.3-0.7,0.3h-13.4c0,1.3,0.2,2.4,0.5,3.3c0.3,0.9,0.8,1.7,1.3,2.4c0.6,0.6,1.2,1.1,2,1.4
		c0.8,0.3,1.6,0.5,2.6,0.5c0.9,0,1.7-0.1,2.3-0.3c0.6-0.2,1.2-0.4,1.7-0.7c0.5-0.2,0.9-0.5,1.2-0.7c0.3-0.2,0.6-0.3,0.8-0.3
		c0.3,0,0.5,0.1,0.7,0.3l1,1.3c-0.4,0.5-1,1-1.6,1.4c-0.6,0.4-1.3,0.7-2,1c-0.7,0.3-1.4,0.4-2.2,0.6c-0.7,0.1-1.5,0.2-2.2,0.2
		c-1.4,0-2.7-0.2-3.9-0.7c-1.2-0.5-2.2-1.2-3.1-2.1c-0.9-0.9-1.5-2-2-3.4c-0.5-1.3-0.7-2.9-0.7-4.6c0-1.4,0.2-2.7,0.6-3.9
		c0.4-1.2,1.1-2.3,1.9-3.2c0.8-0.9,1.8-1.6,3-2.1C566.4,366.9,567.8,366.7,569.2,366.7z M569.3,369.3c-1.7,0-3.1,0.5-4,1.5
		c-1,1-1.6,2.4-1.8,4.1h11c0-0.8-0.1-1.6-0.3-2.3c-0.2-0.7-0.6-1.3-1-1.8c-0.4-0.5-1-0.9-1.6-1.2
		C570.8,369.4,570.1,369.3,569.3,369.3z"/>
	<path class="st0" d="M596.2,387.2h-1.6c-0.3,0-0.6-0.1-0.8-0.2c-0.2-0.1-0.4-0.3-0.4-0.7l-0.4-1.9c-0.5,0.5-1,0.9-1.6,1.3
		c-0.5,0.4-1,0.7-1.6,1c-0.6,0.3-1.2,0.5-1.8,0.6c-0.6,0.1-1.3,0.2-2.1,0.2c-0.8,0-1.5-0.1-2.2-0.3c-0.7-0.2-1.3-0.5-1.8-1
		c-0.5-0.4-0.9-1-1.2-1.7c-0.3-0.7-0.4-1.5-0.4-2.4c0-0.8,0.2-1.6,0.7-2.3c0.4-0.7,1.1-1.4,2.1-2c1-0.6,2.3-1,3.8-1.4
		c1.6-0.4,3.5-0.5,5.8-0.5v-1.6c0-1.6-0.3-2.8-1-3.6c-0.7-0.8-1.7-1.2-3-1.2c-0.9,0-1.6,0.1-2.2,0.3c-0.6,0.2-1.1,0.5-1.5,0.7
		c-0.4,0.3-0.8,0.5-1.1,0.7c-0.3,0.2-0.6,0.3-0.9,0.3c-0.2,0-0.4-0.1-0.6-0.2c-0.2-0.1-0.3-0.3-0.4-0.5l-0.6-1.1
		c1.1-1.1,2.3-1.9,3.6-2.4c1.3-0.5,2.7-0.8,4.3-0.8c1.1,0,2.1,0.2,3,0.6c0.9,0.4,1.6,0.9,2.2,1.6c0.6,0.7,1,1.5,1.4,2.4
		c0.3,0.9,0.5,2,0.5,3.1V387.2z M586.9,385c0.6,0,1.2-0.1,1.7-0.2c0.5-0.1,1-0.3,1.5-0.5c0.5-0.2,0.9-0.5,1.3-0.8
		c0.4-0.3,0.8-0.7,1.2-1.1v-4.2c-1.6,0-3,0.1-4.2,0.3c-1.1,0.2-2.1,0.5-2.8,0.8c-0.7,0.3-1.2,0.7-1.6,1.2c-0.3,0.5-0.5,1-0.5,1.5
		c0,0.5,0.1,1,0.3,1.4c0.2,0.4,0.4,0.7,0.7,1c0.3,0.2,0.6,0.4,1,0.5C586.1,384.9,586.5,385,586.9,385z"/>
	<path class="st0" d="M614.5,370.6c-0.1,0.1-0.2,0.3-0.3,0.3c-0.1,0.1-0.3,0.1-0.5,0.1c-0.2,0-0.4-0.1-0.6-0.2
		c-0.2-0.2-0.5-0.3-0.9-0.5c-0.4-0.2-0.8-0.4-1.3-0.5c-0.5-0.2-1.1-0.3-1.9-0.3c-1,0-1.9,0.2-2.6,0.5c-0.8,0.4-1.4,0.9-1.9,1.5
		c-0.5,0.7-0.9,1.5-1.2,2.4c-0.3,0.9-0.4,2-0.4,3.2c0,1.2,0.1,2.3,0.4,3.3c0.3,1,0.7,1.7,1.2,2.4c0.5,0.6,1.1,1.1,1.8,1.5
		c0.7,0.3,1.5,0.5,2.4,0.5c0.9,0,1.6-0.1,2.1-0.3c0.6-0.2,1-0.4,1.4-0.7c0.4-0.3,0.7-0.5,0.9-0.7c0.2-0.2,0.5-0.3,0.7-0.3
		c0.3,0,0.5,0.1,0.7,0.3l1,1.3c-0.9,1.1-2,1.9-3.3,2.4c-1.3,0.5-2.7,0.7-4.2,0.7c-1.3,0-2.4-0.2-3.5-0.7c-1.1-0.5-2-1.1-2.8-2
		c-0.8-0.9-1.4-2-1.9-3.3c-0.5-1.3-0.7-2.8-0.7-4.4c0-1.5,0.2-2.9,0.6-4.2c0.4-1.3,1-2.4,1.8-3.3c0.8-0.9,1.8-1.6,3-2.2
		c1.2-0.5,2.5-0.8,4.1-0.8c1.4,0,2.7,0.2,3.7,0.7c1.1,0.5,2.1,1.1,2.9,1.9L614.5,370.6z"/>
	<path class="st0" d="M618.6,387.2v-29.4h3.5v11.9c0.9-0.9,1.8-1.7,2.9-2.2c1.1-0.6,2.3-0.8,3.6-0.8c1.1,0,2.1,0.2,2.9,0.5
		c0.8,0.4,1.5,0.9,2.1,1.6c0.6,0.7,1,1.5,1.3,2.4c0.3,0.9,0.4,2,0.4,3.1v12.9h-3.5v-12.9c0-1.5-0.3-2.7-1-3.6
		c-0.7-0.8-1.8-1.3-3.2-1.3c-1.1,0-2,0.3-2.9,0.8c-0.9,0.5-1.8,1.2-2.5,2.1v14.9H618.6z"/>
	<path class="st0" d="M646.1,387.5c-1.6,0-2.8-0.4-3.7-1.3c-0.9-0.9-1.3-2.2-1.3-3.8V370h-2.4c-0.2,0-0.4-0.1-0.5-0.2
		c-0.1-0.1-0.2-0.3-0.2-0.6v-1.4l3.3-0.4l0.8-6.2c0-0.2,0.1-0.4,0.3-0.5s0.3-0.2,0.6-0.2h1.8v7h5.8v2.6h-5.8v12.1
		c0,0.9,0.2,1.5,0.6,1.9c0.4,0.4,0.9,0.6,1.6,0.6c0.4,0,0.7,0,1-0.1c0.3-0.1,0.5-0.2,0.7-0.3c0.2-0.1,0.4-0.2,0.5-0.3
		c0.1-0.1,0.3-0.1,0.4-0.1c0.2,0,0.4,0.1,0.5,0.3l1,1.7c-0.6,0.6-1.3,1-2.2,1.3C647.9,387.3,647,387.5,646.1,387.5z"/>
	<path class="st0" d="M680.9,358.6v3.2h-9.2v25.3h-3.9v-25.3h-9.3v-3.2H680.9z"/>
	<path class="st0" d="M683.6,387.2v-29.4h3.5v11.9c0.9-0.9,1.8-1.7,2.9-2.2c1-0.6,2.3-0.8,3.6-0.8c1.1,0,2.1,0.2,2.9,0.5
		c0.8,0.4,1.5,0.9,2.1,1.6s1,1.5,1.3,2.4c0.3,0.9,0.4,2,0.4,3.1v12.9h-3.5v-12.9c0-1.5-0.3-2.7-1-3.6c-0.7-0.8-1.8-1.3-3.2-1.3
		c-1.1,0-2,0.3-2.9,0.8c-0.9,0.5-1.8,1.2-2.5,2.1v14.9H683.6z"/>
	<path class="st0" d="M708.1,367v12.9c0,1.5,0.4,2.7,1.1,3.5c0.7,0.8,1.8,1.3,3.2,1.3c1,0,2-0.2,2.9-0.7c0.9-0.5,1.8-1.2,2.5-2.1
		V367h3.5v20.2h-2.1c-0.5,0-0.8-0.2-1-0.7l-0.3-2.2c-0.9,1-1.9,1.8-3,2.3c-1.1,0.6-2.3,0.9-3.7,0.9c-1.1,0-2.1-0.2-2.9-0.5
		c-0.8-0.4-1.6-0.9-2.1-1.5c-0.6-0.7-1-1.5-1.3-2.4c-0.3-0.9-0.4-2-0.4-3.1V367H708.1z"/>
	<path class="st0" d="M741.2,387.2h-1.6c-0.3,0-0.6-0.1-0.8-0.2c-0.2-0.1-0.4-0.3-0.4-0.7l-0.4-1.9c-0.5,0.5-1,0.9-1.6,1.3
		c-0.5,0.4-1,0.7-1.6,1c-0.6,0.3-1.2,0.5-1.8,0.6c-0.6,0.1-1.3,0.2-2.1,0.2c-0.8,0-1.5-0.1-2.2-0.3c-0.7-0.2-1.3-0.5-1.8-1
		c-0.5-0.4-0.9-1-1.2-1.7c-0.3-0.7-0.4-1.5-0.4-2.4c0-0.8,0.2-1.6,0.7-2.3c0.4-0.7,1.1-1.4,2.1-2c1-0.6,2.3-1,3.8-1.4
		c1.6-0.4,3.5-0.5,5.8-0.5v-1.6c0-1.6-0.3-2.8-1-3.6c-0.7-0.8-1.7-1.2-3-1.2c-0.9,0-1.6,0.1-2.2,0.3c-0.6,0.2-1.1,0.5-1.5,0.7
		c-0.4,0.3-0.8,0.5-1.1,0.7c-0.3,0.2-0.6,0.3-0.9,0.3c-0.2,0-0.4-0.1-0.6-0.2c-0.2-0.1-0.3-0.3-0.4-0.5l-0.6-1.1
		c1.1-1.1,2.3-1.9,3.6-2.4c1.3-0.5,2.7-0.8,4.3-0.8c1.1,0,2.1,0.2,3,0.6c0.9,0.4,1.6,0.9,2.2,1.6c0.6,0.7,1,1.5,1.4,2.4
		c0.3,0.9,0.5,2,0.5,3.1V387.2z M732,385c0.6,0,1.2-0.1,1.7-0.2c0.5-0.1,1-0.3,1.5-0.5c0.5-0.2,0.9-0.5,1.3-0.8
		c0.4-0.3,0.8-0.7,1.2-1.1v-4.2c-1.6,0-3,0.1-4.2,0.3c-1.1,0.2-2.1,0.5-2.8,0.8c-0.7,0.3-1.2,0.7-1.6,1.2c-0.3,0.5-0.5,1-0.5,1.5
		c0,0.5,0.1,1,0.3,1.4c0.2,0.4,0.4,0.7,0.7,1c0.3,0.2,0.6,0.4,1,0.5C731.1,384.9,731.5,385,732,385z"/>
	<path class="st0" d="M750.5,360.6c0,0.3-0.1,0.7-0.2,1c-0.1,0.3-0.3,0.6-0.6,0.8c-0.2,0.2-0.5,0.4-0.8,0.5c-0.3,0.1-0.6,0.2-1,0.2
		c-0.3,0-0.7-0.1-1-0.2c-0.3-0.1-0.6-0.3-0.8-0.5c-0.2-0.2-0.4-0.5-0.5-0.8c-0.1-0.3-0.2-0.6-0.2-1s0.1-0.7,0.2-1
		c0.1-0.3,0.3-0.6,0.5-0.8c0.2-0.2,0.5-0.4,0.8-0.5c0.3-0.1,0.6-0.2,1-0.2c0.3,0,0.7,0.1,1,0.2c0.3,0.1,0.6,0.3,0.8,0.5
		c0.2,0.2,0.4,0.5,0.6,0.8C750.5,360,750.5,360.3,750.5,360.6z M749.7,367v20.2h-3.5V367H749.7z"/>
	<path class="st0" d="M766.7,370.3c-0.2,0.3-0.4,0.4-0.7,0.4c-0.2,0-0.4-0.1-0.7-0.2c-0.3-0.1-0.6-0.3-0.9-0.5
		c-0.4-0.2-0.8-0.3-1.3-0.5c-0.5-0.2-1.1-0.2-1.8-0.2c-0.6,0-1.1,0.1-1.6,0.2c-0.5,0.2-0.9,0.4-1.2,0.6c-0.3,0.3-0.6,0.6-0.8,0.9
		c-0.2,0.4-0.3,0.7-0.3,1.1c0,0.5,0.1,1,0.4,1.3c0.3,0.3,0.7,0.6,1.2,0.9c0.5,0.3,1,0.5,1.7,0.7c0.6,0.2,1.3,0.4,1.9,0.6
		c0.7,0.2,1.3,0.5,1.9,0.7c0.6,0.3,1.2,0.6,1.7,1c0.5,0.4,0.9,0.9,1.2,1.5c0.3,0.6,0.4,1.3,0.4,2.1c0,0.9-0.2,1.8-0.5,2.6
		c-0.3,0.8-0.8,1.5-1.5,2.1c-0.7,0.6-1.4,1-2.4,1.4c-0.9,0.3-2,0.5-3.3,0.5c-1.4,0-2.7-0.2-3.8-0.7c-1.1-0.5-2.1-1-2.9-1.8l0.8-1.4
		c0.1-0.2,0.2-0.3,0.4-0.4c0.1-0.1,0.3-0.1,0.6-0.1c0.2,0,0.5,0.1,0.8,0.3c0.3,0.2,0.6,0.4,1,0.6c0.4,0.2,0.8,0.4,1.4,0.6
		c0.5,0.2,1.2,0.3,2,0.3c0.7,0,1.3-0.1,1.8-0.3c0.5-0.2,0.9-0.4,1.3-0.7c0.3-0.3,0.6-0.7,0.8-1.1c0.2-0.4,0.3-0.8,0.3-1.3
		c0-0.6-0.2-1-0.4-1.4c-0.3-0.4-0.7-0.7-1.2-0.9c-0.5-0.3-1.1-0.5-1.7-0.7c-0.6-0.2-1.3-0.4-1.9-0.6c-0.7-0.2-1.3-0.5-1.9-0.7
		c-0.6-0.3-1.2-0.6-1.7-1c-0.5-0.4-0.9-0.9-1.2-1.5c-0.3-0.6-0.4-1.3-0.4-2.2c0-0.8,0.2-1.5,0.5-2.2c0.3-0.7,0.8-1.3,1.4-1.9
		c0.6-0.5,1.4-1,2.3-1.3c0.9-0.3,1.9-0.5,3-0.5c1.3,0,2.5,0.2,3.6,0.6c1.1,0.4,2,1,2.7,1.7L766.7,370.3z"/>
	<path class="st0" d="M785.5,370.6c-0.1,0.1-0.2,0.3-0.3,0.3c-0.1,0.1-0.3,0.1-0.5,0.1c-0.2,0-0.4-0.1-0.6-0.2
		c-0.2-0.2-0.5-0.3-0.9-0.5c-0.4-0.2-0.8-0.4-1.3-0.5c-0.5-0.2-1.1-0.3-1.9-0.3c-1,0-1.9,0.2-2.6,0.5c-0.8,0.4-1.4,0.9-1.9,1.5
		c-0.5,0.7-0.9,1.5-1.2,2.4c-0.3,0.9-0.4,2-0.4,3.2c0,1.2,0.1,2.3,0.4,3.3c0.3,1,0.7,1.7,1.2,2.4c0.5,0.6,1.1,1.1,1.8,1.5
		c0.7,0.3,1.5,0.5,2.4,0.5c0.9,0,1.6-0.1,2.1-0.3c0.6-0.2,1-0.4,1.4-0.7c0.4-0.3,0.7-0.5,0.9-0.7c0.2-0.2,0.5-0.3,0.7-0.3
		c0.3,0,0.5,0.1,0.7,0.3l1,1.3c-0.9,1.1-2,1.9-3.3,2.4c-1.3,0.5-2.7,0.7-4.2,0.7c-1.3,0-2.4-0.2-3.5-0.7c-1.1-0.5-2-1.1-2.8-2
		c-0.8-0.9-1.4-2-1.9-3.3c-0.5-1.3-0.7-2.8-0.7-4.4c0-1.5,0.2-2.9,0.6-4.2c0.4-1.3,1-2.4,1.8-3.3c0.8-0.9,1.8-1.6,3-2.2
		c1.2-0.5,2.5-0.8,4.1-0.8c1.4,0,2.7,0.2,3.7,0.7c1.1,0.5,2.1,1.1,2.9,1.9L785.5,370.6z"/>
	<path class="st0" d="M797.5,366.7c1.2,0,2.3,0.2,3.3,0.6c1,0.4,1.9,1,2.7,1.8c0.7,0.8,1.3,1.7,1.7,2.8c0.4,1.1,0.6,2.4,0.6,3.8
		c0,0.6-0.1,0.9-0.2,1.1c-0.1,0.2-0.3,0.3-0.7,0.3h-13.4c0,1.3,0.2,2.4,0.5,3.3c0.3,0.9,0.8,1.7,1.3,2.4c0.6,0.6,1.2,1.1,2,1.4
		c0.8,0.3,1.6,0.5,2.6,0.5c0.9,0,1.7-0.1,2.3-0.3c0.6-0.2,1.2-0.4,1.7-0.7c0.5-0.2,0.9-0.5,1.2-0.7c0.3-0.2,0.6-0.3,0.8-0.3
		c0.3,0,0.5,0.1,0.7,0.3l1,1.3c-0.4,0.5-1,1-1.6,1.4c-0.6,0.4-1.3,0.7-2,1c-0.7,0.3-1.4,0.4-2.2,0.6c-0.7,0.1-1.5,0.2-2.2,0.2
		c-1.4,0-2.7-0.2-3.9-0.7c-1.2-0.5-2.2-1.2-3-2.1c-0.9-0.9-1.5-2-2-3.4c-0.5-1.3-0.7-2.9-0.7-4.6c0-1.4,0.2-2.7,0.6-3.9
		c0.4-1.2,1.1-2.3,1.9-3.2c0.8-0.9,1.8-1.6,3-2.1C794.7,366.9,796,366.7,797.5,366.7z M797.6,369.3c-1.7,0-3.1,0.5-4,1.5
		c-1,1-1.6,2.4-1.8,4.1h11c0-0.8-0.1-1.6-0.3-2.3c-0.2-0.7-0.6-1.3-1-1.8c-0.4-0.5-1-0.9-1.6-1.2
		C799.1,369.4,798.4,369.3,797.6,369.3z"/>
	<path class="st0" d="M824.4,387.2h-1.6c-0.3,0-0.6-0.1-0.8-0.2c-0.2-0.1-0.4-0.3-0.4-0.7l-0.4-1.9c-0.5,0.5-1.1,0.9-1.6,1.3
		c-0.5,0.4-1,0.7-1.6,1c-0.6,0.3-1.2,0.5-1.8,0.6c-0.6,0.1-1.3,0.2-2.1,0.2c-0.8,0-1.5-0.1-2.2-0.3c-0.7-0.2-1.3-0.5-1.8-1
		c-0.5-0.4-0.9-1-1.2-1.7c-0.3-0.7-0.4-1.5-0.4-2.4c0-0.8,0.2-1.6,0.7-2.3c0.4-0.7,1.1-1.4,2.1-2c1-0.6,2.3-1,3.8-1.4
		c1.6-0.4,3.5-0.5,5.8-0.5v-1.6c0-1.6-0.3-2.8-1-3.6c-0.7-0.8-1.7-1.2-3-1.2c-0.9,0-1.6,0.1-2.2,0.3c-0.6,0.2-1.1,0.5-1.5,0.7
		c-0.4,0.3-0.8,0.5-1.1,0.7c-0.3,0.2-0.6,0.3-0.9,0.3c-0.2,0-0.4-0.1-0.6-0.2c-0.2-0.1-0.3-0.3-0.4-0.5l-0.6-1.1
		c1.1-1.1,2.3-1.9,3.6-2.4c1.3-0.5,2.7-0.8,4.3-0.8c1.1,0,2.1,0.2,3,0.6c0.9,0.4,1.6,0.9,2.2,1.6c0.6,0.7,1.1,1.5,1.4,2.4
		c0.3,0.9,0.5,2,0.5,3.1V387.2z M815.2,385c0.6,0,1.2-0.1,1.7-0.2c0.5-0.1,1-0.3,1.5-0.5c0.5-0.2,0.9-0.5,1.3-0.8
		c0.4-0.3,0.8-0.7,1.2-1.1v-4.2c-1.6,0-3,0.1-4.2,0.3c-1.1,0.2-2.1,0.5-2.8,0.8c-0.7,0.3-1.2,0.7-1.6,1.2c-0.3,0.5-0.5,1-0.5,1.5
		c0,0.5,0.1,1,0.3,1.4c0.2,0.4,0.4,0.7,0.7,1c0.3,0.2,0.6,0.4,1,0.5C814.3,384.9,814.8,385,815.2,385z"/>
	<path class="st0" d="M829,387.2V367h2c0.4,0,0.7,0.1,0.8,0.2c0.1,0.1,0.2,0.4,0.3,0.8l0.2,3.1c0.7-1.4,1.5-2.5,2.6-3.3
		c1-0.8,2.2-1.2,3.6-1.2c0.6,0,1.1,0.1,1.5,0.2c0.5,0.1,0.9,0.3,1.3,0.5l-0.5,2.7c-0.1,0.3-0.3,0.5-0.6,0.5c-0.2,0-0.5-0.1-0.9-0.2
		c-0.4-0.1-0.9-0.2-1.6-0.2c-1.2,0-2.3,0.4-3.1,1.1c-0.8,0.7-1.5,1.8-2.1,3.1v12.9H829z"/>
	<path class="st0" d="M850.4,387.5c-1.6,0-2.8-0.4-3.7-1.3c-0.9-0.9-1.3-2.2-1.3-3.8V370H843c-0.2,0-0.4-0.1-0.5-0.2
		c-0.1-0.1-0.2-0.3-0.2-0.6v-1.4l3.3-0.4l0.8-6.2c0-0.2,0.1-0.4,0.3-0.5c0.1-0.1,0.3-0.2,0.6-0.2h1.8v7h5.8v2.6H849v12.1
		c0,0.9,0.2,1.5,0.6,1.9c0.4,0.4,0.9,0.6,1.6,0.6c0.4,0,0.7,0,1-0.1c0.3-0.1,0.5-0.2,0.7-0.3c0.2-0.1,0.4-0.2,0.5-0.3
		c0.1-0.1,0.3-0.1,0.4-0.1c0.2,0,0.4,0.1,0.5,0.3l1,1.7c-0.6,0.6-1.3,1-2.2,1.3C852.2,387.3,851.3,387.5,850.4,387.5z"/>
	<path class="st0" d="M883.4,358.6v3.1h-13.7v9.5h11.1v3h-11.1v9.7h13.7v3.1h-17.6v-28.6H883.4z M881.7,351.7l-5.9,4.3
		c-0.2,0.2-0.4,0.3-0.6,0.3c-0.2,0.1-0.4,0.1-0.7,0.1h-2.8l4.2-4c0.1-0.1,0.3-0.2,0.4-0.3c0.1-0.1,0.2-0.1,0.3-0.2
		c0.1-0.1,0.3-0.1,0.4-0.1c0.1,0,0.3,0,0.6,0H881.7z"/>
	<path class="st0" d="M892.4,360.6c0,0.3-0.1,0.7-0.2,1c-0.1,0.3-0.3,0.6-0.6,0.8c-0.2,0.2-0.5,0.4-0.8,0.5c-0.3,0.1-0.6,0.2-1,0.2
		c-0.3,0-0.7-0.1-1-0.2c-0.3-0.1-0.6-0.3-0.8-0.5c-0.2-0.2-0.4-0.5-0.5-0.8c-0.1-0.3-0.2-0.6-0.2-1s0.1-0.7,0.2-1
		c0.1-0.3,0.3-0.6,0.5-0.8c0.2-0.2,0.5-0.4,0.8-0.5c0.3-0.1,0.6-0.2,1-0.2c0.3,0,0.7,0.1,1,0.2c0.3,0.1,0.6,0.3,0.8,0.5
		c0.2,0.2,0.4,0.5,0.6,0.8C892.3,360,892.4,360.3,892.4,360.6z M891.6,367v20.2H888V367H891.6z"/>
	<path class="st0" d="M897,387.2V367h2c0.4,0,0.7,0.1,0.8,0.2c0.1,0.1,0.2,0.4,0.3,0.8l0.2,3.1c0.7-1.4,1.5-2.5,2.6-3.3
		c1-0.8,2.2-1.2,3.6-1.2c0.6,0,1.1,0.1,1.5,0.2c0.5,0.1,0.9,0.3,1.3,0.5l-0.5,2.7c-0.1,0.3-0.3,0.5-0.6,0.5c-0.2,0-0.5-0.1-0.9-0.2
		c-0.4-0.1-0.9-0.2-1.6-0.2c-1.2,0-2.3,0.4-3.1,1.1c-0.8,0.7-1.5,1.8-2.1,3.1v12.9H897z"/>
	<path class="st0" d="M920.3,366.7c1.2,0,2.3,0.2,3.3,0.6c1,0.4,1.9,1,2.7,1.8c0.7,0.8,1.3,1.7,1.7,2.8c0.4,1.1,0.6,2.4,0.6,3.8
		c0,0.6-0.1,0.9-0.2,1.1c-0.1,0.2-0.3,0.3-0.7,0.3h-13.4c0,1.3,0.2,2.4,0.5,3.3c0.3,0.9,0.8,1.7,1.3,2.4c0.6,0.6,1.2,1.1,2,1.4
		c0.8,0.3,1.6,0.5,2.6,0.5c0.9,0,1.7-0.1,2.3-0.3c0.6-0.2,1.2-0.4,1.7-0.7c0.5-0.2,0.9-0.5,1.2-0.7c0.3-0.2,0.6-0.3,0.8-0.3
		c0.3,0,0.5,0.1,0.7,0.3l1,1.3c-0.4,0.5-1,1-1.6,1.4c-0.6,0.4-1.3,0.7-2,1c-0.7,0.3-1.4,0.4-2.2,0.6c-0.7,0.1-1.5,0.2-2.2,0.2
		c-1.4,0-2.7-0.2-3.9-0.7c-1.2-0.5-2.2-1.2-3.1-2.1c-0.9-0.9-1.5-2-2-3.4c-0.5-1.3-0.7-2.9-0.7-4.6c0-1.4,0.2-2.7,0.6-3.9
		c0.4-1.2,1.1-2.3,1.9-3.2c0.8-0.9,1.8-1.6,3-2.1C917.5,366.9,918.8,366.7,920.3,366.7z M920.4,369.3c-1.7,0-3.1,0.5-4,1.5
		c-1,1-1.6,2.4-1.8,4.1h11c0-0.8-0.1-1.6-0.3-2.3c-0.2-0.7-0.6-1.3-1-1.8c-0.4-0.5-1-0.9-1.6-1.2
		C921.9,369.4,921.2,369.3,920.4,369.3z"/>
	<path class="st0" d="M947.2,387.2h-1.6c-0.3,0-0.6-0.1-0.8-0.2c-0.2-0.1-0.4-0.3-0.4-0.7l-0.4-1.9c-0.5,0.5-1,0.9-1.6,1.3
		c-0.5,0.4-1,0.7-1.6,1c-0.6,0.3-1.2,0.5-1.8,0.6c-0.6,0.1-1.3,0.2-2.1,0.2c-0.8,0-1.5-0.1-2.2-0.3c-0.7-0.2-1.3-0.5-1.8-1
		c-0.5-0.4-0.9-1-1.2-1.7c-0.3-0.7-0.4-1.5-0.4-2.4c0-0.8,0.2-1.6,0.7-2.3c0.4-0.7,1.1-1.4,2.1-2c1-0.6,2.3-1,3.8-1.4
		c1.6-0.4,3.5-0.5,5.8-0.5v-1.6c0-1.6-0.3-2.8-1-3.6c-0.7-0.8-1.7-1.2-3-1.2c-0.9,0-1.6,0.1-2.2,0.3c-0.6,0.2-1.1,0.5-1.5,0.7
		c-0.4,0.3-0.8,0.5-1.1,0.7c-0.3,0.2-0.6,0.3-0.9,0.3c-0.2,0-0.4-0.1-0.6-0.2c-0.2-0.1-0.3-0.3-0.4-0.5l-0.6-1.1
		c1.1-1.1,2.3-1.9,3.6-2.4c1.3-0.5,2.7-0.8,4.3-0.8c1.1,0,2.1,0.2,3,0.6c0.9,0.4,1.6,0.9,2.2,1.6c0.6,0.7,1,1.5,1.4,2.4
		c0.3,0.9,0.5,2,0.5,3.1V387.2z M938,385c0.6,0,1.2-0.1,1.7-0.2c0.5-0.1,1-0.3,1.5-0.5c0.5-0.2,0.9-0.5,1.3-0.8
		c0.4-0.3,0.8-0.7,1.2-1.1v-4.2c-1.6,0-3,0.1-4.2,0.3c-1.1,0.2-2.1,0.5-2.8,0.8c-0.7,0.3-1.2,0.7-1.6,1.2c-0.3,0.5-0.5,1-0.5,1.5
		c0,0.5,0.1,1,0.3,1.4c0.2,0.4,0.4,0.7,0.7,1c0.3,0.2,0.6,0.4,1,0.5C937.1,384.9,937.6,385,938,385z"/>
	<path class="st0" d="M951.8,387.2V367h2.1c0.5,0,0.8,0.2,1,0.7l0.3,2.2c0.9-1,1.9-1.8,2.9-2.4c1.1-0.6,2.3-0.9,3.8-0.9
		c1.1,0,2.1,0.2,2.9,0.5c0.8,0.4,1.5,0.9,2.1,1.6c0.6,0.7,1,1.5,1.3,2.4c0.3,0.9,0.4,2,0.4,3.1v12.9h-3.5v-12.9c0-1.5-0.3-2.7-1-3.6
		c-0.7-0.8-1.8-1.3-3.2-1.3c-1.1,0-2,0.3-2.9,0.8c-0.9,0.5-1.8,1.2-2.5,2.1v14.9H951.8z"/>
	<path class="st0" d="M973.2,387.2V367h2.1c0.5,0,0.8,0.2,1,0.7l0.3,2.2c0.9-1,1.9-1.8,2.9-2.4c1.1-0.6,2.3-0.9,3.8-0.9
		c1.1,0,2.1,0.2,2.9,0.5c0.8,0.4,1.5,0.9,2.1,1.6c0.6,0.7,1,1.5,1.3,2.4c0.3,0.9,0.4,2,0.4,3.1v12.9h-3.5v-12.9c0-1.5-0.3-2.7-1-3.6
		c-0.7-0.8-1.8-1.3-3.2-1.3c-1.1,0-2,0.3-2.9,0.8c-0.9,0.5-1.8,1.2-2.5,2.1v14.9H973.2z"/>
	<path class="st0" d="M386.3,410.5v12.9c0,1.5,0.4,2.7,1.1,3.5c0.7,0.8,1.8,1.3,3.2,1.3c1,0,2-0.2,2.9-0.7c0.9-0.5,1.8-1.2,2.5-2.1
		v-14.9h3.5v20.2h-2.1c-0.5,0-0.8-0.2-1-0.7l-0.3-2.2c-0.9,1-1.9,1.8-3,2.3c-1.1,0.6-2.3,0.9-3.7,0.9c-1.1,0-2.1-0.2-2.9-0.5
		c-0.8-0.4-1.6-0.9-2.1-1.5c-0.6-0.7-1-1.5-1.3-2.4c-0.3-0.9-0.4-2-0.4-3.1v-12.9H386.3z"/>
	<path class="st0" d="M404.6,430.7v-20.2h2.1c0.5,0,0.8,0.2,1,0.7l0.3,2.1c0.7-0.9,1.6-1.7,2.5-2.3c0.9-0.6,2-0.9,3.2-0.9
		c1.4,0,2.5,0.4,3.3,1.1c0.8,0.8,1.5,1.8,1.8,3.1c0.3-0.7,0.6-1.4,1.1-1.9c0.5-0.5,1-1,1.5-1.3c0.6-0.3,1.2-0.6,1.8-0.8
		c0.6-0.2,1.3-0.2,2-0.2c1.1,0,2,0.2,2.8,0.5c0.8,0.3,1.5,0.8,2.1,1.5c0.6,0.7,1,1.5,1.3,2.4c0.3,1,0.5,2,0.5,3.3v12.9h-3.5v-12.9
		c0-1.6-0.3-2.8-1-3.6c-0.7-0.8-1.7-1.2-3-1.2c-0.6,0-1.1,0.1-1.7,0.3c-0.5,0.2-1,0.5-1.4,0.9c-0.4,0.4-0.7,0.9-0.9,1.5
		c-0.2,0.6-0.3,1.3-0.3,2.1v12.9h-3.5v-12.9c0-1.6-0.3-2.8-1-3.6c-0.7-0.8-1.6-1.2-2.9-1.2c-0.9,0-1.7,0.2-2.4,0.7
		c-0.8,0.5-1.4,1.1-2.1,1.9v15H404.6z"/>
	<path class="st0" d="M458.6,406.6c-0.1,0.2-0.2,0.3-0.4,0.4c-0.1,0.1-0.3,0.1-0.5,0.1c-0.2,0-0.5-0.1-0.8-0.3
		c-0.3-0.2-0.7-0.5-1.1-0.7c-0.5-0.3-1-0.5-1.7-0.7c-0.6-0.2-1.4-0.3-2.3-0.3c-0.9,0-1.6,0.1-2.3,0.3c-0.7,0.2-1.2,0.5-1.7,0.9
		c-0.4,0.4-0.8,0.9-1,1.4c-0.2,0.5-0.3,1.1-0.3,1.7c0,0.8,0.2,1.5,0.6,2c0.4,0.5,0.9,1,1.6,1.3c0.6,0.4,1.4,0.7,2.2,1
		c0.8,0.3,1.7,0.6,2.5,0.8c0.9,0.3,1.7,0.6,2.5,1c0.8,0.4,1.5,0.8,2.2,1.4c0.6,0.6,1.2,1.2,1.6,2.1c0.4,0.8,0.6,1.8,0.6,3
		c0,1.2-0.2,2.4-0.6,3.5c-0.4,1.1-1,2-1.9,2.9c-0.8,0.8-1.8,1.4-3,1.9c-1.2,0.5-2.5,0.7-4.1,0.7c-1.8,0-3.5-0.3-5.1-1
		c-1.5-0.7-2.8-1.6-3.9-2.7l1.1-1.8c0.1-0.1,0.2-0.3,0.4-0.4c0.2-0.1,0.3-0.1,0.5-0.1c0.3,0,0.6,0.1,1,0.4c0.4,0.3,0.8,0.6,1.3,1
		c0.5,0.4,1.2,0.7,2,1c0.8,0.3,1.7,0.4,2.8,0.4c0.9,0,1.7-0.1,2.5-0.4c0.7-0.3,1.3-0.6,1.8-1.1c0.5-0.5,0.9-1,1.1-1.6
		c0.3-0.6,0.4-1.3,0.4-2.1c0-0.9-0.2-1.6-0.6-2.1c-0.4-0.6-0.9-1-1.5-1.4c-0.6-0.4-1.4-0.7-2.2-0.9c-0.8-0.3-1.7-0.5-2.5-0.8
		c-0.9-0.3-1.7-0.6-2.5-0.9c-0.8-0.4-1.5-0.8-2.2-1.4c-0.6-0.6-1.2-1.3-1.5-2.1c-0.4-0.9-0.6-1.9-0.6-3.2c0-1,0.2-2,0.6-2.9
		c0.4-0.9,1-1.8,1.7-2.5c0.7-0.7,1.7-1.3,2.8-1.8c1.1-0.4,2.4-0.7,3.8-0.7c1.6,0,3.1,0.3,4.4,0.8c1.3,0.5,2.5,1.2,3.4,2.2
		L458.6,406.6z"/>
	<path class="st0" d="M469.9,431c-1.6,0-2.8-0.4-3.7-1.3c-0.9-0.9-1.3-2.2-1.3-3.8v-12.4h-2.4c-0.2,0-0.4-0.1-0.5-0.2
		c-0.1-0.1-0.2-0.3-0.2-0.6v-1.4l3.3-0.4l0.8-6.2c0-0.2,0.1-0.4,0.3-0.5c0.1-0.1,0.3-0.2,0.6-0.2h1.8v7h5.8v2.6h-5.8v12.1
		c0,0.9,0.2,1.5,0.6,1.9c0.4,0.4,0.9,0.6,1.6,0.6c0.4,0,0.7,0,1-0.1c0.3-0.1,0.5-0.2,0.7-0.3c0.2-0.1,0.4-0.2,0.5-0.3
		c0.1-0.1,0.3-0.1,0.4-0.1c0.2,0,0.4,0.1,0.5,0.3l1,1.7c-0.6,0.6-1.3,1-2.2,1.3C471.7,430.8,470.8,431,469.9,431z"/>
	<path class="st0" d="M492.7,430.7h-1.6c-0.3,0-0.6-0.1-0.8-0.2c-0.2-0.1-0.4-0.3-0.4-0.7l-0.4-1.9c-0.5,0.5-1,0.9-1.6,1.3
		c-0.5,0.4-1,0.7-1.6,1c-0.6,0.3-1.2,0.5-1.8,0.6c-0.6,0.1-1.3,0.2-2.1,0.2c-0.8,0-1.5-0.1-2.2-0.3c-0.7-0.2-1.3-0.5-1.8-1
		c-0.5-0.4-0.9-1-1.2-1.7c-0.3-0.7-0.4-1.5-0.4-2.4c0-0.8,0.2-1.6,0.7-2.3c0.4-0.7,1.1-1.4,2.1-2c1-0.6,2.3-1,3.8-1.4
		c1.6-0.4,3.5-0.5,5.8-0.5v-1.6c0-1.6-0.3-2.8-1-3.6c-0.7-0.8-1.7-1.2-3-1.2c-0.9,0-1.6,0.1-2.2,0.3c-0.6,0.2-1.1,0.5-1.5,0.7
		c-0.4,0.3-0.8,0.5-1.1,0.7c-0.3,0.2-0.6,0.3-0.9,0.3c-0.2,0-0.4-0.1-0.6-0.2c-0.2-0.1-0.3-0.3-0.4-0.5l-0.6-1.1
		c1.1-1.1,2.3-1.9,3.6-2.4c1.3-0.5,2.7-0.8,4.3-0.8c1.1,0,2.1,0.2,3,0.6c0.9,0.4,1.6,0.9,2.2,1.6c0.6,0.7,1,1.5,1.4,2.4
		c0.3,0.9,0.5,2,0.5,3.1V430.7z M483.5,428.5c0.6,0,1.2-0.1,1.7-0.2c0.5-0.1,1-0.3,1.5-0.5c0.5-0.2,0.9-0.5,1.3-0.8
		c0.4-0.3,0.8-0.7,1.2-1.1v-4.2c-1.6,0-3,0.1-4.2,0.3c-1.1,0.2-2.1,0.5-2.8,0.8c-0.7,0.3-1.2,0.7-1.6,1.2c-0.3,0.5-0.5,1-0.5,1.5
		c0,0.5,0.1,1,0.3,1.4c0.2,0.4,0.4,0.7,0.7,1c0.3,0.2,0.6,0.4,1,0.5C482.6,428.4,483,428.5,483.5,428.5z"/>
	<path class="st0" d="M502,404.1c0,0.3-0.1,0.7-0.2,1c-0.1,0.3-0.3,0.6-0.6,0.8c-0.2,0.2-0.5,0.4-0.8,0.5c-0.3,0.1-0.6,0.2-1,0.2
		c-0.3,0-0.7-0.1-1-0.2c-0.3-0.1-0.6-0.3-0.8-0.5c-0.2-0.2-0.4-0.5-0.5-0.8c-0.1-0.3-0.2-0.6-0.2-1s0.1-0.7,0.2-1
		c0.1-0.3,0.3-0.6,0.5-0.8c0.2-0.2,0.5-0.4,0.8-0.5c0.3-0.1,0.6-0.2,1-0.2c0.3,0,0.7,0.1,1,0.2c0.3,0.1,0.6,0.3,0.8,0.5
		c0.2,0.2,0.4,0.5,0.6,0.8C501.9,403.5,502,403.8,502,404.1z M501.2,410.5v20.2h-3.5v-20.2H501.2z"/>
	<path class="st0" d="M512.8,431c-1.6,0-2.8-0.4-3.7-1.3c-0.9-0.9-1.3-2.2-1.3-3.8v-12.4h-2.4c-0.2,0-0.4-0.1-0.5-0.2
		c-0.1-0.1-0.2-0.3-0.2-0.6v-1.4l3.3-0.4l0.8-6.2c0-0.2,0.1-0.4,0.3-0.5c0.1-0.1,0.3-0.2,0.6-0.2h1.8v7h5.8v2.6h-5.8v12.1
		c0,0.9,0.2,1.5,0.6,1.9s0.9,0.6,1.6,0.6c0.4,0,0.7,0,1-0.1c0.3-0.1,0.5-0.2,0.7-0.3c0.2-0.1,0.4-0.2,0.5-0.3
		c0.1-0.1,0.3-0.1,0.4-0.1c0.2,0,0.4,0.1,0.5,0.3l1,1.7c-0.6,0.6-1.3,1-2.2,1.3C514.6,430.8,513.7,431,512.8,431z"/>
	<path class="st0" d="M525.5,404.1c0,0.3-0.1,0.7-0.2,1c-0.1,0.3-0.3,0.6-0.6,0.8c-0.2,0.2-0.5,0.4-0.8,0.5c-0.3,0.1-0.6,0.2-1,0.2
		s-0.7-0.1-1-0.2c-0.3-0.1-0.6-0.3-0.8-0.5c-0.2-0.2-0.4-0.5-0.5-0.8c-0.1-0.3-0.2-0.6-0.2-1s0.1-0.7,0.2-1c0.1-0.3,0.3-0.6,0.5-0.8
		c0.2-0.2,0.5-0.4,0.8-0.5c0.3-0.1,0.6-0.2,1-0.2s0.7,0.1,1,0.2c0.3,0.1,0.6,0.3,0.8,0.5c0.2,0.2,0.4,0.5,0.6,0.8
		C525.4,403.5,525.5,403.8,525.5,404.1z M524.7,410.5v20.2h-3.5v-20.2H524.7z"/>
	<path class="st0" d="M541.7,413.8c-0.2,0.3-0.4,0.4-0.7,0.4c-0.2,0-0.4-0.1-0.7-0.2c-0.3-0.1-0.6-0.3-0.9-0.5
		c-0.4-0.2-0.8-0.3-1.3-0.5c-0.5-0.2-1.1-0.2-1.8-0.2c-0.6,0-1.1,0.1-1.6,0.2c-0.5,0.2-0.9,0.4-1.2,0.6c-0.3,0.3-0.6,0.6-0.8,0.9
		c-0.2,0.4-0.3,0.7-0.3,1.1c0,0.5,0.1,1,0.4,1.3c0.3,0.3,0.7,0.6,1.2,0.9c0.5,0.3,1,0.5,1.7,0.7c0.6,0.2,1.3,0.4,1.9,0.6
		c0.7,0.2,1.3,0.5,1.9,0.7c0.6,0.3,1.2,0.6,1.7,1c0.5,0.4,0.9,0.9,1.2,1.5c0.3,0.6,0.4,1.3,0.4,2.1c0,0.9-0.2,1.8-0.5,2.6
		c-0.3,0.8-0.8,1.5-1.5,2.1c-0.7,0.6-1.4,1-2.4,1.4c-0.9,0.3-2,0.5-3.3,0.5c-1.4,0-2.7-0.2-3.8-0.7c-1.1-0.5-2.1-1-2.9-1.8l0.8-1.4
		c0.1-0.2,0.2-0.3,0.4-0.4c0.1-0.1,0.3-0.1,0.6-0.1c0.2,0,0.5,0.1,0.8,0.3c0.3,0.2,0.6,0.4,1,0.6c0.4,0.2,0.8,0.4,1.4,0.6
		c0.5,0.2,1.2,0.3,2,0.3c0.7,0,1.3-0.1,1.8-0.3c0.5-0.2,0.9-0.4,1.3-0.7c0.3-0.3,0.6-0.7,0.8-1.1c0.2-0.4,0.3-0.8,0.3-1.3
		c0-0.6-0.2-1-0.4-1.4c-0.3-0.4-0.7-0.7-1.2-0.9c-0.5-0.3-1.1-0.5-1.7-0.7c-0.6-0.2-1.3-0.4-1.9-0.6c-0.7-0.2-1.3-0.5-1.9-0.7
		c-0.6-0.3-1.2-0.6-1.7-1c-0.5-0.4-0.9-0.9-1.2-1.5c-0.3-0.6-0.4-1.3-0.4-2.2c0-0.8,0.2-1.5,0.5-2.2c0.3-0.7,0.8-1.3,1.4-1.9
		c0.6-0.5,1.4-1,2.3-1.3c0.9-0.3,1.9-0.5,3-0.5c1.3,0,2.5,0.2,3.6,0.6c1.1,0.4,2,1,2.7,1.7L541.7,413.8z"/>
	<path class="st0" d="M552.8,431c-1.6,0-2.8-0.4-3.7-1.3c-0.9-0.9-1.3-2.2-1.3-3.8v-12.4h-2.4c-0.2,0-0.4-0.1-0.5-0.2
		c-0.1-0.1-0.2-0.3-0.2-0.6v-1.4l3.3-0.4l0.8-6.2c0-0.2,0.1-0.4,0.3-0.5c0.1-0.1,0.3-0.2,0.6-0.2h1.8v7h5.8v2.6h-5.8v12.1
		c0,0.9,0.2,1.5,0.6,1.9c0.4,0.4,0.9,0.6,1.6,0.6c0.4,0,0.7,0,1-0.1c0.3-0.1,0.5-0.2,0.7-0.3c0.2-0.1,0.4-0.2,0.5-0.3
		c0.1-0.1,0.3-0.1,0.4-0.1c0.2,0,0.4,0.1,0.5,0.3l1,1.7c-0.6,0.6-1.3,1-2.2,1.3C554.6,430.8,553.7,431,552.8,431z"/>
	<path class="st0" d="M565.5,404.1c0,0.3-0.1,0.7-0.2,1c-0.1,0.3-0.3,0.6-0.6,0.8c-0.2,0.2-0.5,0.4-0.8,0.5c-0.3,0.1-0.6,0.2-1,0.2
		s-0.7-0.1-1-0.2c-0.3-0.1-0.6-0.3-0.8-0.5c-0.2-0.2-0.4-0.5-0.5-0.8c-0.1-0.3-0.2-0.6-0.2-1s0.1-0.7,0.2-1c0.1-0.3,0.3-0.6,0.5-0.8
		c0.2-0.2,0.5-0.4,0.8-0.5c0.3-0.1,0.6-0.2,1-0.2s0.7,0.1,1,0.2c0.3,0.1,0.6,0.3,0.8,0.5c0.2,0.2,0.4,0.5,0.6,0.8
		C565.4,403.5,565.5,403.8,565.5,404.1z M564.7,410.5v20.2h-3.5v-20.2H564.7z"/>
	<path class="st0" d="M583.9,414.1c-0.1,0.1-0.2,0.3-0.3,0.3c-0.1,0.1-0.3,0.1-0.5,0.1c-0.2,0-0.4-0.1-0.6-0.2
		c-0.2-0.2-0.5-0.3-0.9-0.5c-0.4-0.2-0.8-0.4-1.3-0.5c-0.5-0.2-1.1-0.3-1.9-0.3c-1,0-1.9,0.2-2.6,0.5c-0.8,0.4-1.4,0.9-1.9,1.5
		c-0.5,0.7-0.9,1.5-1.2,2.4c-0.3,0.9-0.4,2-0.4,3.2c0,1.2,0.1,2.3,0.4,3.3s0.7,1.7,1.2,2.4c0.5,0.6,1.1,1.1,1.8,1.5
		c0.7,0.3,1.5,0.5,2.4,0.5c0.9,0,1.6-0.1,2.1-0.3c0.6-0.2,1-0.4,1.4-0.7c0.4-0.3,0.7-0.5,0.9-0.7c0.2-0.2,0.5-0.3,0.7-0.3
		c0.3,0,0.5,0.1,0.7,0.3l1,1.3c-0.9,1.1-2,1.9-3.3,2.4c-1.3,0.5-2.7,0.7-4.2,0.7c-1.3,0-2.4-0.2-3.5-0.7c-1.1-0.5-2-1.1-2.8-2
		c-0.8-0.9-1.4-2-1.9-3.3c-0.5-1.3-0.7-2.8-0.7-4.4c0-1.5,0.2-2.9,0.6-4.2c0.4-1.3,1-2.4,1.8-3.3c0.8-0.9,1.8-1.6,3-2.2
		c1.2-0.5,2.5-0.8,4.1-0.8c1.4,0,2.7,0.2,3.7,0.7c1.1,0.5,2.1,1.1,2.9,1.9L583.9,414.1z"/>
	<path class="st0" d="M596,401.8l-4.6,5.1c-0.2,0.2-0.4,0.3-0.5,0.4c-0.2,0.1-0.4,0.1-0.7,0.1H588l2.9-4.8c0.2-0.3,0.4-0.5,0.6-0.7
		c0.2-0.1,0.5-0.2,1-0.2H596z M591.9,410.5v20.2h-3.5v-20.2H591.9z"/>
	<path class="st0" d="M619.1,430.7h-1.6c-0.3,0-0.6-0.1-0.8-0.2c-0.2-0.1-0.4-0.3-0.4-0.7l-0.4-1.9c-0.5,0.5-1,0.9-1.6,1.3
		c-0.5,0.4-1,0.7-1.6,1c-0.6,0.3-1.2,0.5-1.8,0.6c-0.6,0.1-1.3,0.2-2.1,0.2c-0.8,0-1.5-0.1-2.2-0.3c-0.7-0.2-1.3-0.5-1.8-1
		c-0.5-0.4-0.9-1-1.2-1.7c-0.3-0.7-0.4-1.5-0.4-2.4c0-0.8,0.2-1.6,0.7-2.3c0.4-0.7,1.1-1.4,2.1-2c1-0.6,2.3-1,3.8-1.4
		c1.6-0.4,3.5-0.5,5.8-0.5v-1.6c0-1.6-0.3-2.8-1-3.6c-0.7-0.8-1.7-1.2-3-1.2c-0.9,0-1.6,0.1-2.2,0.3c-0.6,0.2-1.1,0.5-1.5,0.7
		c-0.4,0.3-0.8,0.5-1.1,0.7c-0.3,0.2-0.6,0.3-0.9,0.3c-0.2,0-0.4-0.1-0.6-0.2c-0.2-0.1-0.3-0.3-0.4-0.5l-0.6-1.1
		c1.1-1.1,2.3-1.9,3.6-2.4c1.3-0.5,2.7-0.8,4.3-0.8c1.1,0,2.1,0.2,3,0.6c0.9,0.4,1.6,0.9,2.2,1.6c0.6,0.7,1,1.5,1.4,2.4
		c0.3,0.9,0.5,2,0.5,3.1V430.7z M609.9,428.5c0.6,0,1.2-0.1,1.7-0.2c0.5-0.1,1-0.3,1.5-0.5c0.5-0.2,0.9-0.5,1.3-0.8
		c0.4-0.3,0.8-0.7,1.2-1.1v-4.2c-1.6,0-3,0.1-4.2,0.3c-1.1,0.2-2.1,0.5-2.8,0.8c-0.7,0.3-1.2,0.7-1.6,1.2c-0.3,0.5-0.5,1-0.5,1.5
		c0,0.5,0.1,1,0.3,1.4c0.2,0.4,0.4,0.7,0.7,1c0.3,0.2,0.6,0.4,1,0.5C609,428.4,609.4,428.5,609.9,428.5z"/>
	<path class="st0" d="M630.5,410.1c0.9,0,1.7,0.1,2.5,0.3c0.8,0.2,1.5,0.5,2.1,0.8h5.5v1.3c0,0.4-0.3,0.7-0.8,0.8l-2.3,0.3
		c0.5,0.9,0.7,1.8,0.7,2.9c0,1-0.2,1.9-0.6,2.7c-0.4,0.8-0.9,1.5-1.6,2.1c-0.7,0.6-1.5,1-2.4,1.3c-0.9,0.3-1.9,0.5-3,0.5
		c-0.9,0-1.8-0.1-2.7-0.3c-0.4,0.3-0.7,0.6-1,0.9c-0.2,0.3-0.3,0.6-0.3,0.9c0,0.5,0.2,0.9,0.6,1.1c0.4,0.3,0.9,0.4,1.5,0.5
		c0.6,0.1,1.4,0.2,2.2,0.2c0.8,0,1.6,0,2.5,0c0.8,0,1.7,0.1,2.5,0.2c0.8,0.1,1.5,0.4,2.2,0.7c0.6,0.3,1.2,0.8,1.5,1.4
		c0.4,0.6,0.6,1.4,0.6,2.3c0,0.9-0.2,1.7-0.6,2.5c-0.4,0.8-1.1,1.6-1.9,2.2c-0.8,0.6-1.8,1.2-3,1.5c-1.2,0.4-2.5,0.6-4,0.6
		c-1.5,0-2.8-0.1-3.9-0.4c-1.1-0.3-2-0.7-2.8-1.2c-0.7-0.5-1.3-1.1-1.6-1.7c-0.4-0.6-0.5-1.3-0.5-2c0-1,0.3-1.8,0.9-2.5
		c0.6-0.7,1.5-1.3,2.6-1.7c-0.6-0.3-1-0.6-1.4-1.1c-0.3-0.4-0.5-1-0.5-1.8c0-0.3,0.1-0.6,0.2-0.9c0.1-0.3,0.3-0.6,0.5-0.9
		c0.2-0.3,0.5-0.6,0.8-0.9c0.3-0.3,0.7-0.5,1.1-0.7c-1-0.6-1.8-1.3-2.3-2.2c-0.6-0.9-0.8-2-0.8-3.2c0-1,0.2-1.9,0.6-2.7
		c0.4-0.8,0.9-1.5,1.6-2.1c0.7-0.6,1.5-1,2.4-1.3C628.3,410.3,629.3,410.1,630.5,410.1z M636.8,431.7c0-0.5-0.1-0.9-0.4-1.2
		s-0.7-0.6-1.1-0.7c-0.5-0.2-1-0.3-1.7-0.4c-0.6-0.1-1.3-0.1-2-0.1c-0.7,0-1.4,0-2.1,0c-0.7,0-1.4-0.1-2.1-0.3
		c-0.8,0.4-1.4,0.8-1.8,1.3c-0.5,0.5-0.7,1.1-0.7,1.9c0,0.5,0.1,0.9,0.3,1.3c0.2,0.4,0.6,0.7,1.1,1c0.5,0.3,1.1,0.5,1.8,0.7
		c0.7,0.2,1.6,0.2,2.6,0.2c1,0,1.8-0.1,2.6-0.3c0.8-0.2,1.4-0.4,1.9-0.8c0.5-0.3,0.9-0.7,1.2-1.2
		C636.6,432.7,636.8,432.2,636.8,431.7z M630.5,420.8c0.7,0,1.4-0.1,1.9-0.3c0.6-0.2,1-0.5,1.4-0.8c0.4-0.4,0.7-0.8,0.8-1.3
		c0.2-0.5,0.3-1,0.3-1.6c0-1.2-0.4-2.2-1.1-3c-0.8-0.7-1.8-1.1-3.3-1.1c-1.4,0-2.5,0.4-3.3,1.1c-0.8,0.7-1.1,1.7-1.1,3
		c0,0.6,0.1,1.1,0.3,1.6c0.2,0.5,0.5,0.9,0.8,1.3c0.4,0.4,0.8,0.6,1.4,0.8C629.1,420.7,629.8,420.8,630.5,420.8z"/>
	<path class="st0" d="M646.3,410.5v12.9c0,1.5,0.4,2.7,1.1,3.5c0.7,0.8,1.8,1.3,3.2,1.3c1,0,2-0.2,2.9-0.7c0.9-0.5,1.8-1.2,2.5-2.1
		v-14.9h3.5v20.2h-2.1c-0.5,0-0.8-0.2-1-0.7l-0.3-2.2c-0.9,1-1.9,1.8-2.9,2.3c-1.1,0.6-2.3,0.9-3.7,0.9c-1.1,0-2.1-0.2-2.9-0.5
		c-0.8-0.4-1.6-0.9-2.1-1.5c-0.6-0.7-1-1.5-1.3-2.4c-0.3-0.9-0.4-2-0.4-3.1v-12.9H646.3z"/>
	<path class="st0" d="M676.2,413.8c-0.2,0.3-0.4,0.4-0.7,0.4c-0.2,0-0.4-0.1-0.7-0.2c-0.3-0.1-0.6-0.3-0.9-0.5
		c-0.4-0.2-0.8-0.3-1.3-0.5c-0.5-0.2-1.1-0.2-1.8-0.2c-0.6,0-1.1,0.1-1.6,0.2c-0.5,0.2-0.9,0.4-1.2,0.6c-0.3,0.3-0.6,0.6-0.8,0.9
		c-0.2,0.4-0.3,0.7-0.3,1.1c0,0.5,0.1,1,0.4,1.3c0.3,0.3,0.7,0.6,1.2,0.9c0.5,0.3,1,0.5,1.7,0.7c0.6,0.2,1.3,0.4,1.9,0.6
		c0.7,0.2,1.3,0.5,1.9,0.7c0.6,0.3,1.2,0.6,1.7,1c0.5,0.4,0.9,0.9,1.2,1.5c0.3,0.6,0.4,1.3,0.4,2.1c0,0.9-0.2,1.8-0.5,2.6
		c-0.3,0.8-0.8,1.5-1.5,2.1c-0.7,0.6-1.4,1-2.4,1.4c-0.9,0.3-2,0.5-3.3,0.5c-1.4,0-2.7-0.2-3.8-0.7c-1.1-0.5-2.1-1-2.9-1.8l0.8-1.4
		c0.1-0.2,0.2-0.3,0.4-0.4c0.1-0.1,0.3-0.1,0.6-0.1c0.2,0,0.5,0.1,0.8,0.3c0.3,0.2,0.6,0.4,1,0.6c0.4,0.2,0.8,0.4,1.4,0.6
		c0.5,0.2,1.2,0.3,2,0.3c0.7,0,1.3-0.1,1.8-0.3c0.5-0.2,0.9-0.4,1.3-0.7c0.3-0.3,0.6-0.7,0.8-1.1c0.2-0.4,0.3-0.8,0.3-1.3
		c0-0.6-0.2-1-0.4-1.4c-0.3-0.4-0.7-0.7-1.2-0.9c-0.5-0.3-1.1-0.5-1.7-0.7c-0.6-0.2-1.3-0.4-1.9-0.6c-0.7-0.2-1.3-0.5-1.9-0.7
		c-0.6-0.3-1.2-0.6-1.7-1c-0.5-0.4-0.9-0.9-1.2-1.5c-0.3-0.6-0.4-1.3-0.4-2.2c0-0.8,0.2-1.5,0.5-2.2c0.3-0.7,0.8-1.3,1.4-1.9
		c0.6-0.5,1.4-1,2.3-1.3c0.9-0.3,1.9-0.5,3-0.5c1.3,0,2.5,0.2,3.6,0.6c1.1,0.4,2,1,2.7,1.7L676.2,413.8z"/>
	<path class="st0" d="M708,402.1v3.2h-9.2v25.3h-3.9v-25.3h-9.3v-3.2H708z"/>
	<path class="st0" d="M720.6,430.7H719c-0.3,0-0.6-0.1-0.8-0.2c-0.2-0.1-0.4-0.3-0.4-0.7l-0.4-1.9c-0.5,0.5-1.1,0.9-1.6,1.3
		c-0.5,0.4-1,0.7-1.6,1c-0.6,0.3-1.2,0.5-1.8,0.6c-0.6,0.1-1.3,0.2-2.1,0.2c-0.8,0-1.5-0.1-2.2-0.3c-0.7-0.2-1.3-0.5-1.8-1
		c-0.5-0.4-0.9-1-1.2-1.7c-0.3-0.7-0.4-1.5-0.4-2.4c0-0.8,0.2-1.6,0.7-2.3c0.4-0.7,1.1-1.4,2.1-2c1-0.6,2.3-1,3.8-1.4
		c1.6-0.4,3.5-0.5,5.8-0.5v-1.6c0-1.6-0.3-2.8-1-3.6c-0.7-0.8-1.7-1.2-3-1.2c-0.9,0-1.6,0.1-2.2,0.3c-0.6,0.2-1.1,0.5-1.5,0.7
		c-0.4,0.3-0.8,0.5-1.1,0.7c-0.3,0.2-0.6,0.3-0.9,0.3c-0.2,0-0.4-0.1-0.6-0.2c-0.2-0.1-0.3-0.3-0.4-0.5l-0.6-1.1
		c1.1-1.1,2.3-1.9,3.6-2.4c1.3-0.5,2.7-0.8,4.3-0.8c1.1,0,2.1,0.2,3,0.6c0.9,0.4,1.6,0.9,2.2,1.6c0.6,0.7,1.1,1.5,1.4,2.4
		c0.3,0.9,0.5,2,0.5,3.1V430.7z M711.4,428.5c0.6,0,1.2-0.1,1.7-0.2c0.5-0.1,1-0.3,1.5-0.5c0.5-0.2,0.9-0.5,1.3-0.8
		c0.4-0.3,0.8-0.7,1.2-1.1v-4.2c-1.6,0-3,0.1-4.2,0.3c-1.1,0.2-2.1,0.5-2.8,0.8c-0.7,0.3-1.2,0.7-1.6,1.2c-0.3,0.5-0.5,1-0.5,1.5
		c0,0.5,0.1,1,0.3,1.4c0.2,0.4,0.4,0.7,0.7,1c0.3,0.2,0.6,0.4,1,0.5C710.5,428.4,710.9,428.5,711.4,428.5z"/>
	<path class="st0" d="M729.9,404.1c0,0.3-0.1,0.7-0.2,1c-0.1,0.3-0.3,0.6-0.6,0.8c-0.2,0.2-0.5,0.4-0.8,0.5c-0.3,0.1-0.6,0.2-1,0.2
		c-0.3,0-0.7-0.1-1-0.2c-0.3-0.1-0.6-0.3-0.8-0.5c-0.2-0.2-0.4-0.5-0.5-0.8c-0.1-0.3-0.2-0.6-0.2-1s0.1-0.7,0.2-1
		c0.1-0.3,0.3-0.6,0.5-0.8c0.2-0.2,0.5-0.4,0.8-0.5c0.3-0.1,0.6-0.2,1-0.2c0.3,0,0.7,0.1,1,0.2c0.3,0.1,0.6,0.3,0.8,0.5
		c0.2,0.2,0.4,0.5,0.6,0.8C729.8,403.5,729.9,403.8,729.9,404.1z M729.1,410.5v20.2h-3.5v-20.2H729.1z"/>
	<path class="st0" d="M741.4,410.1c0.9,0,1.7,0.1,2.5,0.3c0.8,0.2,1.5,0.5,2.1,0.8h5.5v1.3c0,0.4-0.3,0.7-0.8,0.8l-2.3,0.3
		c0.5,0.9,0.7,1.8,0.7,2.9c0,1-0.2,1.9-0.6,2.7c-0.4,0.8-0.9,1.5-1.6,2.1c-0.7,0.6-1.5,1-2.4,1.3c-0.9,0.3-1.9,0.5-3,0.5
		c-0.9,0-1.8-0.1-2.7-0.3c-0.4,0.3-0.7,0.6-1,0.9c-0.2,0.3-0.3,0.6-0.3,0.9c0,0.5,0.2,0.9,0.6,1.1c0.4,0.3,0.9,0.4,1.5,0.5
		c0.6,0.1,1.4,0.2,2.2,0.2c0.8,0,1.6,0,2.5,0c0.8,0,1.7,0.1,2.5,0.2c0.8,0.1,1.5,0.4,2.2,0.7c0.6,0.3,1.1,0.8,1.5,1.4
		c0.4,0.6,0.6,1.4,0.6,2.3c0,0.9-0.2,1.7-0.6,2.5c-0.4,0.8-1.1,1.6-1.9,2.2c-0.8,0.6-1.8,1.2-3,1.5c-1.2,0.4-2.5,0.6-4,0.6
		c-1.5,0-2.8-0.1-3.9-0.4c-1.1-0.3-2-0.7-2.8-1.2c-0.7-0.5-1.3-1.1-1.6-1.7c-0.4-0.6-0.5-1.3-0.5-2c0-1,0.3-1.8,0.9-2.5
		c0.6-0.7,1.5-1.3,2.6-1.7c-0.6-0.3-1-0.6-1.4-1.1c-0.3-0.4-0.5-1-0.5-1.8c0-0.3,0.1-0.6,0.2-0.9c0.1-0.3,0.3-0.6,0.5-0.9
		c0.2-0.3,0.5-0.6,0.8-0.9c0.3-0.3,0.7-0.5,1.1-0.7c-1-0.6-1.8-1.3-2.3-2.2c-0.6-0.9-0.8-2-0.8-3.2c0-1,0.2-1.9,0.6-2.7
		c0.4-0.8,0.9-1.5,1.6-2.1c0.7-0.6,1.5-1,2.4-1.3C739.2,410.3,740.3,410.1,741.4,410.1z M747.7,431.7c0-0.5-0.1-0.9-0.4-1.2
		c-0.3-0.3-0.7-0.6-1.1-0.7c-0.5-0.2-1-0.3-1.7-0.4c-0.6-0.1-1.3-0.1-2-0.1c-0.7,0-1.4,0-2.1,0c-0.7,0-1.4-0.1-2.1-0.3
		c-0.8,0.4-1.4,0.8-1.8,1.3c-0.5,0.5-0.7,1.1-0.7,1.9c0,0.5,0.1,0.9,0.3,1.3c0.2,0.4,0.6,0.7,1.1,1c0.5,0.3,1.1,0.5,1.8,0.7
		c0.7,0.2,1.6,0.2,2.6,0.2c1,0,1.8-0.1,2.6-0.3c0.8-0.2,1.4-0.4,1.9-0.8c0.5-0.3,0.9-0.7,1.2-1.2
		C747.5,432.7,747.7,432.2,747.7,431.7z M741.4,420.8c0.7,0,1.4-0.1,1.9-0.3c0.6-0.2,1-0.5,1.4-0.8c0.4-0.4,0.7-0.8,0.8-1.3
		c0.2-0.5,0.3-1,0.3-1.6c0-1.2-0.4-2.2-1.1-3c-0.8-0.7-1.8-1.1-3.3-1.1c-1.4,0-2.5,0.4-3.3,1.1c-0.8,0.7-1.1,1.7-1.1,3
		c0,0.6,0.1,1.1,0.3,1.6c0.2,0.5,0.5,0.9,0.8,1.3c0.4,0.4,0.8,0.6,1.4,0.8C740,420.7,740.7,420.8,741.4,420.8z"/>
	<path class="st0" d="M754.1,430.7v-29.4h3.5v11.9c0.9-0.9,1.8-1.7,2.9-2.2c1.1-0.6,2.3-0.8,3.6-0.8c1.1,0,2.1,0.2,2.9,0.5
		c0.8,0.4,1.5,0.9,2.1,1.6c0.6,0.7,1,1.5,1.3,2.4c0.3,0.9,0.4,2,0.4,3.1v12.9h-3.5v-12.9c0-1.5-0.3-2.7-1-3.6
		c-0.7-0.8-1.8-1.3-3.2-1.3c-1.1,0-2,0.3-2.9,0.8c-0.9,0.5-1.8,1.2-2.5,2.1v14.9H754.1z"/>
	<path class="st0" d="M789.7,430.7c-0.5,0-0.8-0.2-1-0.7l-0.3-2.5c-0.9,1-1.8,1.9-3,2.5c-1.1,0.6-2.4,0.9-3.8,0.9
		c-1.2,0-2.2-0.2-3.2-0.7c-0.9-0.4-1.7-1.1-2.4-2c-0.7-0.9-1.2-1.9-1.5-3.2c-0.4-1.3-0.5-2.8-0.5-4.4c0-1.5,0.2-2.9,0.6-4.2
		c0.4-1.3,1-2.4,1.7-3.3c0.8-0.9,1.7-1.7,2.7-2.2c1.1-0.5,2.3-0.8,3.7-0.8c1.2,0,2.3,0.2,3.2,0.6c0.9,0.4,1.7,1,2.4,1.8v-11.2h3.5
		v29.4H789.7z M782.9,428.1c1.2,0,2.2-0.3,3-0.8c0.9-0.5,1.7-1.3,2.4-2.3v-9.8c-0.7-0.9-1.4-1.5-2.1-1.8c-0.8-0.4-1.6-0.5-2.6-0.5
		c-1.9,0-3.3,0.7-4.3,2c-1,1.3-1.5,3.3-1.5,5.7c0,1.3,0.1,2.4,0.3,3.4c0.2,0.9,0.6,1.7,1,2.3c0.4,0.6,1,1,1.6,1.3
		C781.3,427.9,782,428.1,782.9,428.1z"/>
	<path class="st0" d="M805,410.2c1.2,0,2.3,0.2,3.3,0.6c1,0.4,1.9,1,2.7,1.8c0.7,0.8,1.3,1.7,1.7,2.8c0.4,1.1,0.6,2.4,0.6,3.8
		c0,0.6-0.1,0.9-0.2,1.1c-0.1,0.2-0.3,0.3-0.7,0.3h-13.4c0,1.3,0.2,2.4,0.5,3.3c0.3,0.9,0.8,1.7,1.3,2.4c0.6,0.6,1.2,1.1,2,1.4
		c0.8,0.3,1.6,0.5,2.6,0.5c0.9,0,1.7-0.1,2.3-0.3c0.6-0.2,1.2-0.4,1.7-0.7c0.5-0.2,0.9-0.5,1.2-0.7c0.3-0.2,0.6-0.3,0.8-0.3
		c0.3,0,0.5,0.1,0.7,0.3l1,1.3c-0.4,0.5-1,1-1.6,1.4c-0.6,0.4-1.3,0.7-2,1c-0.7,0.3-1.4,0.4-2.2,0.6c-0.7,0.1-1.5,0.2-2.2,0.2
		c-1.4,0-2.7-0.2-3.9-0.7c-1.2-0.5-2.2-1.2-3-2.1c-0.9-0.9-1.5-2-2-3.4c-0.5-1.3-0.7-2.9-0.7-4.6c0-1.4,0.2-2.7,0.6-3.9
		c0.4-1.2,1.1-2.3,1.9-3.2c0.8-0.9,1.8-1.6,3-2.1C802.2,410.4,803.5,410.2,805,410.2z M805.1,412.8c-1.7,0-3.1,0.5-4,1.5
		c-1,1-1.6,2.4-1.8,4.1h11c0-0.8-0.1-1.6-0.3-2.3c-0.2-0.7-0.6-1.3-1-1.8c-0.4-0.5-1-0.9-1.6-1.2
		C806.6,412.9,805.9,412.8,805.1,412.8z"/>
</g>
<g>
	<line class="st0" x1="380.3" y1="338.8" x2="990.6" y2="338.8"/>
	<rect x="380.3" y="338.3" class="st0" width="610.3" height="1"/>
</g>
</svg>
