<?xml version="1.0" encoding="UTF-8" standalone="no"?>
<svg
   xmlns:dc="http://purl.org/dc/elements/1.1/"
   xmlns:cc="http://creativecommons.org/ns#"
   xmlns:rdf="http://www.w3.org/1999/02/22-rdf-syntax-ns#"
   xmlns:svg="http://www.w3.org/2000/svg"
   xmlns="http://www.w3.org/2000/svg"
   xmlns:sodipodi="http://sodipodi.sourceforge.net/DTD/sodipodi-0.dtd"
   xmlns:inkscape="http://www.inkscape.org/namespaces/inkscape"
   version="1.0"
   x="0px"
   y="0px"
   viewBox="0 0 94.999985 77.306885"
   enable-background="new 0 0 100 100"
   xml:space="preserve"
   id="svg8"
   sodipodi:docname="noun-northern-ireland-1019239.svg"
   width="94.999985"
   height="77.306885"
   inkscape:version="0.92.4 (5da689c313, 2019-01-14)"><metadata
     id="metadata14"><rdf:RDF><cc:Work
         rdf:about=""><dc:format>image/svg+xml</dc:format><dc:type
           rdf:resource="http://purl.org/dc/dcmitype/StillImage" /><dc:title></dc:title></cc:Work></rdf:RDF></metadata><defs
     id="defs12" /><sodipodi:namedview
     pagecolor="#ffffff"
     bordercolor="#666666"
     borderopacity="1"
     objecttolerance="10"
     gridtolerance="10"
     guidetolerance="10"
     inkscape:pageopacity="0"
     inkscape:pageshadow="2"
     inkscape:window-width="1718"
     inkscape:window-height="1368"
     id="namedview10"
     showgrid="false"
     fit-margin-top="0"
     fit-margin-left="0"
     fit-margin-right="0"
     fit-margin-bottom="0"
     inkscape:zoom="5.3400704"
     inkscape:cx="71.417625"
     inkscape:cy="3.2618509"
     inkscape:window-x="1913"
     inkscape:window-y="0"
     inkscape:window-maximized="0"
     inkscape:current-layer="svg8" /><path style = "fill: #ffffff"
     d="m 58.530197,3.649699 0.541687,0.08803 0.446903,0.643276 1.293309,0.135432 0.36565,0.419813 1.272991,-0.927654 0.345344,0.318226 0.385964,-0.135432 0.11512,0.270866 0.40628,0.03385 0.04062,-0.216684 0.176064,0.440147 0.541687,0.304713 0.812553,-0.01356 0.07448,0.372409 1.753746,0.961503 0.04062,0.270865 1.063088,-0.487509 0.866722,-0.101584 0.656807,-0.778707 0.575553,-0.101586 1.022469,1.144339 0.480751,0.02033 0.927651,0.677122 0.440124,-0.08125 -0.135429,0.419811 0.460434,0.961503 0.826095,0.704193 0.13543,1.327175 -0.595871,0.704193 0.270843,0.792221 -0.06094,0.927654 -0.690658,1.144339 0.115119,0.60265 -0.250534,0.724525 0.480751,0.501064 1.950119,-0.352117 0.887032,0.622942 -0.460442,2.566278 -0.365654,0.385966 -0.155746,0.941209 0.325027,0.365632 0.616188,-0.0677 0.32502,0.636496 0.521378,-0.101584 0.731285,0.521397 0.812553,1.442276 0.595871,1.841751 0.656815,0.521396 0.541687,-0.101585 0.230217,1.239147 0.562004,0.297936 0.846405,1.388092 -0.11512,0.765152 -0.155746,-0.318226 -0.460442,-0.115101 0.176063,0.968281 1.117249,0.819332 0.731277,-0.101586 0.656815,0.433369 -0.11512,0.250534 -0.325027,-0.169281 1.096931,2.302231 0.09481,-0.785442 -0.04063,-0.250534 -0.270843,-0.23024 0.135429,-0.331783 -0.365646,-0.866734 -0.345344,-0.115101 -0.230217,-0.616161 -1.327157,-1.117272 -0.04063,-0.548465 0.209907,0.135433 0.06094,-0.453663 0.595871,0.365631 0.06094,-0.433369 0.189591,0.01356 1.178192,0.683899 1.212051,2.573059 -0.155746,1.868862 0.209907,0.446884 -0.690659,0.85318 v 0.385967 l -0.92765,0.514618 -1.042778,1.04953 -0.480751,-0.216682 -0.927651,0.48077 -0.02032,0.31823 -1.022461,0.169281 -2.099082,1.977184 -0.155747,0.866737 -0.50106,0.866738 0.561996,0.318226 -0.270843,0.582317 0.731285,-0.480774 0.18959,0.135433 -1.096931,1.042755 0.562004,-0.284381 -0.501068,0.663566 0.636497,-0.650051 -0.0948,0.629719 0.270844,0.08125 v -0.893807 l 0.446899,-0.616165 0.656815,0.115101 1.638641,-1.496456 2.295456,-1.130783 0.595871,0.629719 1.774056,0.08125 0.616188,-0.297936 0.115119,0.331784 0.541687,-0.182839 -0.135429,-0.44688 0.176056,-0.297936 0.636497,0.101582 0.11512,0.264088 0.541687,-0.331784 0.09481,0.216687 0.480751,-0.03385 0.92765,1.300064 0.521378,0.03385 0.06094,0.731304 0.176056,-0.196354 0.250534,0.365631 -0.325027,0.927654 0.0948,0.501065 0.40628,1.22559 0.501061,0.250534 0.155746,0.731304 0.446907,0.182834 0.325028,0.54847 -0.176064,1.774056 0.460442,0.663566 0.270843,1.692806 1.063088,0.643276 -0.325028,0.609425 0.250535,0.39952 -0.04063,0.846405 -0.460442,0.250531 -0.176055,0.812557 -0.250534,-0.04741 -0.636498,0.514621 0.616188,1.090153 0.0948,1.516754 -0.385963,0.365631 -0.0948,-0.250534 -0.365654,0.115097 -0.02031,0.595871 -0.31147,0.460442 0.365647,-0.03385 0.115119,0.480774 -0.135429,0.216683 -0.230217,-0.196351 -0.250534,0.758378 0.11512,0.528175 -0.42659,0.250526 -0.189598,-0.60942 -0.345337,0.128654 -0.230217,-0.264091 v -0.90735 l -0.460442,-0.33178 -0.230217,-0.893806 -0.501068,-0.629723 -0.595871,-0.128654 0.196373,-0.182831 -0.196373,-0.264092 0.230225,-1.076641 -0.155747,-0.284382 0.981835,-0.744819 0.209907,0.135433 0.209908,-0.0474 -0.501068,-0.311492 0.595871,0.03385 -0.05416,-1.205295 -0.812553,0.115097 0.927658,-0.731304 -0.230224,0.08125 -0.0948,-0.663567 0.406273,-0.216686 -0.460434,-0.148945 0.18959,-0.562023 -0.325027,-0.0677 -0.32502,-2.13969 -0.426598,-0.19635 -0.446899,0.19635 -0.480751,-0.975056 -0.325028,-0.04741 -0.31147,-0.582314 -0.887031,-0.148948 -0.02031,-0.25053 -1.543839,-1.02924 -0.480751,0.846401 0.09481,1.327175 -0.961525,0.433369 1.212051,0.399521 0.31147,0.616161 0.927658,0.0677 0.0948,0.399521 0.690659,-0.135433 -0.406273,0.331783 -0.135437,0.663567 0.961525,-0.413033 -0.02032,0.297936 -1.002144,0.331783 -0.155747,-0.216686 0.196373,-0.792221 -0.31147,0.34534 -0.09481,-0.460438 -0.209908,0.548466 -0.230217,-0.216682 -0.209907,0.365631 0.29116,0.67712 0.345337,-0.379185 0.365654,0.48077 -0.209907,0.311493 0.345336,0.264088 -0.31147,0.413032 0.250535,0.101586 -0.345337,0.331783 0.135429,0.135433 0.250534,-0.264087 0.209908,0.595871 -0.250534,-0.01355 0.18959,0.284378 -0.325027,0.03385 0.460441,0.08125 0.325028,-0.710972 -0.02032,0.562023 -0.501061,0.941212 0.209908,-0.135433 0.31147,0.42659 -0.135437,0.379185 -0.07447,-0.413033 -0.345337,0.345337 0.209908,0.162506 -0.406281,0.893803 0.291161,-0.03384 v 0.663566 l -0.345345,0.162499 0.155747,0.284386 -0.406273,0.413032 0.155739,0.23024 h -0.406273 l -0.697434,0.595871 0.636498,0.514618 0.365646,-0.277603 0.209908,0.19635 0.325027,-0.528176 0.176056,0.182839 0.690659,-0.541687 0.40628,0.162498 0.541687,-0.480766 0.541687,0.08124 -0.155739,0.677124 0.32502,0.42659 0.135437,-0.690673 0.460434,0.392738 0.04063,1.435501 0.385963,0.460434 -0.230217,0.331787 0.209908,0.148941 -0.13543,0.629723 0.697434,0.264084 -0.07448,0.297935 -0.31147,0.148949 0.09481,-0.23024 -0.270843,-0.08125 -0.07448,0.331787 -0.291153,0.01356 -0.365654,1.252655 -1.191741,1.516755 -0.460442,-0.297936 0.209907,0.575531 -0.345336,0.541695 -0.230217,0.0474 -0.06094,-0.460442 -0.250526,-0.128654 -0.09481,-0.162499 -0.31147,-0.277603 -0.209907,0.446885 0.29116,0.277603 0.04063,0.62294 -0.230225,-0.01356 -0.196365,0.575539 -0.440132,0.331779 -0.230217,-0.575531 -0.250535,0.0474 -0.07447,-0.704193 -0.521378,-0.311493 -1.04277,0.216682 -0.176064,-0.345337 -0.731277,0.0677 -0.270851,0.379188 -0.690651,0.03384 -0.230225,-0.0677 -1.327156,0.19635 -0.561996,-0.738075 0.690658,-0.162506 -0.176063,-0.643273 0.155746,-0.805778 -0.18959,0.115097 -0.616188,1.482902 -0.677124,0.33178 0.11512,0.62294 0.155746,-0.507836 0.480751,-0.297935 0.270851,0.738075 -1.327156,1.022461 -0.792244,1.002129 0.521378,1.049537 0.176056,1.27977 -0.616181,1.923043 0.13543,0.738082 -0.325028,0.954728 -1.950111,1.658958 -0.440125,0.947983 -1.198501,0.379188 -0.501068,0.832848 -1.679268,1.110489 -0.270844,-0.392738 -0.480751,-0.01356 -0.11512,-0.345337 -0.751594,-0.325005 0.50106,-0.480773 0.575562,0.0677 -0.304718,-0.575538 -0.270844,0.0474 -0.11512,-0.358894 -0.480751,0.08125 -0.636497,-0.311493 -0.230217,0.379188 -1.096932,-0.379188 -0.562004,-0.440148 -0.291161,-1.198516 -0.29116,-0.19635 -2.160019,-0.0677 -0.501061,-0.656792 -0.162506,0.0068 v 0 l -1.252678,0.873474 -0.575561,-1.096939 -0.562004,-0.0948 -0.291153,0.433365 0.270843,1.496452 -0.846405,0.97506 -2.390239,0.656791 -0.17606,-0.900589 -0.744839,-0.487503 -0.07447,0.704193 -1.090157,0.602646 -0.880249,-0.203125 -1.327156,0.541687 -0.501064,-0.189613 -0.352097,0.548469 -0.399498,-0.06096 -0.568779,0.514618 -0.176059,-0.115097 -0.880253,-1.37458 -0.690655,-0.473999 0.345337,-0.575531 -0.108341,-0.555252 0.473995,-0.670342 -0.501064,-0.934433 0.880249,-1.096931 0.358875,-1.26622 -0.270844,-0.934433 -2.132934,-1.70636 -0.392719,0.08125 -0.887032,0.988609 -2.112617,-1.658958 -0.501065,-0.805771 -0.616184,-2.207428 -1.069843,-0.826073 0.243755,-0.650047 -0.846405,-3.426239 -0.975056,-0.311493 -0.203128,-1.008903 -0.589097,-0.690682 -1.645401,-1.34069 -1.76052,-0.859955 -0.582318,0.01356 -2.092304,2.667862 0.07447,0.74482 -0.297935,0.318222 -1.40165,0.9141 -0.839626,0.07448 -0.08125,0.941208 -0.677124,0.589096 -0.243756,0.765144 0.995373,0.704193 -0.07447,0.595871 0.893806,0.19635 0.257309,2.681427 -0.670345,0.501061 -1.212055,-0.01356 -1.428715,0.927658 0.352093,0.413033 -0.731282,0.345337 0.352097,1.063087 -0.433369,0.54847 -0.05416,0.920875 -0.744839,1.381317 -0.379188,0.176056 -0.467213,-0.270866 0.291157,-0.785439 -0.209907,-0.358894 0.460437,-0.771935 -0.02709,-0.379188 -0.670345,-0.0677 -0.758375,1.015686 0.0068,0.35212 0.636496,0.575538 0.04063,0.731301 -0.270844,0.494285 -1.042776,-0.19635 -0.724526,-0.589096 -1.029218,0.473999 -0.08803,-1.151115 -0.954744,0.0677 0.318248,-0.873474 -1.699585,0.589089 v 0.622947 l -0.33856,0.257309 -1.726654,-0.494285 -1.083401,0.372406 -0.941209,-0.988617 -0.771929,0.182838 -0.568781,-0.264084 -0.155747,-1.198524 -0.873493,-0.562019 -0.243753,-0.507843 -0.643275,0.135429 -0.751596,-1.198517 -3.575206,-0.03385 -0.710971,0.230239 -1.069844,-0.771926 -0.562002,-0.704193 -0.365652,-3.852829 -2.200648,-0.609429 -0.3995,-0.42659 L 7.820747,60.371816 6.940484,58.570674 5.7826108,57.216434 5.2002954,57.480518 4.4216084,57.06071 2.7152677,54.494426 0.7787073,52.781287 1.1104908,51.738536 0.2979355,51.569255 0,51.04108 1.1240258,50.783767 1.9433379,50.892089 2.180335,50.43843 l 1.9027123,-0.771931 0.2573099,-1.27977 1.4558091,-2.085548 1.1240253,0.09481 1.5032134,0.514618 3.412702,-0.528176 0.264088,-0.25053 0.07447,-0.812557 0.920878,-0.643273 0.189593,-0.480774 0.771929,-0.25053 0.907343,-0.873474 1.151115,-0.379185 -0.169281,-1.421943 -0.927654,0.609428 -0.643275,0.02707 -0.792242,-0.738079 -1.178186,-0.575538 -0.534933,0.385963 -0.934432,0.03385 -0.243755,-1.110489 -0.961523,-0.189613 -0.82609,-0.873475 0.304714,-1.063087 -0.738061,-0.419811 0.04063,-0.379189 1.428719,-0.08125 0.453681,-0.264088 0.792243,-1.509967 0.473993,-0.311493 2.904861,1.977188 0.385965,-0.0474 0.155746,-0.440144 1.746966,-0.975059 1.252682,-1.17141 2.64755,-0.05418 0.392721,0.379185 0.826092,-0.0474 -0.555246,-1.096935 0.02709,-1.713139 1.137562,-1.415207 v 0 l 1.279771,-0.880249 0.196372,-0.975059 v 0 l 0.663587,-0.704189 0.487528,-1.482903 -0.162502,-1.124004 0.196371,-2.011032 v 0 l 0.981836,-0.562024 v 0 L 26.97662,22.344559 26.95631,20.71945 26.705778,20.110024 27.139147,19.548 l -0.169281,-0.636497 0.331783,-0.453661 0.11512,-0.907362 0.94121,-1.408426 0.392723,-0.162503 1.25268,0.19635 0.413036,-0.446882 0.683899,-0.08125 0.473995,-0.575537 v 0 l 0.494305,0.277602 -0.25053,0.920875 -0.345341,-0.101583 -0.02031,0.352115 0.907341,-0.28438 0.176059,0.270867 -0.07447,-0.622942 0.270847,-0.487507 0.460438,0.270864 1.042774,-0.250532 1.076622,0.135433 0.189595,0.101586 v 0.602647 l 0.480751,0.28438 2.755893,-0.399519 0.11512,-0.501064 1.272991,-1.157894 -0.345336,-0.724527 0.176055,-0.893807 0.365654,-0.270864 0.771927,0.0474 -0.406276,-0.318228 0.155746,-0.148947 1.076622,-3.026718 -0.04063,-1.801126 0.365654,0.06769 1.212055,1.096936 1.462585,0.453659 3.067364,0.02033 0.440124,-0.101586 -0.02031,-0.203128 h 0.11512 l 0.189594,0.318227 1.232369,-0.216684 0.385963,-0.826069 -0.07447,-0.37241 1.523525,-0.575536 0.731285,-0.01356 -0.230221,-0.778707 0.636498,0.555246 0.521378,-0.28438 0.846401,0.135431 0.792244,-0.236974 0.941211,-0.622942 0.325024,0.236976 V 5.680655 l 0.345341,0.101584 0.25053,-0.270865 -0.11512,-0.555246 z M 66.899422,0 69.445404,0.758374 69.018814,2.803296 68.693787,3.311138 68.307823,2.65435 68.287513,2.146508 68.714103,1.672513 68.463569,1.218853 67.366637,1.036017 66.229072,1.408426 65.342048,1.13756 65.904044,0.345339 Z"
     id="path2"
     inkscape:connector-curvature="0" /></svg>