<?xml version="1.0" encoding="UTF-8" standalone="no"?>
<!-- Created with Inkscape (http://www.inkscape.org/) -->

<svg
   xmlns:dc="http://purl.org/dc/elements/1.1/"
   xmlns:cc="http://creativecommons.org/ns#"
   xmlns:rdf="http://www.w3.org/1999/02/22-rdf-syntax-ns#"
   xmlns:svg="http://www.w3.org/2000/svg"
   xmlns="http://www.w3.org/2000/svg"
   xmlns:sodipodi="http://sodipodi.sourceforge.net/DTD/sodipodi-0.dtd"
   xmlns:inkscape="http://www.inkscape.org/namespaces/inkscape"
   width="26.968092mm"
   height="27.143021mm"
   viewBox="0 0 26.968092 27.143021"
   version="1.1"
   id="svg8"
   inkscape:version="0.92.4 (5da689c313, 2019-01-14)"
   sodipodi:docname="population indicators.svg">
  <defs
     id="defs2" />
  <sodipodi:namedview
     id="base"
     pagecolor="#ffffff"
     bordercolor="#666666"
     borderopacity="1.0"
     inkscape:pageopacity="0.0"
     inkscape:pageshadow="2"
     inkscape:zoom="1.4"
     inkscape:cx="-239.71256"
     inkscape:cy="35.461414"
     inkscape:document-units="mm"
     inkscape:current-layer="layer1"
     showgrid="false"
     fit-margin-top="0"
     fit-margin-left="0"
     fit-margin-right="0"
     fit-margin-bottom="0"
     inkscape:pagecheckerboard="true"
     inkscape:window-width="3440"
     inkscape:window-height="1377"
     inkscape:window-x="1912"
     inkscape:window-y="-8"
     inkscape:window-maximized="1" />
  <metadata
     id="metadata5">
    <rdf:RDF>
      <cc:Work
         rdf:about="">
        <dc:format>image/svg+xml</dc:format>
        <dc:type
           rdf:resource="http://purl.org/dc/dcmitype/StillImage" />
        <dc:title></dc:title>
      </cc:Work>
    </rdf:RDF>
  </metadata>
  <g
     inkscape:label="Layer 1"
     inkscape:groupmode="layer"
     id="layer1"
     transform="translate(-101.39898,-141.20926)">
    <path
       style="fill:#ffffff;stroke-width:0.26458335;fill-opacity:1"
       d="m 103.53101,167.77279 c -3.655934,-1.93331 -2.31789,-7.59561 1.79574,-7.59919 1.36005,-0.001 2.39831,0.4915 3.30398,1.56783 1.60415,1.90642 0.92186,4.87275 -1.38881,6.03795 -1.48919,0.75096 -2.28102,0.74955 -3.71091,-0.007 z m 3.98208,-1.39844 c 0.92073,-0.88211 1.18089,-1.9355 0.77886,-3.15366 -0.76633,-2.32199 -4.35561,-2.73622 -5.44558,-0.62846 -0.44508,0.8607 -0.49232,2.42683 -0.0956,3.16818 0.87327,1.63172 3.3647,1.95291 4.76228,0.61394 z m -3.98542,-0.91007 c 0,-0.29398 0.17639,-0.52917 0.39688,-0.52917 0.21828,0 0.39687,-0.11679 0.39687,-0.25954 0,-0.14275 0.29032,-0.33241 0.64516,-0.42147 0.80853,-0.20293 2.26526,0.61199 2.26526,1.26722 0,0.6212 -1.01156,0.62736 -1.49238,0.009 -0.34294,-0.44098 -0.37331,-0.44098 -0.63763,0 -0.39854,0.66489 -1.57416,0.61549 -1.57416,-0.0661 z m -0.35508,-1.80591 c -0.4101,-0.45315 -0.41336,-0.53155 -0.0352,-0.84541 0.34747,-0.28837 0.49009,-0.27267 0.85712,0.0944 0.39535,0.39535 0.39894,0.48164 0.0352,0.8454 -0.36376,0.36376 -0.45125,0.35413 -0.85712,-0.0944 z m 3.56896,0.13295 c -0.23232,-0.27993 -0.18898,-0.4653 0.18871,-0.8071 0.41195,-0.37281 0.53848,-0.38564 0.79188,-0.0803 0.23232,0.27993 0.18897,0.4653 -0.18871,0.8071 -0.41195,0.37281 -0.53849,0.38564 -0.79188,0.0803 z m -1.84239,-1.16905 c 0.0505,-0.43748 0.26748,-0.76019 0.54674,-0.81315 0.35958,-0.0682 0.46302,0.0939 0.46302,0.72534 0,0.64547 -0.11274,0.81315 -0.54674,0.81315 -0.44,0 -0.53039,-0.14161 -0.46302,-0.72534 z m 6.09572,5.34055 c -0.56604,-0.39648 -0.58804,-0.5704 -0.58804,-4.64961 0,-3.89333 0.0376,-4.23053 0.46302,-4.14907 0.40922,0.0784 0.47839,0.54946 0.59531,4.0543 0.10975,3.28982 0.19993,3.96563 0.52917,3.96563 0.3314,0 0.4187,-0.72026 0.52917,-4.36563 l 0.13229,-4.36562 h 1.32292 1.32291 l 0.13229,4.36562 c 0.11047,3.64537 0.19777,4.36563 0.52917,4.36563 0.33597,0 0.41718,-0.85218 0.52917,-5.55293 0.11952,-5.01695 0.17698,-5.56151 0.59531,-5.6418 0.42964,-0.0825 0.46302,0.33106 0.46302,5.73637 0,5.71969 -0.0106,5.83269 -0.58804,6.23711 -0.79144,0.55434 -1.4221,0.5184 -2.05779,-0.11729 -0.48213,-0.48213 -0.52917,-0.88195 -0.52917,-4.49792 0,-3.35139 -0.0617,-3.96875 -0.39687,-3.96875 -0.33514,0 -0.39688,0.61736 -0.39688,3.96875 0,3.61597 -0.047,4.01579 -0.52917,4.49792 -0.63569,0.63569 -1.26635,0.67163 -2.05779,0.11729 z m 10.69781,0.026 c -1.3101,-0.46713 -2.23649,-1.33123 -2.84827,-2.65678 -1.59981,-3.46632 1.34401,-7.37941 5.22264,-6.94223 4.90406,0.55276 5.84518,7.42288 1.29969,9.48761 -1.26619,0.57514 -2.28661,0.60608 -3.67406,0.11139 z m 3.42378,-1.17613 c 3.67704,-1.66993 2.45845,-7.42886 -1.57277,-7.43278 -4.25101,-0.004 -5.68224,5.53608 -1.91225,7.40223 1.32898,0.65784 2.0891,0.66451 3.48502,0.0306 z m -1.69517,-0.61056 c -0.17701,-0.17701 -0.80367,-0.28566 -1.39946,-0.24265 -0.92258,0.0666 -1.06547,0.008 -0.98611,-0.40402 0.0511,-0.26505 0.32957,-0.52632 0.61894,-0.5806 0.28937,-0.0543 0.62134,-0.26399 0.73771,-0.46605 0.26337,-0.45729 0.95258,-0.4798 1.12236,-0.0367 0.0853,0.22264 0.56625,0.30022 1.47155,0.23739 1.19197,-0.0827 1.33425,-0.0376 1.25178,0.39687 -0.0608,0.32027 -0.36744,0.52111 -0.88453,0.57932 -0.43532,0.049 -0.8867,0.25737 -1.00307,0.46302 -0.25926,0.45816 -0.50999,0.47257 -0.92917,0.0534 z m -1.33457,-3.50511 c -0.89952,-0.97586 -1.04881,-1.28458 -0.86365,-1.78594 0.20064,-0.54327 0.41282,-0.61176 2.046,-0.6604 1.8565,-0.0553 2.4836,0.24108 2.4836,1.17379 0,0.34107 -2.07079,2.44219 -2.4137,2.44906 -0.0906,0.002 -0.65412,-0.52762 -1.25225,-1.17651 z m 2.07845,-0.80457 c 0.67406,-0.71751 0.56472,-0.85338 -0.26818,-0.33323 -0.41832,0.26125 -0.63283,0.26125 -1.05115,0 -0.83289,-0.52015 -0.94224,-0.38428 -0.26817,0.33323 0.34177,0.3638 0.69896,0.66146 0.79375,0.66146 0.0948,0 0.45197,-0.29766 0.79375,-0.66146 z m -19.31459,-3.04271 c 0,-0.35277 0.17639,-0.52916 0.52917,-0.52916 0.35278,0 0.52916,0.17639 0.52916,0.52916 0,0.35278 -0.17638,0.52917 -0.52916,0.52917 -0.35278,0 -0.52917,-0.17639 -0.52917,-0.52917 z m 6.14429,-1.20562 c -1.13595,-0.79566 -0.56967,-2.49854 0.83088,-2.49854 0.59502,0 1.22691,0.75147 1.22691,1.4591 0,0.53257 -0.83746,1.45131 -1.32291,1.45131 -0.0808,0 -0.41146,-0.18534 -0.73488,-0.41187 z m 0.99946,-1.04333 c 0,-0.21829 -0.11906,-0.39688 -0.26458,-0.39688 -0.14552,0 -0.26459,0.17859 -0.26459,0.39688 0,0.21828 0.11907,0.39687 0.26459,0.39687 0.14552,0 0.26458,-0.17859 0.26458,-0.39687 z m -7.14375,0.39687 c 0,-0.35278 0.17639,-0.52917 0.52917,-0.52917 0.35278,0 0.52916,0.17639 0.52916,0.52917 0,0.35278 -0.17638,0.52917 -0.52916,0.52917 -0.35278,0 -0.52917,-0.17639 -0.52917,-0.52917 z m 1.85208,0 c 0,-0.35278 0.17639,-0.52917 0.52917,-0.52917 0.35278,0 0.52917,0.17639 0.52917,0.52917 0,0.35278 -0.17639,0.52917 -0.52917,0.52917 -0.35278,0 -0.52917,-0.17639 -0.52917,-0.52917 z m 1.85209,0 c 0,-0.35278 0.17639,-0.52917 0.52916,-0.52917 0.35278,0 0.52917,0.17639 0.52917,0.52917 0,0.35278 -0.17639,0.52917 -0.52917,0.52917 -0.35277,0 -0.52916,-0.17639 -0.52916,-0.52917 z m 14.33728,-0.45998 c 0.13283,-0.6897 1.00855,-0.76662 1.00855,-0.0886 0,0.37865 -0.16992,0.54857 -0.54857,0.54857 -0.37864,0 -0.52112,-0.14248 -0.45998,-0.45998 z m -7.01163,-1.2984 c -0.37452,-0.37452 -0.1626,-0.88745 0.36667,-0.88745 0.36987,0 0.5207,0.14368 0.46302,0.44109 -0.0944,0.48696 -0.5461,0.72995 -0.82969,0.44636 z m 1.67018,-0.33889 c 0,-0.37864 0.16992,-0.54856 0.54857,-0.54856 0.37864,0 0.52113,0.14248 0.45998,0.45998 -0.13282,0.6897 -1.00855,0.76662 -1.00855,0.0886 z m 1.85209,-0.0194 c 0,-0.29398 0.17638,-0.52916 0.39687,-0.52916 0.22049,0 0.39688,0.23518 0.39688,0.52916 0,0.29398 -0.17639,0.52917 -0.39688,0.52917 -0.22049,0 -0.39687,-0.23519 -0.39687,-0.52917 z m 1.76388,0.35278 c -0.36421,-0.36421 -0.15712,-0.88194 0.35278,-0.88194 0.35278,0 0.52917,0.17639 0.52917,0.52916 0,0.50991 -0.51773,0.717 -0.88195,0.35278 z m 1.85209,0 c -0.36422,-0.36421 -0.15713,-0.88194 0.35278,-0.88194 0.35277,0 0.52916,0.17639 0.52916,0.52916 0,0.50991 -0.51773,0.717 -0.88194,0.35278 z m -12.61181,-1.7599 c 0,-1.07004 0.0545,-1.04842 -3.83646,-1.52089 -2.96272,-0.35975 -3.83646,-0.7445 -3.83646,-1.6894 0,-1.30481 0.5119,-1.468 4.60473,-1.468 h 3.77319 l -0.1202,-1.44939 c -0.11398,-1.37442 -0.072,-1.49758 0.81167,-2.38125 0.80174,-0.80174 1.10551,-0.93186 2.17541,-0.93186 1.06989,0 1.37366,0.13012 2.1754,0.93186 0.88367,0.88367 0.92565,1.00683 0.81167,2.38125 -0.0905,1.091 -0.033,1.44939 0.2323,1.44939 0.19388,0 0.3525,0.23812 0.3525,0.52916 0,0.44973 -0.17639,0.52917 -1.17501,0.52917 -1.43055,0 -1.67701,-0.31587 -0.95885,-1.22886 0.54081,-0.68752 0.69977,-1.76767 0.38201,-2.59574 -0.24787,-0.64594 -1.58251,-1.23897 -2.35308,-1.04557 -1.4355,0.36029 -1.96758,2.56673 -0.89443,3.70905 0.30629,0.32603 0.47785,0.72066 0.38126,0.87695 -0.11397,0.18441 -1.74917,0.28417 -4.65793,0.28417 -3.62342,0 -4.4823,0.0696 -4.4823,0.36324 0,0.26812 0.97159,0.48743 3.7101,0.83747 3.41707,0.43677 3.72171,0.52049 3.85711,1.06 0.25245,1.00582 0.009,2.09363 -0.48961,2.1882 -0.36878,0.0699 -0.46302,-0.0988 -0.46302,-0.82895 z m 3.06161,0.46218 c -0.62992,-0.62991 -0.51485,-1.62377 0.24568,-2.1221 0.61274,-0.40148 0.71018,-0.40148 1.32292,0 0.7207,0.47223 0.90465,1.65968 0.34396,2.22038 -0.44523,0.44522 -1.4191,0.39518 -1.91256,-0.0983 z m 1.21141,-1.03943 c 0,-0.13825 -0.12799,-0.29402 -0.28442,-0.34616 -0.15644,-0.0521 -0.28443,0.10362 -0.28443,0.34616 0,0.24253 0.12799,0.39831 0.28443,0.34616 0.15643,-0.0521 0.28442,-0.20792 0.28442,-0.34616 z m 1.86097,-0.58938 c 0.0943,-0.81281 0.10342,-0.8154 4.91237,-1.39324 1.97996,-0.23791 2.71198,-0.42496 2.71198,-0.69298 0,-0.25191 -0.33212,-0.36711 -1.05834,-0.36711 -0.88194,0 -1.05833,-0.0882 -1.05833,-0.52917 0,-0.44797 0.17639,-0.52916 1.14962,-0.52916 1.2711,0 2.02538,0.57206 2.02538,1.53609 0,0.903 -0.97727,1.28915 -4.19873,1.659 -1.6834,0.19327 -3.16066,0.49792 -3.35453,0.6918 -0.62318,0.62318 -1.22216,0.42418 -1.12942,-0.37523 z m 2.33268,-2.45333 c -0.29104,-0.29104 -0.52917,-0.68127 -0.52917,-0.86717 0,-0.65295 0.82765,-1.51408 1.45521,-1.51408 0.62756,0 1.45521,0.86113 1.45521,1.51408 0,0.46499 -0.97062,1.39634 -1.45521,1.39634 -0.21828,0 -0.635,-0.23813 -0.92604,-0.52917 z m 1.32292,-1.07395 c 0,-0.13693 -0.1786,-0.24897 -0.39688,-0.24897 -0.40915,0 -0.52565,0.3122 -0.22768,0.61017 0.21138,0.21139 0.62456,-0.0276 0.62456,-0.3612 z m -16.86198,-0.64128 c -1.13657,-0.4941 -1.92121,-1.82918 -1.92245,-3.27108 -0.001,-1.52441 0.66349,-2.57688 2.05245,-3.24926 1.4619,-0.70769 2.68441,-0.50333 3.95508,0.66115 1.8227,1.67038 1.38147,4.77835 -0.82716,5.82641 -1.08845,0.51651 -2.1213,0.5269 -3.25792,0.0328 z m 3.38858,-1.43947 c 0.82568,-0.82568 1.04046,-2.20195 0.50097,-3.21001 -0.43018,-0.8038 -1.78015,-1.37917 -2.79096,-1.18954 -2.90983,0.54588 -2.41801,5.17295 0.54984,5.17295 0.71573,0 1.16756,-0.20081 1.74015,-0.7734 z m -2.40161,-0.68181 c 0,-0.52916 -0.13229,-0.66146 -0.66145,-0.66146 -0.48507,0 -0.66146,-0.14111 -0.66146,-0.52916 0,-0.38806 0.17639,-0.52917 0.66146,-0.52917 0.52916,0 0.66145,-0.13229 0.66145,-0.66146 0,-0.48507 0.14112,-0.66146 0.52917,-0.66146 0.38806,0 0.52917,0.17639 0.52917,0.66146 0,0.52917 0.13229,0.66146 0.66146,0.66146 0.48507,0 0.66145,0.14111 0.66145,0.52917 0,0.38805 -0.17638,0.52916 -0.66145,0.52916 -0.52917,0 -0.66146,0.1323 -0.66146,0.66146 0,0.48507 -0.14111,0.66146 -0.52917,0.66146 -0.38805,0 -0.52917,-0.17639 -0.52917,-0.66146 z m 18.60387,2.01326 c -2.07022,-1.3009 -2.35148,-4.22498 -0.56676,-5.89216 2.02439,-1.89107 5.40788,-0.73044 5.92628,2.03287 0.24038,1.28133 -0.0289,2.11753 -1.03548,3.21593 -0.72271,0.78862 -1.08673,0.96609 -2.17453,1.06014 -0.99084,0.0857 -1.51017,-0.015 -2.14951,-0.41678 z m 3.81916,-1.48249 c 0.64217,-0.74657 0.79368,-2.18005 0.3233,-3.05897 -0.75758,-1.41555 -3.06885,-1.61341 -4.24331,-0.36325 -0.99087,1.05473 -0.88029,2.59112 0.2598,3.60979 0.77328,0.69093 1.0354,0.77716 1.97795,0.65074 0.72303,-0.097 1.28583,-0.37743 1.68226,-0.83831 z m -2.01228,0.15967 c -0.22526,-0.14273 -0.29255,-0.43697 -0.1806,-0.7897 0.13012,-0.40998 0.0662,-0.5622 -0.23627,-0.5622 -0.22809,0 -0.41471,-0.1845 -0.41471,-0.41001 0,-0.64998 0.77304,-1.97124 1.15332,-1.97124 0.55215,0 0.70059,0.29596 0.41556,0.82854 -0.2019,0.37727 -0.17358,0.49438 0.11956,0.49438 0.61414,0 0.65721,0.58601 0.12154,1.65365 -0.2738,0.5457 -0.52516,0.99036 -0.55858,0.98813 -0.0334,-0.002 -0.22234,-0.10642 -0.41982,-0.23155 z m -15.38366,-0.029 c 0,-0.35278 0.17639,-0.52917 0.52916,-0.52917 0.35278,0 0.52917,0.17639 0.52917,0.52917 0,0.35278 -0.17639,0.52917 -0.52917,0.52917 -0.35277,0 -0.52916,-0.17639 -0.52916,-0.52917 z m 10.05417,-0.52917 c 0,-0.29398 0.17638,-0.52916 0.39687,-0.52916 0.22049,0 0.39688,0.23518 0.39688,0.52916 0,0.29398 -0.17639,0.52917 -0.39688,0.52917 -0.22049,0 -0.39687,-0.23519 -0.39687,-0.52917 z m -10.05417,-1.32289 c 0,-0.35278 0.17639,-0.52917 0.52916,-0.52917 0.35278,0 0.52917,0.17639 0.52917,0.52917 0,0.35277 -0.17639,0.52916 -0.52917,0.52916 -0.35277,0 -0.52916,-0.17639 -0.52916,-0.52916 z m 10.05417,-0.39688 c 0,-0.21828 0.17859,-0.39687 0.39687,-0.39687 0.21828,0 0.39688,0.17859 0.39688,0.39687 0,0.21828 -0.1786,0.39688 -0.39688,0.39688 -0.21828,0 -0.39687,-0.1786 -0.39687,-0.39688 z"
       id="path830"
       inkscape:connector-curvature="0" />
  </g>
</svg>
